<mxfile host="www.draw.io" modified="2020-09-10T06:27:34.457Z" agent="5.0 (Windows NT 10.0; Win64; x64) AppleWebKit/537.36 (KHTML, like Gecko) Chrome/85.0.4183.83 Safari/537.36" etag="1KFwN63t7s0utDuteybr" version="13.6.6" type="github">
  <diagram id="Jvn4Tx_LyfPUEHeZEhVa" name="Page-1">
    <mxGraphModel dx="1345" dy="802" grid="0" gridSize="10" guides="1" tooltips="1" connect="1" arrows="1" fold="1" page="1" pageScale="1" pageWidth="9000" pageHeight="9000" math="0" shadow="0">
      <root>
        <mxCell id="0" />
        <mxCell id="1" parent="0" />
        <mxCell id="xz6AxM3HopdPyTxjWoAX-3" style="edgeStyle=orthogonalEdgeStyle;rounded=0;orthogonalLoop=1;jettySize=auto;html=1;" parent="1" edge="1">
          <mxGeometry relative="1" as="geometry">
            <mxPoint x="970" y="280" as="targetPoint" />
            <mxPoint x="180" y="280" as="sourcePoint" />
          </mxGeometry>
        </mxCell>
        <mxCell id="xz6AxM3HopdPyTxjWoAX-2" value="Develop" style="ellipse;whiteSpace=wrap;html=1;" parent="1" vertex="1">
          <mxGeometry x="30" y="260" width="60" height="40" as="geometry" />
        </mxCell>
        <mxCell id="xz6AxM3HopdPyTxjWoAX-6" value="merge to develop" style="edgeStyle=orthogonalEdgeStyle;rounded=0;orthogonalLoop=1;jettySize=auto;html=1;entryX=0.5;entryY=1;entryDx=0;entryDy=0;" parent="1" source="xz6AxM3HopdPyTxjWoAX-7" target="xz6AxM3HopdPyTxjWoAX-33" edge="1">
          <mxGeometry x="0.7333" y="10" relative="1" as="geometry">
            <mxPoint x="971" y="340" as="targetPoint" />
            <mxPoint as="offset" />
          </mxGeometry>
        </mxCell>
        <mxCell id="xz6AxM3HopdPyTxjWoAX-42" value="merge to master" style="edgeStyle=orthogonalEdgeStyle;rounded=0;orthogonalLoop=1;jettySize=auto;html=1;endArrow=block;endFill=1;strokeColor=#000000;fontSize=11;fontStyle=0" parent="1" source="xz6AxM3HopdPyTxjWoAX-7" target="xz6AxM3HopdPyTxjWoAX-39" edge="1">
          <mxGeometry x="0.25" y="-20" relative="1" as="geometry">
            <mxPoint as="offset" />
          </mxGeometry>
        </mxCell>
        <mxCell id="xz6AxM3HopdPyTxjWoAX-7" value="release&lt;br&gt;/1.0.0" style="ellipse;whiteSpace=wrap;html=1;" parent="1" vertex="1">
          <mxGeometry x="410" y="320" width="60" height="40" as="geometry" />
        </mxCell>
        <mxCell id="xz6AxM3HopdPyTxjWoAX-8" style="edgeStyle=orthogonalEdgeStyle;rounded=0;orthogonalLoop=1;jettySize=auto;html=1;" parent="1" source="xz6AxM3HopdPyTxjWoAX-39" edge="1">
          <mxGeometry relative="1" as="geometry">
            <mxPoint x="971" y="400" as="targetPoint" />
            <mxPoint x="180" y="400" as="sourcePoint" />
          </mxGeometry>
        </mxCell>
        <mxCell id="xz6AxM3HopdPyTxjWoAX-9" value="master" style="ellipse;whiteSpace=wrap;html=1;" parent="1" vertex="1">
          <mxGeometry x="31" y="380" width="60" height="40" as="geometry" />
        </mxCell>
        <mxCell id="xz6AxM3HopdPyTxjWoAX-12" value="0.0.1" style="text;html=1;strokeColor=#b85450;fillColor=#f8cecc;align=center;verticalAlign=middle;whiteSpace=wrap;rounded=0;" parent="1" vertex="1">
          <mxGeometry x="140" y="390" width="60" height="20" as="geometry" />
        </mxCell>
        <mxCell id="xz6AxM3HopdPyTxjWoAX-18" style="edgeStyle=orthogonalEdgeStyle;rounded=0;orthogonalLoop=1;jettySize=auto;html=1;endArrow=none;endFill=0;" parent="1" source="xz6AxM3HopdPyTxjWoAX-9" edge="1">
          <mxGeometry relative="1" as="geometry">
            <mxPoint x="140" y="400" as="targetPoint" />
            <mxPoint x="91" y="400" as="sourcePoint" />
          </mxGeometry>
        </mxCell>
        <mxCell id="xz6AxM3HopdPyTxjWoAX-20" value="feature/&lt;br&gt;sayhello" style="ellipse;whiteSpace=wrap;html=1;" parent="1" vertex="1">
          <mxGeometry x="160" y="160" width="60" height="40" as="geometry" />
        </mxCell>
        <mxCell id="xz6AxM3HopdPyTxjWoAX-25" value="branch out" style="edgeStyle=orthogonalEdgeStyle;rounded=0;orthogonalLoop=1;jettySize=auto;html=1;entryX=0;entryY=1;entryDx=0;entryDy=0;exitX=0.25;exitY=0;exitDx=0;exitDy=0;" parent="1" source="xz6AxM3HopdPyTxjWoAX-37" target="xz6AxM3HopdPyTxjWoAX-20" edge="1">
          <mxGeometry relative="1" as="geometry">
            <mxPoint x="160" y="270" as="sourcePoint" />
          </mxGeometry>
        </mxCell>
        <mxCell id="xz6AxM3HopdPyTxjWoAX-23" style="edgeStyle=orthogonalEdgeStyle;rounded=0;orthogonalLoop=1;jettySize=auto;html=1;entryX=0;entryY=0;entryDx=0;entryDy=0;endArrow=none;endFill=0;" parent="1" source="xz6AxM3HopdPyTxjWoAX-2" target="xz6AxM3HopdPyTxjWoAX-37" edge="1">
          <mxGeometry relative="1" as="geometry">
            <mxPoint x="140" y="280" as="targetPoint" />
            <mxPoint x="90" y="280" as="sourcePoint" />
            <Array as="points">
              <mxPoint x="130" y="280" />
              <mxPoint x="130" y="280" />
            </Array>
          </mxGeometry>
        </mxCell>
        <mxCell id="xz6AxM3HopdPyTxjWoAX-38" value="branch out" style="edgeStyle=orthogonalEdgeStyle;rounded=0;orthogonalLoop=1;jettySize=auto;html=1;entryX=0;entryY=0.5;entryDx=0;entryDy=0;endArrow=block;endFill=1;strokeColor=#000000;fontSize=9;exitX=0.5;exitY=1;exitDx=0;exitDy=0;" parent="1" source="xz6AxM3HopdPyTxjWoAX-54" target="xz6AxM3HopdPyTxjWoAX-7" edge="1">
          <mxGeometry relative="1" as="geometry" />
        </mxCell>
        <mxCell id="xz6AxM3HopdPyTxjWoAX-32" value="" style="text;html=1;strokeColor=#b85450;fillColor=#f8cecc;align=center;verticalAlign=middle;whiteSpace=wrap;rounded=0;" parent="1" vertex="1">
          <mxGeometry x="280" y="280" width="20" height="10" as="geometry" />
        </mxCell>
        <mxCell id="xz6AxM3HopdPyTxjWoAX-33" value="1.0.0" style="text;html=1;strokeColor=#b85450;fillColor=#f8cecc;align=center;verticalAlign=middle;whiteSpace=wrap;rounded=0;" parent="1" vertex="1">
          <mxGeometry x="550" y="280" width="60" height="20" as="geometry" />
        </mxCell>
        <mxCell id="xz6AxM3HopdPyTxjWoAX-36" value="" style="endArrow=classic;html=1;strokeColor=#000000;fontSize=9;exitX=1;exitY=0.5;exitDx=0;exitDy=0;" parent="1" source="xz6AxM3HopdPyTxjWoAX-20" edge="1">
          <mxGeometry width="50" height="50" relative="1" as="geometry">
            <mxPoint x="190" y="260" as="sourcePoint" />
            <mxPoint x="290" y="280" as="targetPoint" />
            <Array as="points">
              <mxPoint x="290" y="180" />
            </Array>
          </mxGeometry>
        </mxCell>
        <mxCell id="xz6AxM3HopdPyTxjWoAX-56" value="merge to" style="edgeLabel;html=1;align=center;verticalAlign=middle;resizable=0;points=[];fontSize=9;" parent="xz6AxM3HopdPyTxjWoAX-36" vertex="1" connectable="0">
          <mxGeometry x="-0.1882" y="-32" relative="1" as="geometry">
            <mxPoint as="offset" />
          </mxGeometry>
        </mxCell>
        <mxCell id="xz6AxM3HopdPyTxjWoAX-37" value="0.0.1" style="text;html=1;strokeColor=#b85450;fillColor=#f8cecc;align=center;verticalAlign=middle;whiteSpace=wrap;rounded=0;" parent="1" vertex="1">
          <mxGeometry x="150" y="280" width="60" height="20" as="geometry" />
        </mxCell>
        <mxCell id="xz6AxM3HopdPyTxjWoAX-39" value="1.0.0" style="text;html=1;strokeColor=#b85450;fillColor=#f8cecc;align=center;verticalAlign=middle;whiteSpace=wrap;rounded=0;" parent="1" vertex="1">
          <mxGeometry x="550" y="390" width="60" height="20" as="geometry" />
        </mxCell>
        <mxCell id="xz6AxM3HopdPyTxjWoAX-41" style="edgeStyle=orthogonalEdgeStyle;rounded=0;orthogonalLoop=1;jettySize=auto;html=1;" parent="1" target="xz6AxM3HopdPyTxjWoAX-39" edge="1">
          <mxGeometry relative="1" as="geometry">
            <mxPoint x="971" y="400" as="targetPoint" />
            <mxPoint x="200" y="400" as="sourcePoint" />
          </mxGeometry>
        </mxCell>
        <mxCell id="xz6AxM3HopdPyTxjWoAX-49" value="" style="text;html=1;strokeColor=#b85450;fillColor=#f8cecc;align=center;verticalAlign=middle;whiteSpace=wrap;rounded=0;" parent="1" vertex="1">
          <mxGeometry x="330" y="279" width="20" height="10" as="geometry" />
        </mxCell>
        <mxCell id="xz6AxM3HopdPyTxjWoAX-54" value="" style="text;html=1;strokeColor=#b85450;fillColor=#f8cecc;align=center;verticalAlign=middle;whiteSpace=wrap;rounded=0;" parent="1" vertex="1">
          <mxGeometry x="372" y="281" width="20" height="10" as="geometry" />
        </mxCell>
        <mxCell id="xz6AxM3HopdPyTxjWoAX-59" value="feature/&lt;br&gt;sayhello" style="ellipse;whiteSpace=wrap;html=1;" parent="1" vertex="1">
          <mxGeometry x="102" y="757" width="60" height="40" as="geometry" />
        </mxCell>
        <mxCell id="xz6AxM3HopdPyTxjWoAX-66" style="edgeStyle=orthogonalEdgeStyle;rounded=0;orthogonalLoop=1;jettySize=auto;html=1;entryX=0;entryY=0.5;entryDx=0;entryDy=0;endArrow=none;endFill=0;strokeColor=#000000;fontSize=11;" parent="1" source="xz6AxM3HopdPyTxjWoAX-60" target="xz6AxM3HopdPyTxjWoAX-67" edge="1">
          <mxGeometry relative="1" as="geometry" />
        </mxCell>
        <mxCell id="xz6AxM3HopdPyTxjWoAX-68" value="publish jar to artifactory" style="edgeLabel;html=1;align=center;verticalAlign=middle;resizable=0;points=[];fontSize=11;" parent="xz6AxM3HopdPyTxjWoAX-66" vertex="1" connectable="0">
          <mxGeometry x="-0.0878" relative="1" as="geometry">
            <mxPoint as="offset" />
          </mxGeometry>
        </mxCell>
        <mxCell id="xz6AxM3HopdPyTxjWoAX-60" value="develop" style="ellipse;whiteSpace=wrap;html=1;" parent="1" vertex="1">
          <mxGeometry x="171" y="757" width="60" height="40" as="geometry" />
        </mxCell>
        <mxCell id="xz6AxM3HopdPyTxjWoAX-64" value="&lt;span style=&quot;font-size: 12px&quot;&gt;16863d3-2-SNAPSHOT&lt;/span&gt;" style="text;html=1;strokeColor=#b85450;fillColor=#f8cecc;align=center;verticalAlign=middle;whiteSpace=wrap;rounded=0;fontSize=11;" parent="1" vertex="1">
          <mxGeometry x="310" y="792" width="155" height="20" as="geometry" />
        </mxCell>
        <mxCell id="xz6AxM3HopdPyTxjWoAX-67" value="datalink-snapshot artifactory" style="rounded=0;whiteSpace=wrap;html=1;fillColor=#fff2cc;strokeColor=#d6b656;" parent="1" vertex="1">
          <mxGeometry x="570" y="757" width="120" height="50" as="geometry" />
        </mxCell>
        <mxCell id="xz6AxM3HopdPyTxjWoAX-76" value="publish jar to artifactory" style="edgeStyle=orthogonalEdgeStyle;rounded=0;orthogonalLoop=1;jettySize=auto;html=1;entryX=0;entryY=0.5;entryDx=0;entryDy=0;endArrow=none;endFill=0;strokeColor=#000000;fontSize=11;" parent="1" source="xz6AxM3HopdPyTxjWoAX-71" target="xz6AxM3HopdPyTxjWoAX-75" edge="1">
          <mxGeometry relative="1" as="geometry" />
        </mxCell>
        <mxCell id="xz6AxM3HopdPyTxjWoAX-78" style="edgeStyle=orthogonalEdgeStyle;rounded=0;orthogonalLoop=1;jettySize=auto;html=1;endArrow=none;endFill=0;strokeColor=#000000;fontSize=11;" parent="1" source="xz6AxM3HopdPyTxjWoAX-71" target="xz6AxM3HopdPyTxjWoAX-77" edge="1">
          <mxGeometry relative="1" as="geometry">
            <Array as="points">
              <mxPoint x="270" y="960" />
              <mxPoint x="270" y="1060" />
            </Array>
          </mxGeometry>
        </mxCell>
        <mxCell id="xz6AxM3HopdPyTxjWoAX-79" value="send email&amp;nbsp;" style="edgeLabel;html=1;align=center;verticalAlign=middle;resizable=0;points=[];fontSize=11;" parent="xz6AxM3HopdPyTxjWoAX-78" vertex="1" connectable="0">
          <mxGeometry x="0.6508" y="-2" relative="1" as="geometry">
            <mxPoint x="-197" y="-2" as="offset" />
          </mxGeometry>
        </mxCell>
        <mxCell id="xz6AxM3HopdPyTxjWoAX-88" style="edgeStyle=orthogonalEdgeStyle;rounded=0;orthogonalLoop=1;jettySize=auto;html=1;entryX=0;entryY=0.5;entryDx=0;entryDy=0;endArrow=none;endFill=0;strokeColor=#000000;fontSize=11;" parent="1" source="xz6AxM3HopdPyTxjWoAX-71" target="xz6AxM3HopdPyTxjWoAX-87" edge="1">
          <mxGeometry relative="1" as="geometry">
            <Array as="points">
              <mxPoint x="270" y="960" />
              <mxPoint x="270" y="1196" />
            </Array>
          </mxGeometry>
        </mxCell>
        <mxCell id="xz6AxM3HopdPyTxjWoAX-89" value="send notification" style="edgeLabel;html=1;align=center;verticalAlign=middle;resizable=0;points=[];fontSize=11;" parent="xz6AxM3HopdPyTxjWoAX-88" vertex="1" connectable="0">
          <mxGeometry x="0.385" relative="1" as="geometry">
            <mxPoint x="-69.5" as="offset" />
          </mxGeometry>
        </mxCell>
        <mxCell id="xz6AxM3HopdPyTxjWoAX-71" value="master" style="ellipse;whiteSpace=wrap;html=1;" parent="1" vertex="1">
          <mxGeometry x="100" y="940" width="60" height="40" as="geometry" />
        </mxCell>
        <mxCell id="xz6AxM3HopdPyTxjWoAX-72" value="release-notes.json" style="text;html=1;strokeColor=#b85450;fillColor=#f8cecc;align=center;verticalAlign=middle;whiteSpace=wrap;rounded=0;fontSize=11;" parent="1" vertex="1">
          <mxGeometry x="310" y="1210" width="110" height="20" as="geometry" />
        </mxCell>
        <mxCell id="xz6AxM3HopdPyTxjWoAX-73" value="release-notes.html" style="text;html=1;strokeColor=#b85450;fillColor=#f8cecc;align=center;verticalAlign=middle;whiteSpace=wrap;rounded=0;fontSize=11;" parent="1" vertex="1">
          <mxGeometry x="300" y="1070" width="110" height="20" as="geometry" />
        </mxCell>
        <mxCell id="xz6AxM3HopdPyTxjWoAX-75" value="datalink-release&lt;br&gt;artifactory" style="rounded=0;whiteSpace=wrap;html=1;fillColor=#fff2cc;strokeColor=#d6b656;" parent="1" vertex="1">
          <mxGeometry x="570" y="930" width="120" height="60" as="geometry" />
        </mxCell>
        <mxCell id="xz6AxM3HopdPyTxjWoAX-77" value="subscribers" style="shape=umlActor;verticalLabelPosition=bottom;verticalAlign=top;html=1;outlineConnect=0;fontSize=11;" parent="1" vertex="1">
          <mxGeometry x="650" y="1030" width="30" height="60" as="geometry" />
        </mxCell>
        <mxCell id="xz6AxM3HopdPyTxjWoAX-87" value="" style="shape=image;verticalLabelPosition=bottom;labelBackgroundColor=#ffffff;verticalAlign=top;aspect=fixed;imageAspect=0;image=data:image/png,iVBORw0KGgoAAAANSUhEUgAAAMMAAABFCAYAAAD3llJvAAAfr0lEQVR4Ae2dB5hU1dnHTU+MLRbssSUqKmIvMZbYS1TssRAltljR2FAEFRMTxd6xxN5ioyOggtJ7laUJu/Tdndmd7Tv1/z2/s/sudy8zszPCLgPfvM9z5s7ce+6p7/+85ZTZRHnKt0C+BVwLbJJvh3wL5FugoQXyYMhzQr4FGlsgD4Y8K+RbINfAkJAUTzQEviejhBKKJxoC33OdEomECBsDWV02lvok65OckAywS3U0oaW1cS2ujikYjivm4yGYvzpSr2XVQS2pKlVZfZViiXiyOq33e+FwWPX19c0C9+Lx3CxvugaLxWLN6mH1ikaj6V7bIJ+tVzDA7zB9eSSut4rqdOecat0yu1pPLqzV+GBEVVEgkFA0EVdhZbH6zPtKt05+T9dNfEtPzxmiGcFC1cXCOdPwjJqVlZX64IMP9M477+jtt99uCl999ZVCoVDOlDWTglCflStX6n//+1+z+lC3kSNHqrq6OpNkNpg46x0M4XhCTyys1YnjK3TEmJAOHR3SseNC6jqrSjNDUUXjCVXW1aj71I908BcP6YDB92vfQd112NCHdeeUDzQ3tFzxHJEQjPzLli3T0UcfrX333Ve///3vXWjfvr3+8Y9/aMmSJRsMY1BQwDBnzhyddNJJa9Tn9ttv16pVqzao+rRU2PUKBmyEOZVRHTuuQkeOCTkwAAjCUWNDemtJvSoiMY1aWaDdBt+vAwb30IGNge8HfPGAPiwcr/pYxEmQlirb2s8BQ2FhoX7729/qF7/4hX7yk5+48Ktf/UpdunTR4sWLW7sI6zR9wDBr1iztt99+a9Snc+fODvjrNMP1nNh6BQMq0tBVYR08psIxvwHh8DEhHTg6pMcX1qq0Pqo+c7/UjgO7qePgnh4w3K92A+7SM/O+VHWkLmfAAMPvsssu+ulPf6pNNtnEBYBx5ZVXbrBgQMr563P55ZfnwbAuwQsYppVHdGgKMDy2sFYl9VG9WDBMOyUBw3b979LTc4erCjDkgNcGyZAHw7rkkLZNa71KBtSkulhCt8+u1iFjQjpy7GpV6aBGydAEhgFrSoZt82BoVW4xNSkvGVq1mRsSN29SQWVUN8+u1vlTqnTGxEqdNrFSp0+sVJ/COgVMMuTB0AY90jyLPBiat8c6+QXTIwVQi/whmpDwKJVHEppSHtWXxWENKw5reHFYsyuiqo7G9BJqUgZgaMiHSTnmKeJrrTrBDKg++Nq9gXvJ1LK1UZNIz5+f5WN5WZxk15Y6yp+21cfySPY+72BAZysZkpXP8uFZrlKrq0lUnfmCBVUxzamIthiQEqvq4oo2Nlo0EdNLczMDA7PTpXUV+i64RAXly9z3HzoxR6cxZ7Bo0SJ99913jilgjLlz5zrDMZmPfW3AwCRWMBjU/Pnzm+VVWlraBDwm7srLyxUIBMR9At9ramqa4qRiNNJfvny5c5VSD0JBQYG7BzCS0Q8BA21QUVHRrIxW1uLiYkUikWRZ5cS9VgMDIEAKMKH2/KJa3TSrWl1mVOmq6alDl+lVunZmlXrNq9HI0ogqowlF4i1LhspIrcLxqKYGFqnXjM914egXdcXYV/T4d4M0003MZdYBdD6MUVVV5SaVnn76aecFOvPMM3Xaaae5cNZZZ+nmm2/WU089pb59+zpXKowGE/wQMPAuE1v9+/fXww8/rEsuuaQprz//+c/q0aOH+vXrpxUrVmjevHl68cUX9eCDDzaFBx54wJU1GUNTHmaMZ86cqTfeeENdu3bVueeeq9NPP72pLrfddpubGJw8ebIAmzedbMBgbQfgevfu3VQ+yvrQQw+5wGRdskEkJ5AgqVXBEI7LuUePGVch3KUHj245MOl29NiQAAZqU32sZTBUhGvdMo3OY/roiC96ae9B9zVOzPVSz+mfanlNMKP2hnkYvWD0ww47TLvuuquYI/jRj37U5Cbl+xZbbKGdd95ZHTp00DXXXKOvv/7ajc7ZgAHmIX5RUZFuuOEGHXjggdp+++2dP99csuS13Xbb6eCDD3aggKFh5B122EHt2rVzYaeddlKfPn0cI5OmEWkzQr///vvunT333FNbbbWVm/fwpr/llluKZ8cdd5xeeuklJ514l7QImapJvFNXV6dbbrnFuZatfNSJ8p588skaMmSIA6eVMdeurQYGbISS+riOG1/RzEtkcwktXQHPG0X1CkUaXatpbIZQuEafLhqn7Qd200FDvHMRPbT3kJ4asHyGovHkqoB1CJ1ZVlamO+64QzvuuKN+9rOf6cc//rEDAkzpBwTP8L1vs802jplxqZJGpq5VJAJqCpIGJiUty8/LrNz7+c9/7kDBZB5AZDKP+wTA+vzzzzcDA0zM5B9A3WOPPVwc3vHWwZsHz5gL2W233Vz9UQ0pX6ZgoN5IIKTU1ltv3VQXK/vee++t119/3al4xM1ValUwTA+tOYfQEgjseUfPpNtLBcO1s2+eocPgHnLzDPOGqzxcrV7TPtGOA+5RR88stYsz4G59WDRJkXg05TpXOh1dFnUExqQTYRaugMIkwWabbeaYBuY05t1rr70cM6LvZwoG4pWUlIhZ3GSSB6a12WvKkIyJjZl/+ctfNgMDaWPrXH311dp8882b6kJ80iG9VGnznAlDmJplJaSFipXKgF66dKkDDGrle++95ySptZ3lh4T45z//6ZZu0M65TK0KBgzhI8c2n102Zm/pikqFazUUiWnYshnaZuA9OnBwT8HgLMngusfA+/Tm96OEzfDQtI+1kw8MxDvkiwc1aNn0tJKBTqJDDzjgADcKG/Oholx33XXONvj22281YsQIff7557r//vu1++67a9NNN3XrkFi0BpgyAQN5MYq+9dZbDghe5jEAAhBAySgLEBm1rUwGArv6wYCqgmq0zz77OMb3vgeAATRp/+Y3v3Hl90sMwM+aKspn9kY6MCBBUH8OOeQQN3BYftSLcmOnYO94bZFcBUSrgYExoD6eUPeCah3VCAjWH2USiH+NsxkiCjOK1lXo+nGva49B3dVhCIDoqf2H9NSlo1/SlMAitzbpuTlD3Cy1Pee6z5Ce6jrlfS2pDqSUCnQMTIxqABPAMMZo6PEYthh9dDoBpmdUR8Xp1auXbr31VjfqkUYmYCDOggULdMwxxzjmsbxgHkCA/n7vvfdq6NChGjNmjD7++GMnQbBRYFSLb1cvGEh72rRpOu+88xyjWxzSBrhHHXWUHnvsMQ0fPtyF//znPzr88MOF3UDapIWKeMYZZ2jw4MFO9UonGWiziRMnCgcDZTdgAwik0kUXXaTp06e7dsl1qQAftBoYHJMlpLJwXI8sqNWl06p03pTKFsMFU6p0+3fVGhuMODA1eKXimhtaphsmva2zRj2n0755RrdNeV9ji+epNhp2S7xfLBiqY0c+oZNHPuXCGd8+q+4zPtWssiLnaUo3GsFEU6dOdfq1Fwzo2zAM7lQkh+1JID4jHaMwKol1NPdbshl4j6XdMCCjsjEszIORCQhIl3gWsGX++9//ugVz3vLxroGBUby2tlbvvvuuU2u8aTNCn3/++c5FDKAtXYBN3bAtkHQnnniiXnjhBefdIg71SWdAsywdIKA2mkTgCjDOOeccjRs3LqcNZj9PtCoYyCyWYFMOzBzWxNI6TSypa7gGwpoUjGhSWWMIhjUpUK+pgXqtqGlYuo0RDnHBAK6M1Ghe+VLNCi5SaW2ZojE2zKCeRDS/fKmmlS7Q1JL5mlqyQAVlRQq5DUCxJmZtSG3NTzqd5dWoFt7RF8bDW4O789FHH3XqEiMlujKeGmMYSzETMACoSy+9dA0GOvTQQ136gM7AZemSD4DAUMbDZSOwFwwACBftnXfe6VQhmJJAHUgbtyzM702b74ADQAACpAqgoh48IyQDA2mecMIJuuCCCxyorTzkBziPP/54B2rASVobCrU6GITvvrxSdTPmqWbcTNWMm+Gu4QVLlKiPsGjehViwQnVT5qh2wiyFFxQpXlvX8MxaklnlmlUKF09UeNUEhVeNTxMmKFwyRbHKJUpksPmHTqfjWFnKKGejtffKfWwK/PS4D9nAw2QcDGbUEhhQK1C5UL8sbRjo17/+ta699lrnZk3FPAAC9ebII49spsqZZKD8SKW//vWvTWnDpDzHZeotp5XXewUUfkoFBsqMZCNYPbhyn+XetA0Sc0Oj1gMDIwuivqRcgW59tOKU+7T8uLu0/Ng7tey4WxXs/a5ipeVKhCOKfL9MpXe/rBUndtPy4+9W8VWPqar/KMVDVRLLKuJhRUqnq2pqT5WPOFflX5+j8q/PThPOUfnIi1U5ubvCq8YqEa1N2y90OswwYcIEpyqgVthoZ51NR6N6AAqMWuYYLrzwQn366aduJtikRDo1CTAgUXjX0iUfpM8TTzzRTOXyF7glMDALzUYcpJg3bWwFbI+WwODPj9+pwGCMT5tYXtY+119/vbOpkoErWR65dK91wVAfUUnXZ1TY7jIVtrtEhdtdosJtL9biTTup+ManFF1WonhVrVae2lNFe1+5Os6Ol2v56d1UPXyiEvV1ilUtUflXJyg46AgF+rVXoN++GYT9FBh4sCrGd1Vd2YJm6kGqDkBFQM+97LLLtO2227oRGADAsAQ63BiAK6MuRin6PMsiMpEMbP30gwF35jPPPOOkBgyYjADDsGHDUkoGAwMANQalzEgd6vRDmDMVGKwd7GrgoK1QkaZMmfKD8ktW77a813pgiMcdsy/eqZMKd71chbte1hB2uVSLt7hQJTc+o8jSYtVNLtCirc5S4R5XqPC3FgfwXKTyZz9VvLJStYv6q/SzrRQYcJAC/Q9UoH+HFgJxLN6eqi36TIn4anUmVQPDzACCWWG8SGxt7NSpk2NAJteQGOjLXkBgLLJUY/To0W70bUkyoCZ17NixWRqoGyyLwLcP0ycjmBkwHHHEEWnVJFQ9LxgALEY1tkoqot4EPxBTgQGmx92KSsR3b3sgNa+66ipnhyRLM1UZcuF+64EhFlfthO9UuNV5qxm9kdkXb3meim96yoGhst8ILd7sHBXufnkDGFwcANNJgQdeVywYVPWslxXot6cC/Ts2Mrkxe0vXDir9bDvVLX7fqVoNpnjqZqfzCTAkzIMxy1ob5hhYCsE6mz/84Q/OyDYGYPTFZ4+agwrUEhgYwf0GNGkgYfAk8dzLRFYeysLaHpgQBjSGN5vBDGj8+oDWRm3AS5kx+gEU6RnxnXuAcNCgQW4+gHpb/jxPZkDjZEAdwxY56KCDmoGTsrEEA/cwbZcK3FaGXLq2HhhYqxIs1+KdzlXhbo2SwUb+rS9RoOcbipaUqaJvGjD0fE2xQFD1S0eo9PPtsgRCo2QY0F51RX1blAx0PHo1cwjGEDAFnQnDcA+jcPz48frLX/7SBAhjuu7duzuPD3ZBum2fpGeuVUBgTI06g3E+duzYZoAgPqoVUuFPf/pTk7pm7xkYzLX65ptv6ne/+12TzUP5kF7Mh8Cc1MMAAYBYtgHIATQz4pyEwSpT2iIVGLCb2PaJF4qFg7hlbXDgSr2YF3nkkUdcWrnE8OnK0npgYJStDyvY+x0VoQLtdoUK9+ysot06a/lpd6lmxGTFa+uVVjIAhmCZ6qvLVDHuJgUGdVRg4KEKDDgkszCwgyon3alY9dJGB23ypjAgMJNMJ8N433//vWNCGAZGM2bjRAhOujB1ic5npGQJA+7PlsAAwPBCoWJ43bgwEMbuH//4R+fmxOjFoGfWm+UMSIRkni4DgzE5YDr11FMdAAwwjNYwO7bQhx9+6ADHZBkz1UyMMdNOfUgf1y3SBb0fIKabdEOdBGAADRvLK7FIj7VUuGwBM2nlOrUeGKg5gAhHVf7yZ1p55gNa0amHSro+rephYxWvrFYiGlNlv5Gp1SQHhpASsagzoqtnPqrQ6KsV+razQt9ekSZ0Vmh0F1XPflqxyiIpkb4jAAOj/sUXX+yYiCULLKDDqMVbhEsTVYlZ2X/961/OpWgjIUzMyMhCNFSZdGoSz8gLu4GVpjCQpQPj2qgKU8FMFvhNPt64xuh+MFAPVDpm0y2ON21LkyvpEkjXAvfxbj333HNu8i8dGFC9ADf1wlZBulmelh7uaFytAIK65zK1LhioOYZZTb3CC5eqbvo8RVcGlMCnzf2MwRBRIlaveLhc0fICRUqnKVI6Q5HArIYQnKVIszBb0dACxcMVzjXbkq1Ah44aNcoxNcwA4zFqw2iMmnQoOj0MxugNA1mnAxw8OIykqBYtgYEmYZRkko91T7yfjMktfWNk4lAuPyj8YCBt1gJhkGP0e8vqTdP/3dJnYR2OA+pBu6QDA7aGSVUm7BhAkC7e+vCbmXWkba5PwrU+GNIMBZmBoVyR0tmqXzpM9UuGNoRlXytaPt8BpCVGT5N90yM6HY8Lhl+mzGPMhJsUdYMdaDZKprMZLFOYFuMU1aWlPGEuFtcBSsoIICx/PxhIHwZl7RTL0Rnlvcxp7/mvpIkqhQrIfEU6mwED/YorrnCGt9UHu+qbb75xBrW3PuSNxMDOYp1SLqtLuQ+GQFA1BW8pOPQolQ0/SWXDTlTZ8FMUGn2V6pb0VyLCTOfaiV+YB5H/2muvucO+WCeE0cmo5lUn6GR+cx8JAXMCBOYY6GTAgB5tK1phGgKjP0uqMVaNyBM9f8aMGW7nHAAiLhKJfCwv7sHQjNaobbhWrWyUg7JixBrzWvowJ2V5+eWXdeyxx7ry+uvjrQvuXlQ9ymhpUUbsG+pJfb31QS3CXjCi7njCGFRgfovLFcCywefss892Dgri5iLlPBiigYCqZr6g0r47N59w67+Pykd0UnjlqBY9RZk0PB2PsYx6wJJkGI9T8FiDAwOyupMrjIVaBANi4KL/G5EGO+UYkTEq2R5KQGVhYo5nfjLX5oABA9yojMeIvAgsvWAXHPssUKsmTZrkjGlv2sz4ooKQDvl7id/YEIzI2BHUBzerpc/KWRwGAIa6UH9vGnxnkGA7Kka11YflKNg8DAJ+wonAM8pl8e1KO3zyySdu4PDm409jff3eQMDwokqb5hlswu0AlfbdRbULXlciWrfW0oEOoIMY4RmxmTPAc8ToCkDYqI+nyDwoMBkM6B3leJ9RFSbBPYmblsB30iO+nyxPGJF4MD35ERileZ9nlAudm01E3rR5zoicirkoH/kCWupDmgsXLnSB7yzuw/A3aeAvH/dhcG+efMcgTlYfykl6AN/qb1d7L1VZ/Xm39e/1C4ZYTJUDvtHizc/1TbpdpsVbdlLAeZOCqpn/kQL99/JNujGh1k61819uXHvUfFRs64bM57fht8B6BYNicUWWFGvxjueuXorROANd2O5ShZ7rq3hVleqXfavSvjv4Jt06KDjwMNUV9V8natKG35X5GqxtC6xfMMQTStSFFXjsbS3Zt4uK2ndR0b5XqWifK7WqyyOqmzJXiUhY9TUhVUzuqeCQIxQcdJSCAw9XcPAhDRNqVRzznpcKa8sI+fdbeadbRg2MV6W6RhUff6mSO55T8Y1PKPjoO6qbNs8BxTF6Iq5wbYVq5r2hysn3qmLCbaopeFWxysIWJ9QyKkM+Ur4FWnvbZ8YtHI+7pRvRVUGFv18mNvqwF8Jt/LFE2NcQq1OseoViVUsznlCz1/PXfAu01ALrV01qqXT55/kWaMMWyIOhDRs7n1Vut0AeDLndP/nStWEL5MHQho2dzyq3WyAPhtzun3zp2rAF8mBow8bOZ5XbLdAmYGBNChtn2FXlXenY2k3DIjROdmMRGsSaGRaKsRssW7rpppvctsxXX30121fXiM9mIdrjb3/72xrP2uIGbcAWU5Zh52l1C2QNhvvuu8+dPEeDQnQqe25Z8JWK2CBi6+f5U4y2Ilv3z3ZOiE3qlINlxdkSB+vy7r///e9sX10jPqs6rT3WeNgGNwA0+XOCYJ5Wt0DWYGAzCg3JsmHImCTdSsQfCgZWSxrTsO4/W/KDgf24HGUCeLMlqycncK8t5cGwti2Y3fvs24CP2HuSjrIGA388QcKm7hizpsvECwa2R2ZKXjCwlj9b8oMh2/e98Q0MrMlfW2L/QCbttrb5pHr//5tkYDMU7c0glI4yBgOSgOM/rBP9V56xlh1ChWLjCPtpOWGNjTAW38Bgh+TCZOzVZX8xm2bQpyH+/II07L2jjz7a7bE1/f+VV15xG204zYFdVOQDk3nJDwbeIU3sCCMOAENdYL8Cm3L4zunbnH3qJQOD3WdPABt99t9/f6cqeuP6v6Nacfgvx71zajXHyli9vHE5sQK7in/QIZx00kluayhxYGD+zorNRl7iwALOLmKPNvsdIE7W4FBg2oa6cFoGx7oYpQIDAw6SnzpxWAGbgJ588kl7zV3ZrcZJHfQjaid/1kLfcZK3lzjRm3j0V8+ePd1uOU7LMDvps88+c5uX+A8K+o729BKDLbvp2rdv79qNtv7iiy+aorBhifT53ztOMrFDkGkLjsuBOFmd9rK2pj4ct2/PmxJr/JIxGDgdwhgCsUPF6FwyokHYBQahn1vmya4GBk6LTvac0+UwuNmCmOw5+2xp4GTPuMdBW0Z+MHCOD3HIw8iOeoT5/GlyRIuR1Z0DwCBrZJicjT6p6PHHH18jXW8+9h6Djfe+fWcPMRtlUBPtHoeNGXFkPvepB8RJgBbPe2XbJhuMoGRg4Lwkb3zvd3bbGdkAxaDhjcN3DgQwgsG5B2/449Fm/nv8p5wRG5wAiT8Ovzk6B2L/eLLndo993JxxZb+9VwbnZJQxGHiZ0ZNEGaUh/sWG3+zvNeIgKu6xDxhkzp49242KVhgDA0eueBFKA5g4o0MhTqyw9zjvhxMYIPbl3nXXXW4HlrshOalCXE6hNsoGDLxLPWA8RlJ+02lGBgY2tttJ14CKNklHnI9EWjAK3iykE3uCuUcwYmTnN9tNjbBtuMfICiEZ+M02SiNjTs5tghgZieNVCWzQMuM/GRgYZXmPE8KN+JdO7hHYeQdZftxjdPeqstxjJyBkYOAeR+mjCcA3/Cb8/e9/d2naAMU9TvWA2J7Kb5PC3DNbFS8Y5AUDZWaQ/Oijj5rSZxCC4D/LkzYyHnIPfR+re8P3INlPRDIJI5IgGJrf1lncs5EAr5MRe4qtQAYGe8ZxI1QMiWKjzbPPPuseIyHsPewOP7E9E/HPwbrWgIhTo2zAwN/cGnFmEPkiLYwMDMbcPOfPOozuueceUWcMbALHNbLd0crPwGHkN6DZymnxKAfqAMEYCgBC7EX2lou2s/eQHN7fqIyWjgGNNoL8YLBBjrT4pyAjVBVLnz6EDAz8a5GRN1/2ckNWdi9vAEbS49+JjNh6ankYo3I4AvcAjNWBPdXcQ22CvGBgIDWy8nXr1s1uNZ0+wvlN6ShjMFAwCkKBOK0BRrGRi/v8mQdkx5JwSoJRMgOafcLe49OtQbgaY6YDA4zHyOx9j+80hlE2YDAA8i5eB9LCDjIyMHCOkuXJaAR5y2nPGFW9Ypq/rjLyg4EBwt5Ldj3llFPcq0hEe46qyFmn/EZiQBx+bM+TXc1W8oMBO83iA2AvmRQz1cKYzQsG4ltf8LfBkIGBoyuNzHHg9eahYlretAN2p/1OdsUOhbxgQDoZYdPwHpqDkR1uts7AgHjiqJFkBcQAZlIKMlWHExSMkoGB/1kmLf5eCX2ZDsFo454ZbV4m80oGE9+4Sakg79LRvGsqHHlnAwZEuVE6MHiNX45QMeL8VG9gtPXW23Rd4vvBgPFo7UrdkcAE1BBO8WP0NMIIJC7SB9WL72bbeBkEN7I/HUZwyA8GDGfLH8AZeRmVckDJwMCZUfY+eUIGBqSZkYEBj6SRNw/TGjhah/TgIasD14EDB7oTQnjXW9eWwGB8tc7AQAGw3CkktgBkeia6sJFJDzwhRuji1lhUmNMe7LfXA4Tng/sGBk50sHjeilg5YAwjvATERSUwag0wILXQ+61cxoiWp/eKDmzxOPcIQnfmCBjuI0Uh72jYu3dvdy/Vh6kaANHSNgamH+weql4q8oMBKW3v4cExMsnDM/P2GBiwCU2t6dGjR9P7NqmaDgyow0bJwGCqqKl1FperzWdlAwbKSh0YyNJRxmoSiZgBZHMMpjJ4M6AzrWGTXQ39Zh+QJpXmn+8tvoGBdHGb2n2u6OLe0RmdFIPS4phXi3dbCwykbY4C8jWm8LaDfUfft7L5r5TPiJHenqMfw2CWBxLHiP9ms3hcvfUlDuqBPUe1JV2WpXDP7AE/GHjP24bYXZzfZOl47T8Dgz0z9ZHf/MuoUTowmN5P3GRgwK1u6cMbGL64brmHFxLKBgx4qiw9rvzjaTLKCgx2mK2dl8PIhv3gpxtvvLEpc4whTqozF6aBAbXBpAgFBAw0Jt+9YPCDy8Q1RrxVEG/J3Xff7X57maM1wcB5RNYe5m71twO/6Wx0fisr0tR0dC8YiItnxUS6xUdamr5u6XsZ0jxE9owr+rzfNYmebqBKBgbeg+lxwVrefPenb3njcfO6SAGQd0lOOjAw8hslAwPPcK2bM8bKg11i0iIVGExd9toMHMLGyYOWTirpmxUYEPveCvMbfTEZcYQ7kyFGqEYEP+H68noD/M/5TVq49jjEy0tIKBPL3vv2HZFqYtXuoV/ihcqWkqVFGqnu+9OnnbzGaar24D3qiYFsrkZ/WvxO977FR7VhIs/bZ/YsXbnpE+8knb3D1cBgrlykIqfutRZRdhwDXrvph+SFKko5/TzkTSsrMHhfzH///9kCBga/xNgYWiMPho2hF9uwDnkwtGFj57PK7RZgVQAzvebByu3SZle6vGTIrr3ysTfiFsiDYSPu3HzVsmuBPBiya6987I24BfJg2Ig7N1+17FogD4bs2isfeyNugf8DP35Cr39qJg0AAAAASUVORK5CYII=;" parent="1" vertex="1">
          <mxGeometry x="640" y="1161" width="195" height="69" as="geometry" />
        </mxCell>
        <mxCell id="xz6AxM3HopdPyTxjWoAX-91" value="" style="shape=image;verticalLabelPosition=bottom;labelBackgroundColor=#ffffff;verticalAlign=top;aspect=fixed;imageAspect=0;image=data:image/png,iVBORw0KGgoAAAANSUhEUgAAAC4AAABACAYAAABlR0UdAAATnElEQVRoBe2ah1NV19qH79/w3S934rUQld5OpaOiIKI0UUQUVBRFVFBQsIOxxCj2kiiKgiJYYqeI2DBoYkNAqqLmWqPG2GP6fb55lx4GuWCJ+e7Mnbl7Zs8+G87Z61m/9b6/9e699l/4D93+8h/KzX/Bm47cP//5T37//Xe1y2fZ/+ztvRUXwN9++41ffvmFn3/+mefPn3PnzrfU1dVRX1/PtWvXePr0ifqffOfXX3/9UzryXuCipIDevHmTwsJCEhIS0Dg6YmHeCYNOg6eHG44OdliYdya0f3/S166ltraWH3/8UY3G+4zCO4MLrCj87Nkzrly5Qm5uLkOGDKHt39ugc7Rl0tjhHNiRTnnJTmpO7uPcke3sy17FxNhInLT2eLo5kblxg+rs+6j/zuAy3N988w179uxh9OjRTJo0idmzUkiIHcbJwi38dLOMH2+c4fm1r/nhamnj/vzaKW6W5bFlZQoB3h4kTojn4sWLKsT+iPJvDS6xLCqXlpaycOFC5syZw+LFi1nwyRy2b1zBjaojPLt6gmeXS3hcV8Sj5nvtAR7WFHK/qoATe9NJGjuUqZOTVC7ICL5rAr81+E8//cSpU6eYNm2aAv/8889JSohjZ+YKnl07ww/fnOBRbRGPag+8dpdOPbtUzOm8dYwIDyJtwXzu3r37zjH/VuCitlw8LS2NKVOmKPjg4CC2rE3jfn0JTxuOKeiHtUU8rD/Ko7pDSt0HNYUtduJxfTENX+9h3tSx+Pl4sW/fPpXk7xIybwSXIRQXyM7OxsXFhZiYGObOnUvE4EGU7N/Mo/ojL5Uu4nZlESs+mUr0oGD2Zy7k++qCFsFvnNtH9mfzSIqNQGtnxejRMdy+fftduN88c0rml5SU4OzszMyZM8nKylLK9w3pR9GOdXxffQBR9n5VIWsXpzB70ij2ZHzKhUOblOothc7div1cKt2q9k3LZxIRFkJlRcU7hcsbFZdJJTIykhEjRpCTk6O8ety4cfj4+rFv0xK+u5DPg+pCSvM3MWVspEq+hzUHeFBd0Cq4/P/hy1z4rjKPhTPiOHLooHKYt03StwJv06YNy5cvJz4+njFjxhAbG0tYaD+O71qjwkHc4h+nvuBi6Q6lvpy/gJfjq3He9FxG6l7Ffo5sW8aBvN0qJN8b3BTbNTU1fPjhh8ybN4/o6GgFPXLkSCbHR6twMCWgCVZC43HdQR7WHab62FZuntujOiH/F8iLx3N5rNQu4nZ5PqcLNnJizxo+X7mEx48fv3W4tKq4xHbp8eMM9vfnow7tmDp1ClFRUSo5pQMLUxO5cnLbvygq4M8ajvLrrXOUHdnOoW0ruV22V4VTw4ltrFs8U/n8k4uHeVB/lG3pC9i2Zi7DhwxS5YC0+zZbi+AyO548eZKRgYHMtbLA4qMO9O8XQuSgAfQPCSIoKJB508cjIE2H3pSIt87t4eu8DIpyV5IYE0HFwUwFfq8yj3ULp3BsxwqunfqCvRs+ZW7yKLJXpNDN0Y7YkSO5dOnSWxViLYJLITRk4EDmmnfmoEGLhbU18TGR5KSnMWfyGHr26MaQQaGcK8pSQCZg0/HSl7lkpE1mXvJIUiaOpOrIZtXBJ/UHOVuQQWpCFMU5S9idMZ/CzYspK9pEvJsLoe3bERMf/2JCekMp/Aq4TL337t0jdfp0Eu1tqXF1YomVBWNGDOLAF+uIGxXJwpQJjIrsh6O9DQdzl7fo1fcv5HP1q+1UHd7E5ZPbkXNTp+6U72PrZ7NYNHMsNUc3c78qn9qjW5jt7sohox4/KyvWrFnzRtVfARfr25iTQ6STkWN6Df9wcyb5w7bs2rCYquO7mJYQQ+byVLJXzCR39SzqSra0CC6QMrWLwqpuaVIGiHWKA62ck8CsxCgaSnOpPbKZZU4GzjvpyXa0paubG+fLylQV2lq8vwJ+9coVYqOGscTGmqtuztS7Gkkx68CW1fO4XlaoJpYrJ7crNcUhvq9q3atNCstRPPt5wyF+/MdJpbxY5df715IyIYrjO1dzaOsq0g06Kpx1nHXWM97OlilJSTx48KA17hczp1ifFFHZubmMcDJS7ubMVXdnal0N7HawZeiAEG6e3c03X+1Qw/62wAq6plDlQUVxFs8vH1EF1s1zu8laOoNFM8fRULqVrMVT2eZqpNpFT6WLnkKdI8FaLcVFRa8H/+3331WtMDUxgbmdO3LLw5V6NyNVrgaq3Yx0a2fGxrQpyoe/Pb8PUV1itamqLX2W2VM6KTE+Lqo/ebkryV4+Q82wOStTkCS+eDyHj6PDyXd34oKrQbV5xkVPsnkn4kaPVuHS0qSkQkXsr/TkScb26EGJXssVNyd1AQGvcTWyw84GT7O2zBg1kPjhA1g6N5m7lQU8qW+tjC1Sk0798RxO56VTWZxFXlYa6xcmU5y7VP1tb8Z8FqfEkbMilWl+PfjS5QW0tFnmomeFtQVDQ0JouHy5xUlJgT99+pTszEwSHe2pdXOi7qXachGluquBYqOWEWZmhHi4qKrwsSplX9TeTV1DlH9y6Qg3zuVxNn89n89PYlxUKDERwQwL7c2cpFF8MiWG8GBv9mcuIHv5LJZ28+B0E/BKFwMHdA5M7elDfkGButFuHjMK/P69eyycNo0FFuZ84+5M9UtgE7gJvkSvIcmoZ9Nnn/L40tFG56g6lsO10zsbQ+dx/SEaTuwgL3MhpbtWqwTcvmYu69OmsHP9As7kraPqUBZ1x3P5eOgAthq0lDdpU0LmjLOeOS5OLFryohRoEfzWjRtMGzqUzTY2XGsFXODLnXXMM+/IjNGR3K05zNNLh5XlVZdsJXtlKlKuNp1Jz+Sls/zj8SSOCid5XBSLZsaxLm2qSvLvLhSwcdks5ndx5SujpjE0TWIJ/FxrC1Ub3bp1qzn3C1e5dPEikd28yLe347KbU4uKm1TfrbVnur8PZw5kq5AQq5MkzM9KY+vqj1UiildLyEhilhVuUFN6+sIpbFk1i+LcZdwp38+xL1bTx9uTeQ42lLsYGhPTBF7jamCltQWjBw/mckNDy+CVVVX4OGooddI1uonpAnI0ZXu1q5FdGgcCOnRg/vQ4vr1wELldE1CpTwo2L2LzilSun9mjwkjUlwlIjlJ3S1Uo59KZ2GFhdLKypY+VNTv0GiqbtCNtCniWnTXj+gZzoaKiZfCKykp6WFpy0lmvvLs5tMS8WNRyB3t6fNSJtmad8HQ1Upizgvt1R9XNg0zd357fq+qPJanxnMlPVzcZpplTRqW+ZAur5yXi5qTFwaULXYYkovP0paeFBVl2NlSIj7+MdQHfZmdDQm9/ys6ebRn8Qnk5vTq0V4qboEXlipcX2W5nQ3DHzrTXueIRFot3bCoGvzDam5kxPjaKL9bO4Ux+BodylhE/LIzuHq5YfNSeiL69SEtJ4JPJo+nr54XGvB0d2rbBrH173C1tMPQKwztmJhqvQNp17Mw6jQMyqibFs+1tGNunD2VnWgGvuHABdxs7irT2jYoL+AlnHalWlpi3bYOmqz8+sbPoFT8f3/hP8IpKpqOdjsSJkzh4sIidX+wgJiiIbEsL1ltbE/BRR9r9718Z3MeLtXMTOLhpEclDQ4iwNOeQxoFCvY5wgxseA0bTc+xsjL0H4t65M1866xvBN9vbEBcURMX58y0rXltXR193d3brHZWHn3cxsF7rQC9LK9rYOOI1JBHfuHn4jJlN16hkXMPGYOg7HENwFI7d/AkICWV+2mKifH255+nOdXcXrrm7UGzUEWdhQZSTnnhPF8Z07sgNT1ca3JxVERfroEPn0w/3gWPpET0Vu3Z/58RLP5dQ+czagjEDByLm0XxTPn7j+nUSwsNZbWXBRTcj+w0anDp3xr5Lb3rEzFR795HTcBPgkBEvoAX85a7xDcXSzQetlQ0N7s5KMRmxWjcjBTpHPrE054CjHeEdOnDaWa/EKTVoibXXovMOwdh3OMY+g4jsbNkYnpJX860tiRk1ips3bjTnfmGH9+7eZU5SEjMtzFU2HzRqcbW0xHNwPL3Gz8fYLxpjC8AmcL0oHzgEe1cvqprYqSRbntaBSS4urA4MJN7bm6wuHmx1cSLTaGSgoxGdbyjG4Cgsu/RmoY2Nqo0kxs+76Jmt1zJ7zpwWq0SluNykrvt8DaOsrDht1HLWRU+ElSWuvQaoEHENi21U1wTb/KgNjsLFpy/7dY4qT6SyPGhvywRLC6ZPmMDRo0fZvXs3H6ekMjAgmOjh4+jqHYi2V5gC76B1Y5/WUVmvjNZRg4aZPt7s2rNHVa7NJVfgcgMhD31iu3Zlt70dUisssbfFoDXSfdR0ug2f/FrFpRP6vsPx7D2QZHtH5cuLHexI9A0gfMwk+g+KoK6+Xt3HnjtfzuDxUxi/dju9Y5LQ+g1E1zucQCsHNc2LHYra622tiA4KoqqqqsUbCgUut2yycjA5NpbpHc2Unx4yanE3N8cjfBw+kvUh0f+iujSqDxrW+HejfwRuRk88O5nTp3cwY5ZuYFJ2PgPGJpO+bj3Xr9/g5OmzjEhZROySDLwHjULXZ7DKpTkOGiWYqC11yjTzToweMUI9U2y1rDU9Q8nIzCTczo4ig9QORsZ27oRrYCS+4+aqOH8lPCSue4biNiBW5YL6X/AwdL3CcOs9gGEpi5i0OY/k3CISM3bhFxDE0WPH2LEvn5Fp6QyctgCNTwiGwCE4a53J0WvV5COKF+odCdA4snf37lYfPyvFTfFTW1PD8NBQPrWyUPXDJp0jfzN40us14F2GJdF1SGKj2+j8I3Dw8MG7bzhjlmWSlF3AxE37iUhMZX1GBvuKihk8dT49B8Wo0dL17M9AKweOGnUqMctdjcxydGBcbCx3vv3WhPYvx1fAf/7pJ9JWrSLEyoYDWg3HnHR0MDPDL24unoPHN4bEC3VfKC6+3hRc/ifDb2lwx8HSmoCwKGKXbmBC+jYC+vdn9ief0mdYHFq/MAXe1sOXJFs7dmodmGNrQ/TfzbDq1IlZqaktuompB6+AS6zfun2bxLg4Emyt1c3D4I864h09lS6RCa+A6wIisO8ehGdkwotQCRqKQfbASPT+g9H3HoimRxAWDkY6/PUD3D08cDIaMGvfFhuX7mi8+2Ln6YvWToO/jS3OdnaMHDWK7bm5fFlynIQJE1i7du3rb91MvZBYl/30qVMM8PNjgUwAHczoEj6ObtFTG8H1QUOxcfOmo40GrZc/xl798PQPxTc0Er9+gwjoH05A31CCQgYQ1G8A3j490ep02Fh04iMLa6wcdDhotHTr1g2NRkNiQgLHS0qounCBhw8fqiWbvXv3MnHixFZXK15R3NQBsceCvDwGeXjg26YtxsBIvEbOaASXmU7XMwQ7Jw98vHuQmjKTjA0byMsv4FhJCWfOnKWyspKq6mrkoen58+cpLi5mbFw8Gu9gDP4RBPYLY+fOnaSkpHDkyBG1FpSXl6cWtGStSdZIFy1apGxa7ombby2Cy5cEfseOHTg5u+DQLQDv2FmN4C5hsbhHTMBjUBxJ01OUSm96WCnroRmZWbiGROEeNoaQwVGcOHGCrVu3cuzYMb777jsF29DQwKNHj5TSq1atYsOGDfzwww/NuVtfkZB1H5lR16xdi52HL96jUxvBVXKGjMCpXzQDIoby/ffftzhJNG3tyZMn5GzdjrZHkMqBnkGh5Ofnq5GQ0bh//77qyJdffqnWQAU+PT1dqS6fm2+tKi5flGQ9dfoM1np3eoxOeRW873CcQkbg0zuQO3fuvBX4rj17cejSS7lOF79gNm3apOBFdVk7lWV0eeAqn2UX8I0bN76b4gIuqldWXsDCwYD4tZSxSu2XVaEqvLz6UFNbpx5SNlel6bkoXlB4AMcufujFkZw9mRA3luXLlhEXF8eCBQtYtmyZCp2vvvqKgoICZs+ezblz51q89msVF4e5dv06//PXDzB3dELrG6rg9cHD1FGS1LFrb4oOFvPLGx7IC/jx0hNouvphCIjAxtGJLgaD8utt27axZMkSAgIC1HKkLNdERESohTJJTOFovr0WXL4sSSdLhT28utCmXXssta7YdQ9G6x+BQeqUXqFsyNzEL7+8fiVBwCUZdTo9H3zwN2xsbdW6kjzYlDYEUN4NOH36NF9//fUb1/rfCC7hIg4jybNr1y4iIiOxsrbB0l6HjWt37D16kjLr4xafNjVVSZ6Wycr05MmTWbduHdOnT1fWZ3Ij0xwieSVtms6bXqPp5zeCy5flInKxX3/7TdlWXn4+EyfEE+jfBy8vL7y9vRFFWxpSU2NiaRKvsnonJbTEc3V19RuT2vT75se3Am/6I9WBX39VS3v37t1Vqjk5OXG5lYeTpt9KKMiktHTpUsrKypB3AQ4fPvz///aECaDpURSW5fIZM2aoyaq1RJLfSAhUVFSoFxjOnj2rlJeklN//ke2dFW/aiIBLjMoEkpycjMRxa+Ei4OLREuPiGhLjYnvS2T+yvRe4NCigUhgFBgZy9epV1REJp+a7yTWkNpE3MCTepSZpraNv6sx7g0sDAiVAAi+zoKyRyr2i2JvUHuXl5aqQysjIUK9ByYsMsnTzR6GlzT8FXMJAQOVVJylTLSws8PDwoE+fPvj5+dG1a1f0ej1WVlbqJYY/8mJN8xH4U8BFOYEX5SXZxPNNtYe8d3X9+nVV7UmFKDkhYfQ+av9pijdXQ6Caxricvy9o8zb+FMWbX/Tfcf5f8H+Hyk3b+D8V5gV7olaQmQAAAABJRU5ErkJggg==;" parent="1" vertex="1">
          <mxGeometry x="60" y="748" width="46" height="64" as="geometry" />
        </mxCell>
        <mxCell id="xz6AxM3HopdPyTxjWoAX-92" value="" style="shape=image;verticalLabelPosition=bottom;labelBackgroundColor=#ffffff;verticalAlign=top;aspect=fixed;imageAspect=0;image=data:image/png,iVBORw0KGgoAAAANSUhEUgAAAC4AAABACAYAAABlR0UdAAATnElEQVRoBe2ah1NV19qH79/w3S934rUQld5OpaOiIKI0UUQUVBRFVFBQsIOxxCj2kiiKgiJYYqeI2DBoYkNAqqLmWqPG2GP6fb55lx4GuWCJ+e7Mnbl7Zs8+G87Z61m/9b6/9e699l/4D93+8h/KzX/Bm47cP//5T37//Xe1y2fZ/+ztvRUXwN9++41ffvmFn3/+mefPn3PnzrfU1dVRX1/PtWvXePr0ifqffOfXX3/9UzryXuCipIDevHmTwsJCEhIS0Dg6YmHeCYNOg6eHG44OdliYdya0f3/S166ltraWH3/8UY3G+4zCO4MLrCj87Nkzrly5Qm5uLkOGDKHt39ugc7Rl0tjhHNiRTnnJTmpO7uPcke3sy17FxNhInLT2eLo5kblxg+rs+6j/zuAy3N988w179uxh9OjRTJo0idmzUkiIHcbJwi38dLOMH2+c4fm1r/nhamnj/vzaKW6W5bFlZQoB3h4kTojn4sWLKsT+iPJvDS6xLCqXlpaycOFC5syZw+LFi1nwyRy2b1zBjaojPLt6gmeXS3hcV8Sj5nvtAR7WFHK/qoATe9NJGjuUqZOTVC7ICL5rAr81+E8//cSpU6eYNm2aAv/8889JSohjZ+YKnl07ww/fnOBRbRGPag+8dpdOPbtUzOm8dYwIDyJtwXzu3r37zjH/VuCitlw8LS2NKVOmKPjg4CC2rE3jfn0JTxuOKeiHtUU8rD/Ko7pDSt0HNYUtduJxfTENX+9h3tSx+Pl4sW/fPpXk7xIybwSXIRQXyM7OxsXFhZiYGObOnUvE4EGU7N/Mo/ojL5Uu4nZlESs+mUr0oGD2Zy7k++qCFsFvnNtH9mfzSIqNQGtnxejRMdy+fftduN88c0rml5SU4OzszMyZM8nKylLK9w3pR9GOdXxffQBR9n5VIWsXpzB70ij2ZHzKhUOblOothc7div1cKt2q9k3LZxIRFkJlRcU7hcsbFZdJJTIykhEjRpCTk6O8ety4cfj4+rFv0xK+u5DPg+pCSvM3MWVspEq+hzUHeFBd0Cq4/P/hy1z4rjKPhTPiOHLooHKYt03StwJv06YNy5cvJz4+njFjxhAbG0tYaD+O71qjwkHc4h+nvuBi6Q6lvpy/gJfjq3He9FxG6l7Ffo5sW8aBvN0qJN8b3BTbNTU1fPjhh8ybN4/o6GgFPXLkSCbHR6twMCWgCVZC43HdQR7WHab62FZuntujOiH/F8iLx3N5rNQu4nZ5PqcLNnJizxo+X7mEx48fv3W4tKq4xHbp8eMM9vfnow7tmDp1ClFRUSo5pQMLUxO5cnLbvygq4M8ajvLrrXOUHdnOoW0ruV22V4VTw4ltrFs8U/n8k4uHeVB/lG3pC9i2Zi7DhwxS5YC0+zZbi+AyO548eZKRgYHMtbLA4qMO9O8XQuSgAfQPCSIoKJB508cjIE2H3pSIt87t4eu8DIpyV5IYE0HFwUwFfq8yj3ULp3BsxwqunfqCvRs+ZW7yKLJXpNDN0Y7YkSO5dOnSWxViLYJLITRk4EDmmnfmoEGLhbU18TGR5KSnMWfyGHr26MaQQaGcK8pSQCZg0/HSl7lkpE1mXvJIUiaOpOrIZtXBJ/UHOVuQQWpCFMU5S9idMZ/CzYspK9pEvJsLoe3bERMf/2JCekMp/Aq4TL337t0jdfp0Eu1tqXF1YomVBWNGDOLAF+uIGxXJwpQJjIrsh6O9DQdzl7fo1fcv5HP1q+1UHd7E5ZPbkXNTp+6U72PrZ7NYNHMsNUc3c78qn9qjW5jt7sohox4/KyvWrFnzRtVfARfr25iTQ6STkWN6Df9wcyb5w7bs2rCYquO7mJYQQ+byVLJXzCR39SzqSra0CC6QMrWLwqpuaVIGiHWKA62ck8CsxCgaSnOpPbKZZU4GzjvpyXa0paubG+fLylQV2lq8vwJ+9coVYqOGscTGmqtuztS7Gkkx68CW1fO4XlaoJpYrJ7crNcUhvq9q3atNCstRPPt5wyF+/MdJpbxY5df715IyIYrjO1dzaOsq0g06Kpx1nHXWM97OlilJSTx48KA17hczp1ifFFHZubmMcDJS7ubMVXdnal0N7HawZeiAEG6e3c03X+1Qw/62wAq6plDlQUVxFs8vH1EF1s1zu8laOoNFM8fRULqVrMVT2eZqpNpFT6WLnkKdI8FaLcVFRa8H/+3331WtMDUxgbmdO3LLw5V6NyNVrgaq3Yx0a2fGxrQpyoe/Pb8PUV1itamqLX2W2VM6KTE+Lqo/ebkryV4+Q82wOStTkCS+eDyHj6PDyXd34oKrQbV5xkVPsnkn4kaPVuHS0qSkQkXsr/TkScb26EGJXssVNyd1AQGvcTWyw84GT7O2zBg1kPjhA1g6N5m7lQU8qW+tjC1Sk0798RxO56VTWZxFXlYa6xcmU5y7VP1tb8Z8FqfEkbMilWl+PfjS5QW0tFnmomeFtQVDQ0JouHy5xUlJgT99+pTszEwSHe2pdXOi7qXachGluquBYqOWEWZmhHi4qKrwsSplX9TeTV1DlH9y6Qg3zuVxNn89n89PYlxUKDERwQwL7c2cpFF8MiWG8GBv9mcuIHv5LJZ28+B0E/BKFwMHdA5M7elDfkGButFuHjMK/P69eyycNo0FFuZ84+5M9UtgE7gJvkSvIcmoZ9Nnn/L40tFG56g6lsO10zsbQ+dx/SEaTuwgL3MhpbtWqwTcvmYu69OmsHP9As7kraPqUBZ1x3P5eOgAthq0lDdpU0LmjLOeOS5OLFryohRoEfzWjRtMGzqUzTY2XGsFXODLnXXMM+/IjNGR3K05zNNLh5XlVZdsJXtlKlKuNp1Jz+Sls/zj8SSOCid5XBSLZsaxLm2qSvLvLhSwcdks5ndx5SujpjE0TWIJ/FxrC1Ub3bp1qzn3C1e5dPEikd28yLe347KbU4uKm1TfrbVnur8PZw5kq5AQq5MkzM9KY+vqj1UiildLyEhilhVuUFN6+sIpbFk1i+LcZdwp38+xL1bTx9uTeQ42lLsYGhPTBF7jamCltQWjBw/mckNDy+CVVVX4OGooddI1uonpAnI0ZXu1q5FdGgcCOnRg/vQ4vr1wELldE1CpTwo2L2LzilSun9mjwkjUlwlIjlJ3S1Uo59KZ2GFhdLKypY+VNTv0GiqbtCNtCniWnTXj+gZzoaKiZfCKykp6WFpy0lmvvLs5tMS8WNRyB3t6fNSJtmad8HQ1Upizgvt1R9XNg0zd357fq+qPJanxnMlPVzcZpplTRqW+ZAur5yXi5qTFwaULXYYkovP0paeFBVl2NlSIj7+MdQHfZmdDQm9/ys6ebRn8Qnk5vTq0V4qboEXlipcX2W5nQ3DHzrTXueIRFot3bCoGvzDam5kxPjaKL9bO4Ux+BodylhE/LIzuHq5YfNSeiL69SEtJ4JPJo+nr54XGvB0d2rbBrH173C1tMPQKwztmJhqvQNp17Mw6jQMyqibFs+1tGNunD2VnWgGvuHABdxs7irT2jYoL+AlnHalWlpi3bYOmqz8+sbPoFT8f3/hP8IpKpqOdjsSJkzh4sIidX+wgJiiIbEsL1ltbE/BRR9r9718Z3MeLtXMTOLhpEclDQ4iwNOeQxoFCvY5wgxseA0bTc+xsjL0H4t65M1866xvBN9vbEBcURMX58y0rXltXR193d3brHZWHn3cxsF7rQC9LK9rYOOI1JBHfuHn4jJlN16hkXMPGYOg7HENwFI7d/AkICWV+2mKifH255+nOdXcXrrm7UGzUEWdhQZSTnnhPF8Z07sgNT1ca3JxVERfroEPn0w/3gWPpET0Vu3Z/58RLP5dQ+czagjEDByLm0XxTPn7j+nUSwsNZbWXBRTcj+w0anDp3xr5Lb3rEzFR795HTcBPgkBEvoAX85a7xDcXSzQetlQ0N7s5KMRmxWjcjBTpHPrE054CjHeEdOnDaWa/EKTVoibXXovMOwdh3OMY+g4jsbNkYnpJX860tiRk1ips3bjTnfmGH9+7eZU5SEjMtzFU2HzRqcbW0xHNwPL3Gz8fYLxpjC8AmcL0oHzgEe1cvqprYqSRbntaBSS4urA4MJN7bm6wuHmx1cSLTaGSgoxGdbyjG4Cgsu/RmoY2Nqo0kxs+76Jmt1zJ7zpwWq0SluNykrvt8DaOsrDht1HLWRU+ElSWuvQaoEHENi21U1wTb/KgNjsLFpy/7dY4qT6SyPGhvywRLC6ZPmMDRo0fZvXs3H6ekMjAgmOjh4+jqHYi2V5gC76B1Y5/WUVmvjNZRg4aZPt7s2rNHVa7NJVfgcgMhD31iu3Zlt70dUisssbfFoDXSfdR0ug2f/FrFpRP6vsPx7D2QZHtH5cuLHexI9A0gfMwk+g+KoK6+Xt3HnjtfzuDxUxi/dju9Y5LQ+g1E1zucQCsHNc2LHYra622tiA4KoqqqqsUbCgUut2yycjA5NpbpHc2Unx4yanE3N8cjfBw+kvUh0f+iujSqDxrW+HejfwRuRk88O5nTp3cwY5ZuYFJ2PgPGJpO+bj3Xr9/g5OmzjEhZROySDLwHjULXZ7DKpTkOGiWYqC11yjTzToweMUI9U2y1rDU9Q8nIzCTczo4ig9QORsZ27oRrYCS+4+aqOH8lPCSue4biNiBW5YL6X/AwdL3CcOs9gGEpi5i0OY/k3CISM3bhFxDE0WPH2LEvn5Fp6QyctgCNTwiGwCE4a53J0WvV5COKF+odCdA4snf37lYfPyvFTfFTW1PD8NBQPrWyUPXDJp0jfzN40us14F2GJdF1SGKj2+j8I3Dw8MG7bzhjlmWSlF3AxE37iUhMZX1GBvuKihk8dT49B8Wo0dL17M9AKweOGnUqMctdjcxydGBcbCx3vv3WhPYvx1fAf/7pJ9JWrSLEyoYDWg3HnHR0MDPDL24unoPHN4bEC3VfKC6+3hRc/ifDb2lwx8HSmoCwKGKXbmBC+jYC+vdn9ief0mdYHFq/MAXe1sOXJFs7dmodmGNrQ/TfzbDq1IlZqaktuompB6+AS6zfun2bxLg4Emyt1c3D4I864h09lS6RCa+A6wIisO8ehGdkwotQCRqKQfbASPT+g9H3HoimRxAWDkY6/PUD3D08cDIaMGvfFhuX7mi8+2Ln6YvWToO/jS3OdnaMHDWK7bm5fFlynIQJE1i7du3rb91MvZBYl/30qVMM8PNjgUwAHczoEj6ObtFTG8H1QUOxcfOmo40GrZc/xl798PQPxTc0Er9+gwjoH05A31CCQgYQ1G8A3j490ep02Fh04iMLa6wcdDhotHTr1g2NRkNiQgLHS0qounCBhw8fqiWbvXv3MnHixFZXK15R3NQBsceCvDwGeXjg26YtxsBIvEbOaASXmU7XMwQ7Jw98vHuQmjKTjA0byMsv4FhJCWfOnKWyspKq6mrkoen58+cpLi5mbFw8Gu9gDP4RBPYLY+fOnaSkpHDkyBG1FpSXl6cWtGStSdZIFy1apGxa7ombby2Cy5cEfseOHTg5u+DQLQDv2FmN4C5hsbhHTMBjUBxJ01OUSm96WCnroRmZWbiGROEeNoaQwVGcOHGCrVu3cuzYMb777jsF29DQwKNHj5TSq1atYsOGDfzwww/NuVtfkZB1H5lR16xdi52HL96jUxvBVXKGjMCpXzQDIoby/ffftzhJNG3tyZMn5GzdjrZHkMqBnkGh5Ofnq5GQ0bh//77qyJdffqnWQAU+PT1dqS6fm2+tKi5flGQ9dfoM1np3eoxOeRW873CcQkbg0zuQO3fuvBX4rj17cejSS7lOF79gNm3apOBFdVk7lWV0eeAqn2UX8I0bN76b4gIuqldWXsDCwYD4tZSxSu2XVaEqvLz6UFNbpx5SNlel6bkoXlB4AMcufujFkZw9mRA3luXLlhEXF8eCBQtYtmyZCp2vvvqKgoICZs+ezblz51q89msVF4e5dv06//PXDzB3dELrG6rg9cHD1FGS1LFrb4oOFvPLGx7IC/jx0hNouvphCIjAxtGJLgaD8utt27axZMkSAgIC1HKkLNdERESohTJJTOFovr0WXL4sSSdLhT28utCmXXssta7YdQ9G6x+BQeqUXqFsyNzEL7+8fiVBwCUZdTo9H3zwN2xsbdW6kjzYlDYEUN4NOH36NF9//fUb1/rfCC7hIg4jybNr1y4iIiOxsrbB0l6HjWt37D16kjLr4xafNjVVSZ6Wycr05MmTWbduHdOnT1fWZ3Ij0xwieSVtms6bXqPp5zeCy5flInKxX3/7TdlWXn4+EyfEE+jfBy8vL7y9vRFFWxpSU2NiaRKvsnonJbTEc3V19RuT2vT75se3Am/6I9WBX39VS3v37t1Vqjk5OXG5lYeTpt9KKMiktHTpUsrKypB3AQ4fPvz///aECaDpURSW5fIZM2aoyaq1RJLfSAhUVFSoFxjOnj2rlJeklN//ke2dFW/aiIBLjMoEkpycjMRxa+Ei4OLREuPiGhLjYnvS2T+yvRe4NCigUhgFBgZy9epV1REJp+a7yTWkNpE3MCTepSZpraNv6sx7g0sDAiVAAi+zoKyRyr2i2JvUHuXl5aqQysjIUK9ByYsMsnTzR6GlzT8FXMJAQOVVJylTLSws8PDwoE+fPvj5+dG1a1f0ej1WVlbqJYY/8mJN8xH4U8BFOYEX5SXZxPNNtYe8d3X9+nVV7UmFKDkhYfQ+av9pijdXQ6Caxricvy9o8zb+FMWbX/Tfcf5f8H+Hyk3b+D8V5gV7olaQmQAAAABJRU5ErkJggg==;" parent="1" vertex="1">
          <mxGeometry x="67" y="928" width="46" height="64" as="geometry" />
        </mxCell>
        <mxCell id="xz6AxM3HopdPyTxjWoAX-93" value="1.0.0" style="text;html=1;strokeColor=#b85450;fillColor=#f8cecc;align=center;verticalAlign=middle;whiteSpace=wrap;rounded=0;" parent="1" vertex="1">
          <mxGeometry x="330" y="966" width="60" height="20" as="geometry" />
        </mxCell>
        <mxCell id="uknvqtSnCwPRW_PHpSGz-1" value="#datalink-development channel" style="swimlane;fontSize=11;startSize=23;" vertex="1" collapsed="1" parent="1">
          <mxGeometry x="660" y="1240" width="290" height="23" as="geometry">
            <mxRectangle x="650" y="1470" width="480" height="270" as="alternateBounds" />
          </mxGeometry>
        </mxCell>
        <mxCell id="uknvqtSnCwPRW_PHpSGz-2" value="" style="shape=image;verticalLabelPosition=bottom;labelBackgroundColor=#ffffff;verticalAlign=top;aspect=fixed;imageAspect=0;image=data:image/png,iVBORw0KGgoAAAANSUhEUgAAAnIAAAFKCAYAAACZ77LIAAAgAElEQVR4Aey9719U17n3f/8bXwxNSIISJTGQH6gBooyoE1M5tsFTta3iadAkzqmQc0vpUewRLJRWwqncnCocqdxyy5FCodKpFGqBUMAMEzLM/Xrd50ke9EGf9EEe5B/4fF/X+rH32nv2/AAHZOB6wGuGPXuvvdZ1vdfan3WtH/t/vFH0FviPbcAMMAPMADPADDADzEDmMfA/srJzwH9sA2aAGWAGmAFmgBlgBjKPARZyLGRZyDMDzAAzwAwwA8xAhjLAQi5DHce9pszrNbHP2GfMADPADDAD6WaAhRwLOe6FMQObnoEXt+1A4Ru7V2W+MKVL6ae78eb0WBAwA8wAMcBCblM9xPNRdKgC/iMV8O3OT/nBkrvbL67xHypFrqe9ClFyRKZbUrC8irWjTF7nLytMOT/Lbbxi7pFXCt8RP4ryUsyrOJ/yuYxr3HYq8CG+/VLMhzvNTPl/pfYjmwmufNixymVdLRGnJ45T+svlls/f4PVilZlmfjYPP2su5J7JycVbhXvwD8UHxF/57n149sVt3MitSaU+je6ZKCJLUcx2nU7Z5ie75sU1kZkenPTMZyOGlmS6Q1eXV3kahuV1keHGlPOz3AbKeY8KtI+re453wO9ZHlcZTvVgVpRvHt2nXL8luz6vGu1BZb+lKJZrn+WU9YWt27H95Vexs/ANvPbGbrxetGd9/F24h3lhv89w98Iy8tQWlNwtBdG6ymV595tHsdp/T9MfxANxQXwQJ8vhis9dZp1P1ibw78xfmhlYMyH3TM6LOL3bj3vlP8DMoQDCB3+IhYM/xGf+H+K/DryPD0u+idytL20KBzcMkpBYgSiI5/zjtzBJD8qkYmgDCLmUy2o3vk4hdwKdU0rITd1CZTybmsefQMidvaNE3OI8Rgf70HDUzlc6HpDPPPsCtm1/RQi3l199HVvzXsZzL2wFHU9H+pxGev31tOxJPBAXxAdxQsKOuGFONoZ/nxZXfN/1wc+aCLmX817Br3zfxxe+AD4v/QDhknNYLPkAn5ecE9/pc6ksgP8qfx97Xn5zgz+AatD7OL1Crqh1QkYuNoGQS72sdgVzCrkc5B4+j4ZrjTh7OMXh5RULOVs0zt6uTjvXNO+KHsgvvfwqvpGTm/b0uZG2GdpotiBeiBvih+fvbVw/bzRuuTzerK66kNu+LR/3fGcQffsjfFZcjcjejzDt+xAj+6vxh/KzmC77AF/s/Qih4rOIlH6I35efQ+FLr6b5oZQP/8c9GJ0JI/Q4jNDMBPqbT6t5N4U42dyH0akwQotRRBbmMdpVA5+OyBScRtOdICYfh4VYCs0E0X3Bb+Uv93AduoPzMt3H8xi714KT8eaJnevA6Lg9zBahvDweQL24Vz4qL/XIfOg8XjthzUnzvk8FGm4HMUn5pojcoizf2I0TVv6c4BsRubtt6HwwLfM9NYKmY4aoKa+RZaJ054IYeijLbg+t5qPy2ggmSZAuhjE5OCIjgikMHeYea8HQlLLl1AiGHqm8axEa196JyprYh24hV39PcXDvsrCT/H8CnRdqbJvMBNF5Ts3b8xByJ9uDmCU/zQXR+p5X5TqBdm03wzf9l+Tx0OMgWs9cRj9FBxeJAWL0FobG5yWHwq4tqNTz+C4NCF+N3axD/a/HMfdZGP29HXhtxytxfO2VJz7mrA9sj60vbMXOwjexPT/dbS7bllljBtaKgdUVcs8+j5/u/Q6iQqhVY2HfR2gsPYY3dhTiuee34sUX8lCQtxN1JUfxeP9HWCg5i6W3P8Ivy76LLc+lcWjo4wGExBydqBQuQrCNoKE8B77rKpq1JH8TgmgpismbNIfMj9aHhkhaUN+XptEp5krVoV8fWyBxQL+HMXTVFnoOR37ch1lxjkrHEnL5qOqaVvOBjDwuRTF2oxJZ2fHuE0DrAyVADbGQipAT5VxQAo2uXRhBQ3EOsvKq0a2HHpUw1DbRQs53dcSypxCjWkgmE3LljRjS9hJpa3vqYeFE9q6IW9bEPsyBW8jF/V/b0CpPEE1kE7eQO6WGsi3/eDVYFWi4b/tUi+z+S7aYjlj3GUFDoM9hU23z0GAjikjoXx0RfHwRWULki8/RfqOTh8V0Z4s/n1jM579SCPpztFdsV7YHM5ARDKyqkCt+pQhzPinQwvs+wvniI8j6Rg7yXn4Ve4rfFn8vF74hjp3afQgh33kh5j4r+wj7X92TNgNak/XHO1BBEY68UpToVZt5FTh7xR5mq+hUD181sV8Mw105D7+IjFSiU0WQxGIB6wE/gfajFNHKR1GZWtl5pBHdgyMY0n+3G+XEeusaY45ccQtGhdAMo79eRcbO9ckJ9o/7ELCu8bhPdqxQEY3xuQ773pSH9vPIyrZFROhenYxIvmeIktZS5CrBECGxqiJNVbfNxQ5GGvcvy4hhns6/nsxP0TOj7IM9aDiSA8sPCwOoF/bMR9MDJeZURC6hveOVNYkP4wo3dU/r94cd0s/lbRgT/ohi6IpbyJ225tiFHrSoyK13eU1724tLbPtFFoJofb8CVWco8lqIkxdbUPtd+TDNrdedjxE0UGN6dQRCxC09xNnd/MBlweHVeXiyYyTkODL3ZDZkLtl+T4OBVRVy/7KnAkt7z2Px7Q/Qvf80tjz7AgpfL8Lhw+/iwIGDKC8/IL7vKS4Voq3N9z188faHIir3k+JvpU3I2Q9FGsai4c825/yovFJUBhrRdK0DvXro01ihmbv7BAJXWtB0ow9jc1J4iAdz3mU7IkcrQccH0PphhRQ3lvhSQkWnZx03hNxF/dBW0TgRqdPRshE0JLpPPHFjCTJTKNkiwhYW1Y6VrE7RJiulJcCoDDGijc5xr1q17yMjS1TWWNFGwFsiSg+tZucgrr3jnC8qTgIfuu+R7P+Y8lg+U7Ykkfd4ALXWELpXecku9nHb3l7HdONXiJL369B0rQ3dw9MqQqeE3L8NCyH3m8FfYQv3ktPWNjyNRnc935OGWXnOnK6P/LmeWeW82XyuqpC7VXwCERJmvn/G6T2HkP1CLg4cPASfbz98Pp/1d+jQIeTmv4xvvbEPi76AuKav9Ht4Jiddw6uFOHvdmEsmhtDksFnumVv2HDMaXtVDf0J45aPqpmt4TA2H6QfzjnNtGNVDkSqKM3qtFFnF1ai/1oIm/XepWg6RWaLAS8iFMTlsRrJGMERz7rJzEPc+8cTN0Rr73pSHAA3ReokIp5Crve+eD2dE0sgmRzrsaJW11YhbyJWi6pJR9muXUVVsbPthiDanqEpub+f5EuTEPowVi+403P/HF3JhTD6YUFuRRDHWqofQvcpLefOyt9exHGTRsLPqJJD4lcP0JBylkHvm6rAYWvWVl7GIYSG7agzQylZaAPHMs8+v2j34AWw/gNkWbIt0MLB6Qu7Z5/Hr3VLILfjOo/zV3XhpZwFItJWV2SKOBN3BgwdR9FYxil95E4/3B7BYeg7D+3+AnBfz0tyY5KPoTAfGlFgbumo/VGkumth0VEeySLRYoouGNOVwln7oayGnnZC7u9qe3G4IFf279WmlaQi5Yj2UR/PrZHSSzqeNbN0b7HrdR+dpRduPmMOIV/Phv6HnDFIkkCpZPgJ3TXFnz9ezbOBII37FjBWJxpw4spllm/j2ji1rEh96CF13Gu7/4ws56TNrSxE9rzCusLDzZtnKU9zlW5FJGvIWGxVbtpBCblvz79DU3JLm+hDfVxavccvG125UG72UvxPbtr/MrDH7zECGMLB6Qi47B90lUsh9sf+f8d6bPuTueEUIOTMap4VcYdEuHHitBEuHavD/9gZwr/RU2iJycnJ+GJP3OtDaFVQRlQm0HzEetMMdaLoxIFdiUmTNIeTmMXSjBe339HCX2lBXTd4PPRpA+/UejKqIylh7RfwKYES0QlPTmLxPk9nzYYkcWmgRHLFXtz66hcok97GuXZzH5NSEWojh9aC1y0tDzKODtBpXDRcuDKCWhNt7dsQtMjeBMbXCVAyRqiildT/K6/gEZq1J+3qOnNe9c5BrDCFHpiasYWqRtkPIxbF3do5tJ6usdplmvXy4CkIuq9hetDF7t8ZaWRz7YDfyZm3A7HXMjhqGxvvQSiypjZu/iAzjcnYOCn/xe7y5qzg+VxnS4MTayJsVPu/p2YW2Jil8YxezxnWKGcgQBlZVyF1566jYdoS2HGne9x1kPfc8fPvLUV5ejrKyMmto9eChQ3hh23bQViU/KD6Mjv3fx4/f/naaIKKtMgacomFxGv31cljMsQJzcR5D19vkvDchWvxoGNRz1WgrjhG0Xpfz2SjCQltp9Os5dWpYdfLeZXvrEk8ISlF719iChLavOEYLMCpQf88YxqX05uRWJ0nvc6oDY1qQkbi6U4NCz3trETGPoXtBe5XkXBDtZ/T2I/mobDV+ezyB9la18ELYhIYBa9Crtw2huYH3WtAelIIw8ZsL/AjcMco4M4CmG2r3fhHFTGxv8XD3KOsxcxVtjA9tkaQjlu4InPv/ZBE5ykeFFbmcR7dlO/fDV9vbfJOG17EcuIeHJ++0oHs8ChJyV7e+hJd/eP2J6kPFtyrReK3F8+8nV5tQVn7oidJPJLzeLitH7//uw6WGf1uVe+w/4Me/Nf4UP2v9BarPfYTs51607kPlovKZZT995n3rd3e+9fn/crEeeds379YuL7/6Gl7YJBu0uxng/93tGP+/3plYVSFX8drb+HzfeYRLzuIvvo9woKAYOdu2o/zAQRw65BdDqiToDh48JBZBmMbaYjTG5vEn+U7vDPV+x2ghSuK+RzQHWQW+ONcpwOldkomu9xJVcdOk96HGeadnwvvQdct8JyWlF+8dp4l+U+XZURYnn17lNY/FLbuyZ7LfaXVwTFmT+NC8/7r97lWuHLGScGueFtora1QbftJobW8jF6DYCzcWwp/jw/P/HFfcPEmdo2vfrfgWZuce42bXf6b9Hj++dAWU//DnXyC0EBYLQn51q9sScyQe5WpfWV763vbJv8fNx09bWsX5lNaZ98/GPe9JbZLsehKnI78bxT+9f+6p5IF44xWsK6tryXzLv7Nd083Aqgq5Z5/fijtlVYiotzlMlH+A9wr34bkXtmHHKwXwldPK1XIRmSNhl/45cQxMuoHh9NaeKXpHJk1CT5ftSVCRmCNxl640E6WzWkJud/HbGJ/4E8b/9Aile/eL94iOPBjF7Nw8KAJJeer81S08mpzCPt/BpGUtfH0X/vDwj0J0kji80dGZ9JpE5X6S3z4KXMDc/ONVFdiJ8ke8EXeJzuHf1r4tYJuzzb0YWFUhRzcs3bkLf97/EULqdVy0n1z7/u+JHvNzL24TkTk9T273WyXccKzbaBFXIK8KtBbHaL5SOt+J6RZyZz84j4HfDIE+qTzuoVB60Xrzz36OR3+eFH+N15qtYbfvnTojIkef/mUWv+69iwOH3hVpHPvOSYwG/wA6TsOq849DVkSOzqFz6TcSYTUf/08cfOeb4ryOzl9ZQ5oUleq9+3/Q9FPvRR409EeRxMp/tN9k0vWfPfgstAA9fPqbwd/iwWjQEnqJ/PXDmo8R/nwR/+s/bmJ45IEoKwlEuiaZjYpLy9Dz615RJhKDFPWjId1TZ34gymVGAen7r2524dXXivDukaPovz8grrs/MIjvnPy+GB7+ffAhFr+ICBuS/cgnXnknMTv422Hc6b0rhKw+hyKRZNuVRvSIN54nx22e5ok/1zcLqy7kCID3dpfjM18An5WcRaQsgI/2vCs2AabfXn9ztzXE+s47h3kPIxZyng+szdyQvF6Uvs2xyY5uIaeHXXWEzoyg0TwxEhgUofqPm7fEHw07tv+yA+988x/w6cxfEHw4hp9f/0SIjos/+jH+4VuV4jgNp/6yo1OIIhrSpPuS+PrtyO8wNT0jomVj4xN4/FkIP6j+QAgac0iThjnpviSwUvE/CT+KvpGQoujaG7uKQenroWTKA91bizN3miSG5h9/hu+c+B7o3p8vfoF/vXxF3DuZjUj4/WV2Dj//xSe4139fiDASkYEf1ooI39BvR6wy0HeKJH6z4lsir5NT08J+JMiuf/Lv+Ph//gh/npxOWciR/als5CcS3VebfiqGmsmuNGfQXc5U/083d6nel89b36KB/bP+/JNWIZe/sxC79pTgGzn2ZGNyOr3RYXHfeXxR+gH69lWJoVUNA51b5tuP/fv3i2HW8oOHRBr7fOXYV7YfZb5yUKRu2yaeeKxtxZ/rrwKthU/S/UBdjpCjyBZFuOgaKistJCDBQQLp4o/+VcxLo4hR0R572xxadEDRJC2CTGHothcNIZJYI6GkI2K3f31HCDESZBSZIlHmvs79PwkYiiqSEDz/zzXifB2xo4ULJC4p2kfijNJ3X69FKQkyEq80NEtDtFRWKnMiIUcCcnL6U1A0kNKlKKEuky67l5Cr+qdqIf5oOJjSMPNE9qY0Upm7SMKUbEVibvrTGUvEfXj+h440zfRT+Z5u7lK5J5+zOds49vuT+T0tQu6FrduF4PL7/Xj33Xcdk2Rf21GIP+//EIsl58QruPyFscOn+a/Q/nJ+sZKV9pSjveYOHDgghB190mKId955F6Vvy/l17PQnczrbL7Pst9pDq4lEihYlJOYowqb/aCJ+WblfRIFIQJBAIkFCQ4VuEaLFjBaDNAz5vzp/JcQgDbnS9ZQHEmOUBokRiuzRb1oMJmKWrrvbd0+IuMtX4q+M3VOyVww3kgilaJ2Zpl7kQJEyEoT0R2WleWr/ePy7CYUcCb27/6df3P+3wyP406M/i4gkiUdddi8h91bpPhHhpPLTHw2F0lA15cttQzOvXt+1mKPoI0XinlTE8dBqZrURXkzwsc3jwycWcltfehkHD/mF8KIVqCTCdu1RjeSzz+MX+05gae9HiLz9EX629zvI+kbsjuFbvvE83t5b5tiWhF7fJf/kViW0iTCJPFrx+nxuujcK3jwO58qdeb7eWbC6ix0SCTkamqMolxZhXvxQNIuiXCTmaFhRixCKttH5WszQcf/hI2JYdeyP4/hhzb9ArzqlPNC5JNxoBSpFuGhOXrxhUJ0PLeJobhsNKerjXp+04IGGXmnOnLm1iF7kQAKIInBayNEcP4os0qKHRDaiezX85KrILw3P/uzn10FilY7rsnsJOZrfRudQGT/59xsiAkfDpDR3TtswlYicLitFRUnImnMG9W/L/RSLHQp4scNy7cbnZ177uhF89kRCjlaf0iu39L5wMop2ALQHERnn4Ktv4bOyj/B5yTlM7D+HV7e/GrehpZ3EaT85SoNE2563SrDnrVLsKS7B/v3lllCk3337D8QM32aaM97Z9SI+8G9F4PDm/KOykw0yzW9PI78v5b+KJ91+xMw3iQRz1aoWa78Z+q0QAbe6/lOIMjqPRA4Nb9L8r8APa+Tv3bfxb1evYa/vgJjUT8OCJ793WpxDgk4Pker06BhFnCg9HeGjOXUkwmjSP4klLeRI1JCAo/zpVaOUPgmc7v/ssbYVofJoEUdp071osQGJsP+8/Wux6IKiW5QWLS6gRQT/df83olxuwUfbjJBYJRFq2kkLP0qDBCado8tk2oiuoflwJGTJVpQHmk9IIk7P06OFHWRnSocifRT5O+B/F62/aBMRP9q/jiJyemi3/d9vCEFL++Od/qf4+96Z+U3nd+KNuEtnmpwWixxmYHUYeCIhRy+7pyiZXnX6VsnbyMp5Adu3vYxv7ipD377T4nVbtMAhUHIkaaNQ8vY+EZmjbUioIaF5cbSFCQnGvftkRE5G/fwo2h07RJspkJCA2awCzl1uFnPJK/bzuS9ZnaN0MO4WchSdokiSHuKj4UFajEDn0f1oiJBEBv1OAosWOPzLxR8JUadFF/1G59C5JLBotalOjybh03mUHkWhSKzQbzqCRyJHCzm6Hwk/PaRJ/1MUjxYEuIdEtSikPLn/KD0SR/d/MyjuQ7/TnDMSh+6Nbul+FNHzWlShf6v/14a4NqLyksikPJKIo0iejiqSCK3/18tCBFIeKCJIw9Ik5L77/SoxlGzaVa8cJhFKc/ToGlr4QKIwHb5PNQ3qjBN3qZ7P5yWvx2wjttFqMbBiIUcCi+a1kYijIdCS0r1i2PTcW4cxceADfL4/gIW3P8DnpefQd+AHeD7F96aSiKMFDu8cPgxaxep/5x0UvF4EGn4lMSf3ndsv7k15WC3DrGa6mzkS5xZyZIvVtPXGSPs5sRUEvTppNctDi5VIlCz3HjQUSH/LuY4m0rsFFV1PwofEDm3JYb6hgYYraQXscu6hz6X70Pw4/f+TfHrZiAQlzeerq78k7kH5pqggzfXT27FQHuItHiCbu+fsUR4pHa/jT5L/VK61X9H1XFpslso9+RwWOczAyhlYsZB75dXXQIsbaBiU5q09m5sHWsjwefk/Y7HkA4RKz+Gz0nOIvP0hfl52ElnPPo+iPcUoLt2Lt0r24o2iPXjtjV2uv90oPyCHV0kg6td4vfPOO6AXOb+4bTsOqAgg3fuVgtczsqFxi5l0/d/w/Tx0B/LQcXz9Dtd65ZErcPIKvO2ll0Ud2Oi28tpyhCJrJIySzZd7WrahKKPeAoS2L6GFIRT9S7Tw4mnlNZX7UltLvKVyLp+TvO6yjdhGq83AioXcnuK3QQKLhNz+8oNiX7imkkpE954XIo6EHP0t0Py48g+Rv30nDhx6B37/Ozh40C8iavTd/UfRPS3gtJijeXHFNGybnSPe1UrH5aKK1IdXrfdpmsMwi2FMPriF2sNP9vqj5ToprnA7vg3dl17Gp7/ciT9eysMn316eIPuv3hJ8PbcfX7Yv77q4+VmF+XteeVyu/Tbj+RSRptWrz2VoFDpVn9HGt+WHDjuicale+zTPo+jZkX/4thgipu1PlhuhfJp5N+9NfBFnxJt5nL+zGGEG1i8DTyDkSkVEzif2gJNC7qfF72Hp7Y8cQi5ccg6TBz7EKy/tRNl+uV8cCTFr37jycjFcSkOm+nVd9Lv5R8dL3pZDI/vK6JVe+8Xihzd3vZVyYyOEnH7pO226S+8SPV6H7odhRJamE7z4PP3OixFO387DH+9LEfb1X/bhq6m9+Oov+/H13F78tTcf3SkKOi+RFHOvVRBny7mHVx65gUiNsRe37cArvJIw5TrPXKXGlWkn4os4M4/x9+XbkW3GNltLBlYs5GhYlIY3SXCVHziALTkv4jtv7EfU90OESs6KtzjQmxyib3+EW+Wn8I0Xt4ltSsT55eU4cNAv5sLt8+2H/ivbXy7mxJkiTm9p8uauPaKXvn+/XNVK934iIWe9QcGPhuEwIgsDqM1bG/gcwufb2/HFuA9fT+3C3I+3ocEQWp/8eCe+/LMPXw2/gg7juON647iXSIp37tM67pXHtQQ+s+/1nFhJSO8pzuxyrE09Yxstz87ElVypynPjmJ3lscP2err2WrGQo8m7NCxKQouGPl9/cxeyn30BV/d9BwvlASztO4+lsgAGD53FGy8VovDNXWI4lM6nRQzmPk4mBPSi5sOHD1tROhJs+8sPiHdNFrz+Jg4cOCjuScdz81IfEo2JyFlCLgdZ793C5FIUo816d/p8VF4bweSCWg03N4Heenvn9dxjLegflyvKaFXZbLADVVoEnurB7NIEWi90YHSOrp9G53Gnk00RFfzNPnz9aREeVdvDoc0/kHPdfvX9rQhU78RfP/Xhrx3brJWu3T8pwH//oVRG7sZ3IfTTPCEAtUj66618hH5XLH7/++8KETTTvvgKvlC/fTVVjC87tqNZi8HAK/i/Q0WYu5qH4O1d+DtFBin9pjx17x2YGyrC/217CX0db+Jvf9qLr/70Fv77ly85BGhDrXGP8V344hf27zqP5vCv6X/+7mTFbY//75nnQA9cFnOJ7eS2G/+f2F6aKeKLbZXYVmwfts96Y2DFQo4KsreMhjhtYfXqa2+IuXIHXyvBB8Xv4rtFB/DCiy9h+ysFYhUqRdrEPnH7yz3nYFBjQtuO5O3YKbYhoU2CaVEE7TL+0o6d4g0POqJHK1uXM48joZDLrkb3TBSRQbkpqa91ApGFCXRfPIGiglJUXuzD5OI0Ok8RwPmouhnEaGcdKssKsaOsBr0zUczekS8czxJCLozQ3AiajpUi1xSM6rsl5AIF+NtcGf67VYq4htpXRQSO5rnJv92YO70Vv7u3F1//oQDdh7eio70IX9HvfynFX4eK8NfxMnw9twdzH22FFklfz/nw1R924cuxvTKdPxTgDom1H72Gv4trS/DXoV3425QPdK4lEvXvcz58/ee38OXv3pL3mnsLoQuUx1fwpcibD1//hdLYjb+LIeB9+O8WVYYfq3tMvYUvh4pUHnz4W/dLQgzqPLKQW3ljSA9bmpBOw2Abfc7cemswN1p+iB/iiHhiEbfyOrnRuODyZBYLTyTk6K0O9OosPRRKix9K9u5D3ss78dy27diavxO7i0vEogiaE0fn0aa/XtE4Wtb/zjvfhP+dw2Il6wu5L4k95GgvIxpCPUSROZUGbU1CDc9yYEss5E5LITdMQk5+n+ysdKRfez+M0F35Dkf3fU92zSMydQuVJNSEkDOje7FAaCHX8Mtd+HquCI9oDtzpV/Dlp/vx1WgB+o47xZsQP396Df91eAf+759J5O3GnBFl+4Qid4dtIffXDvl/4PB2fPEnOv8thALyWPePt9tz7i4U4m8kzH7/Kj4xhd7oTitKp4XX37opKqeE3J9ex6Cat9fQXiTF4m9eRuDwNnw6SuKwWAk/uudLCI3tx9d/fh2DRh5ZyMVy4eYq0f/00KVV3LRhL9WF1d6aJFFe+Lcn8+XTsB/xQtwQP8QRi7jM8+HT4IbvuT45eSIhR07dWfC6JbJo2LT8QLn1hgb9zlSfr0yIOBoOLXw9dr8pelcrDdPSIgYdtaNtRujVX/ptD1osUhoUpVsuUImFnBmRa8SQubLV/C6EHi2UqMDZ6wMYmwkjtKiGX/VCCiHk5m2a/IYAACAASURBVNEtonfeTtdCzhZoW9Hd/ZYQaJ+eJvEjBdhX93bYAo2E3L+oaNf4a+jTw6HGpxZdpkh6NExCrgRf/EiLu62gLUD6rr6CT3/5uhRyQiQaEbvhV9RQ6lYElFD7e+92Q8iRqFTp6SieuEZH7MrksC8NzVoLN4rwiIXcsrlNzPlzIipNHSp6INMmrjTdgKIsFMVOfK03m3zNxrQL8UBcEB/ECfFC3MhRDR5OZe43Jvebxa9PLOTIUPTSe3qxPQk3iprRliT6j16vJX7z+0Wkzcuw1Mi8WbRHLHQQr+BSe8iRMKQ/Eck7eFCIPVpk4ZVGsmMJhZxjjpwUcqPXK+A/4vzz7aY5eafRORVFZG4E7RerxTm1d+YRWYGQE+Lt0zcRPLwVwfv78PWfXpcCSUXKpCCTEa2v7ufbQ6NqmFULQv2ZVMh9eztCo2/LCNqnJLL2ye/pFnJTuxD65U6xjQptpSL+2naIBRteeUzmO/49cSNL0RT6o+g1RVlof0V6UL/+5m7+YxsIBogH4oL4IE40M1y3Etcttg/bJxMYSIuQo4LSGxl27SnBIdor7p3DIppGw64HD70D2nMulSXttMM5rWCl695995s4cqQC7757BO8cfle81YHex7pSo8YXcu5Vq3Jo1Zrz5p7jpiNuZ2zAxdDqCoRc4Orr+EoNQ37SsRtfz+3D335Hc9f24isaZh3bhS9/X2ovhvi2inh9+ib+6LEliZdIMiNyg30k4srw1w65OMIeKlURNkd0TUXclhWRy0PoDxQBNIdW7UigOfxrRg1X6lO+zmZQ2kIKOv2Q5k+2hxcDWdkcgeO2w9128P+ZzETahJw2AkXXSLRtfSkfL27dvqwFCToNEoWvvbkbRXtKxFAsvWtV/7bSzxghl2AfOd/VEYSW5jHUXI2SgnwUHatB6+AE+q+UIutIB8aWwhhtrcSOAh+qmkcwScOrKxFyas7bV795GQ2H8zD4q9fx5dDrmPtJHpprd4oVpF/27QTNmdNRt9/dkxG1r/7wOj5teRmf9u3BV1Ny1WsyIRf8DS2MKMNfO7ejO7ADnw6VpjkitxWftKnFGH8uUlG5Qnz5J3sLFa88rtSnfB03vswAM8AMMAObnYG0C7n1alAh5Mz5bvQ97psdXNuPLM5j7F4LThZQhclH1Y0gZtXcuMnBFlTWDyC0IiG3FQ0tb+IrisTd3mEtMNCiTX92/MAWcgFz82CxgrQMf7//iljA4CWSzIhc4EcF+KtYqUpRM7puJ0K/9+HrtA2tynz2/fJN/P0vtOiB7kMLHXbjC7WFiVce1ysznC9+QDADzAAzwAysdwY2jZBbT47QAk1/drSS8CHB8xa+7CtUc8sK8MX9Xfjbn2mz4NfxO724wPh0CDzjuE433ucn57bFFY3xrlnJ8Ybvb0vpNWPryTecF260mQFmgBlgBjKJARZy7jlwa/D/B34jwqYF2PGX8DsaWtUb/U7txd9H38QXbdtTEkMrEVrr4RqyRSZVGM4rN/DMADPADDAD64kBFnJrINzcDn9n14vWnLf1IKaeZh7IFm778P/cSDIDzAAzwAwwA6kxwELuKQg5gpMEjGdkTkfoNvgnlZ1FXGqVlBszthMzwAwwA8xAPAZYyD0lIRfPIXycKyszwAwwA8wAM8AMpMoACzkWcjy0yQwwA8wAM8AMMAMZygALuQx1XKpKnc/jXh0zwAwwA8wAM7BxGWAhx0KOe2HMADPADDADzAAzkKEMsJDLUMdx72rj9q7Yt+xbZoAZYAaYgVQZYCHHQo57YcwAM8AMMAPMADOQoQywkMtQx6Wq1Pk87tUxA8wAM8AMMAMblwEWcizkuBfGDDADzAAzwAwwAxnKAAu5DHUc9642bu+Kfcu+ZQaYAWaAGUiVARZyLOS4F8YMMAPMADPADDADGcoAC7kMdVyqSp3P414dM8AMMAPMADOwcRlgIcdCjnthzAAzwAwwA8wAM5ChDLCQy1DHce9q4/au2LfsW2aAGWAGmIFUGWAhx0KOe2HMADPADDADzAAzkKEMsJDLUMelqtT5PO7VMQPMADPADDADG5cBFnIs5LgXxgwwA8wAM8AMMAMZygALuQx1HPeuNm7vin3LvmUGmAFmgBlIlQEWcizkuBfGDDADzAAzwAwwAxnKAAu5DHVcqkqdz+NeHTPADDADzAAzsHEZ2ARCLh/198OILAygPs/tyDr0L0Qxe+d8TE8k9+oIIkvz6D7lvmb9/3+yax6RmR6cXGciNWm+jjaitz3WF9wAPSFzMXZtxNBSFENXnzDdJ+QrKQ9PmP6qcZNXjfbgPCJLUVHPqp5iPk/enEZkcQLt762mLw8h6/3f45n/iCC7K4LsT36PLb5DMW2mw96+23jmE3X+f8zimfcvJD5f2PAQttTMIrvrt9iSBpv66gcwuRAVfhq9tiv2/nkn0DQ4jdCiPCeyMI3Rzjr4Y54TK7BtqmmL54y6P/EU8/cEz6DiGrTfbIQ/gS0bhmPvGZqZQO+lCuQmuC7rVA9mEz4fk7Qxccodmgqi8+Mk93bnK4VyOtjMNvNWiobBMCKPB1Cbot+FzYYbY3ly52sN/98EQi4HufUDCC2F0X/RVSEv0vEoIo/7EHAYPR/CWetQDDmBdJVHlWG9PiCT5auodQKRdVZBUrH3ej8n1q5mQ+bN0FqUKRkPa5GHldyjonMakYUgWo+VJn7YOdqU1bHzScrL4gRaj6xO+lnZ+ch6fxLZN/6ILft8yHrBh6zjv8czXbPY8na+98Ns9208czOEZ05dQNYLhch66zqeuRHBMx8lEHPPvo8t/xZC9k0Sf2kQcnmXVSe9BiUFXrbJRy118Kf6UHvchx0FPlRd6cPYVOoP9PjsrDTt0+ieiaavDQz0IZTkGeZ+zu0oO4Hau9OIiOdlHP8S12kRcqZIzUfRoROo7ZoQz+TJrurU61YK5XT6ymz/tJDrQ22K9ZWFXIqGchrdqxIu81iedFzobo2j4REVeXwCk0th9AbMNONH6tKet1WwyXp9QCbLV9Xt+fQ1Yqtg10zwvVceY+1qNmQm92v7PRkPXmVZD8fWY0O+anbJbcYzNyN4prLEaDvzseXjELKv3TCOaXZKsOVyBNmXm52/+e/jma4/YsvL+jzj86UL2PKzCLJ/9r+Rdfy36RFyKQqN0WsJxMqK2xBZv5afdnqFXO61YNKRGbeQkxzVoPdxFLNdp50+NO2Ron3jRv0TjHj5ro6owEtqvkmlnM768WTt33qs/5siIpeVXYqmoBwGsYcbpVgbunoCnY+icIg8UvimuCuvQbceSlmKYvJBG6rihWHLa9D5wAjXTw2gvlw3WgRQGL2XLqN/Soa0h67kIMsVhp8d7zOu0deqT1GBJtD+cRtGVRqRxWn01/utShfzgEyYfz8CnUFrCMKdVu6xFgxZ95nHaJcx9JAw3Xz4L9lDG5GpEXQPxhvyPYH2R64Qv9WTzEfltREjf5SHGvjMRsX8nor9m1swRD1fisYuzmP0ht37o0oautuCJsqrGuaYDXY4/e0qd2hqBE3H7EbHq6Kbx4R/Ht5Cvep9ivs4OIllguxn3SNlXuLZVTVk1w2uXXaghs93oQejc9pO0xi9btvJ2TDmiAh26O5l1N+j3nwUkUEaenD5bm4CveuOU1f9iil3GJODLagU9f0EOnVdUGy4pzDI6H8QTcVmuipCE2xBEbHq4sfRnqj63XqhQ9l+Gp3HlR31EOBcEN16+Ek8EEfQYNUBl83Jr2Z9Uel3XurB2GPbt2b74fDt0d8ju+v32PKsWZ4cZFWQ4PojtuS6jj/bjGe6InjmqF0fRHrPXsUWEoT/aApCfe172HKqGVl0D5FuChE5Vx2IkE0uqDbwCk2LcbYnsYJC1oHZ2/GZpravfzxOO5C0nYkiUdoOG1u+8xZyCeuhm6XBFpwsyEH9fWf5I0smI9rust66Gc7KlkJu8uYJ65mSe5ieWWHVZk5j6PaIc2i14Dw69TNSMNeHsUTTNxIIuazsSvFMjhj1Jd4zNV45E/rOMbSaA8fzMoX6Ybbl5EchPBen0X2u0LKXt39tu6f7900i5HIghpeWptGp55KIYdURNOTlQAyVGMOrwrELAzLUmleD3rkoZodbUFVWiB1l1WgNhhEabJSNslUJpZN8Vwcweq8FVYdKsWP3CbQ+CMMCUgEUWphAd8CHHeJaP1ofRhEa70HtMXmNCG1P3fKe4yZAiyIyN4Km92lIoFKFwu15Mg4wk+W/vBH9wQE0ve9HUUEpKluDCC3pB5GsUKHhFlTuLkTRsRq0djaigvKdJN3cQB9ml8IY66ShjUKUvN+CIRIFlkCLhdpdQaxKsjSN3osnUJRH6bRhdCGKeKH3VOwfIftTegWlqOqcQMTgQuSB8t1VJ8t85pZokCY7K2UlzatG91QUoWCb4CF3txqKWBhBgxLsXuUwjwn/LEUxO6iYOtqI/rkoQvcvq+EEPxqGw4aPfahq7kO3EEHL5CVbNdaOIWv5EIs8jm8H6b95DDVXK/+R3cMYulLq2ViJ8i2EMXbbHsry0VC5YevKi32YXJxGp5p3uh44dTeouWd6RISeRGtJQT6KjtWhl/w93Cg7DwU+tFKn0GFPk2X1ENS8iLoiO3D99flJ640csgojRPVbD92+d0vkaahZMlsZaEPnVcWjS8jJaEaC+uLRfjTcn48zhzgHWe/PIvvnt2N9XnRbDq8WmWXPQVa849mnsOXnETzz/qnYtMw2NCUhp+oHDYuSjWhY9Dq1W9PoPkMCMh9Fov0xh+5c+cxWQ2ok+KaC6G6uQYVjCDYfVTeDYs5cpWj3a9A7Y8+nTtzOJEvbnRf9f6yQS1wP1fzvqR4E1LOpoasNARVkcNQv08bGd1FvzTY5rxRnb9PUAbs90219aPyWdR/Z0dX2lW1SZG4ADfoZpjqpsQJalTWhkMuBGEVQ4jOxrV1CTJQtse+ykgo55/PVXT/Mtly3F0NX7UCKu01Zi/83jZDLOtIhHshjNypEQyKGVbXiVw2lHF6VlSl0v06cJxY9uBdKiLQm0OrodevK6Pp0NLSqF2gurhANqyEwBYgULXQP96p0xfnz6D5j3EfNB9FlMyvw8vMv8ygihdkyajl2PRbSZOk2DEYReXRLij7VcJj58oLbrCDyd+UL15C4FOVShHul4zjmYX/nkIcqr5r4L/LwoMUxP8PMl1wE4/a9cyjCPF/nxTym7WBOktfHRMRY+DiR/5fBSwIhF98Oco6oLSwla/4bE4g8bPPswIjyzfXhrPWQkL6zBLA6TvVOR7/NMifjSdvR/kwPp3Z6VEY1N9ZdRhGh1w8tL2Fs1MXsHJy944w8FzUHLaGUtJxKaI02G4JZdDon0GpF9o37OfhOob54tR/6mNfCrmRCrsTIC/k4mZD74KMnF3Ke9aNUdIhJYItJ+onKpBnNq0BtVxCzOtJJHTgjOu9kQwmGqVuo1Nebnw4/UEd3eWnLe0n/2Z2EZPWwAu3jcjTJa2GCWb/cZdH/i3rril5SB6/9nDH/U0Q4XW2Oad/jsqMhOiqWTZztqr6f9SnsZdcp67i6XuQ9ThQxy2XrVMopzrF858yb43pdLvP5qo+p+qHb8vUi4sh2m0fIZUvo5YNIChS7sTQaQCX4hq7KoQEJlDtMTf/Hg7AQJ6/0YHQqbK+GsoB0AiTgFVB6pR9nVaELKlkBVP6V+DTBTCX/O77biG4aDtZDLVZInHo2cqiMVhN1N5+3VnQlTlfmh4YWzApq5ss8rr/rCqL/d/ecrOOeNtAPlGXa39U7i82D88EdrwzmdeZ3nWfzmFcajmOuhkqnIT6Xy0sCIefsLZtsqgeKu4Gn/83eu9VoO20k8yvTcw9xif9VNMsss/judT+jnqWfU82M/lTcxswNMm3jVVZ9vfoUHcN59J6j/2W7o1fGJy2nF9t51XKoaTGMyQc9aPrQWNXnYMWZT4sbM03zu/af1zH9WzIh9zQico4y27Y3eUo+Gd++LiubIv2N6B2nocMw+j9Wv+VV4Oz1AYzNGG25xX+idiaFtLV9HZ+q3lnR3uT1UEZgKYI0gf4bdWJYVfvdYQ/Hfez8iXZppg+1RyrgV39VVwYwSVOIbso5cjods+PpsK/wRxBNjulGcVjU+RDXxHuGOiNy5J/4z1SviJwU0vF958ybLp/diXbly1U/hM10WzXcqEbWbJtq+6/l5yYScsrhJKrEKlY9fCgdIJw514daGg6icxzhaSfoEng9NGo6UIXUFybQ21yDSqoY14MyPQGwEyDhaFUJWo2KJNP3o8hRMdR9XFBJWGSF94p0SEjj57/oipxYOnanBYHjVJnbMGoJOXnP3N3VqL0xgEkSemqZduJ0vR+IjgqjK7TxaYodWS4Pe9H5njagvK7A/hkp5IJImZcnEHKzd+qsxl038v4y73kg8Xw3et1+QOg0fLuNTpJ6MCbmKQerw6lZd+m7N7fuDkVsWd3p2JGSLCHq7GhGsnLGZzsfRWfq0H5vWqzqC92rk5Enh6hJob541R2vY7perskcOcN+qQytOspsX+toXxKVSZfN/akWxclJ/qflfMi5EbRfrBb1oNaKtCZrZ+w8WQ9zR9oev4u8KOHmEnJJ62FBJQLNPRileb/GVjQOe7jLqv4XLFvi1M5X4K7csotWcnqmY9rX0x9xWNT5ENe4BJP+zTFHLrmtY/OXyHdURmfeHNeb5dL5cR0TNgu2wX9RTh962sOqxNimEnKykQxjdsact6bgVc6apMnMxtCKHEpzij6rcmpHW58SEMeQlQNyJ0AiHXVf2Xu3K1Lce7igEucVtwjxNdYqh2NMMJPlX0DpGEr0yKMuXx7dR1a+xOmqYQ7DjpRPMe/Bo9HQZY19QDoFqj4v/tDqCuzvqtSxeXBGYGS5Uxhaddg0H00P7HlVpn90mRzHhI/D6L3gmjBOflguLysScmqIUU890P5P8BlrNyWKzGkEruvNMifmSfnAYdN0cOqub+kZWiWf6uHUdtrT0ZhikKyc2r+J9q90rNJztC8p1Bev9sPrmPbVWqxa1feiz1SEnK4fjp0Glju0Wogi1aHQdTBLiS0xGqNtYgyx2bwma2eSpG2W1/HdLeSWWw+rxfYlOtJu59fNuf2/qLcebbIQcmreuGxvXW3eGWMfOffiQCqTeFbEGVWi3xMIOeeq1WS29hCaCX1HZXe2HQ476WvNaQauY3Zbl4+qLtd8Qoc/bTtbjK3S75tLyKnVODS8o0WPbWBVidy/6cntajGCmFh7pQ+jQa/FCHLIloZRxMKBiz0YE6v+9IohJ0Dy3q6J7XmloMnMQ+MDaPCagyegsifb68UXtOGx3tDQAWaS/Iu5gjN9OCsWM9Sh+6FcpSUaAxrSeaAWVeSVoqqd9vhRojZJuuJBtjSP/itqgraY6B5/aI5sofMSOHICgQ9PiIhD0snbjoqxEvs7fWJXUrsSOo7pcidY7OBvlwsoaEFLES2G0KtTPYYUNX8On2U7Jw/LydwjGLtTg8LsZfLiaVdnmWUenMf0/A+56CNfLPJpuEOTv723JHDYSPlE+k4vmKCFAzVoHZxAv1ow4SiztmuceqbZSDen2v76U5c77mIHT2Fss6LTyRLzVsMILURhT+GgB5xaLBOnnF5CLvfMLYyqhTEUHW9/aHREHUJOraBLtDjI9VAS+fU6ZtWrFPaROzWJ7H//rb2CNdk+ckW/wjP/EcKWwx4rWFMRcroOxF3sYHd44gniQtqaY0mySRFiakfFBH7djoopNmGMtlbKPeaaRzBJc+mE6EncziRN27Ktmxu3kMuB5tG7HvrRcC8oF27lFaJCRIj0kH4OxJxW2u/weAWqAuc9V/qLemsKObGfnnNoNUsFCmbvN6pFb3XoFbsM6IjaebEg0FwM0frAeI54lTdGyMXbRy6xrYnfmHIm9B3Z3NnWOdohr7rgOuZs61RbPd7hmA9utQNeZV+FY5tMyOVA9DSWXL0LZVgxSXlpAu3uzTVdS7wT7T4tdhNXk2dngz0InKFFFomEHDXurh3Gab5D82nvsXcFVf/NAdmw0Fi9uTWFVyg8Uf7L7a1Q5BL+ajGBVvbq/AiYk4HNJf5ks0TpZvsRuKO2oqD5FrSFA1Ves9FwAZ1LtlLz9GjLD7lVTJLtFFxpLN/+zkrtrKSyoY05FlNuY2sQyo/wp9q2QG3/EKC5hikLuRxkmcv5aYXr+EDc7UfE/Jh4vGTTw8BtV2eZZaMTe8y57QHNz7qF2sMeUcK44ibWd2P35PYIdE9HA5qMp1Xj1P0wdW+7Ym4/EocHF4O6ERfi05imoY8nrDeuh4a4xsWbaFf0wgeXkIvZ8sVz+xH9AFZl97qno0xJ3uxwdhbZN117xCV6s0MJbRhMW5HIhWdUxi316i0Q9OYI628WW9xz8HS+YtpMY/sROidpmfw4e31EThdR853Irjbf+ai6YS+EEO0XTclR7VfidiZZ2rHMSTZihRwdj18P3fVrGkPXZAdYcnMZ/XqbJRK9HoEB0bbp+V76U7zhwrnFk+8CrThXc7nF84baC5uj3GNtclcCSkM8J2rE0LSODsryGeUW3MbODfd6tia2NT2H3OVM7Lv0Cjm6fyOGEuykEFN2zXAaPzedkFsLo67qPZI2UEZlSSMoq1omzqdjUQjbmhlmBpgBZoAZSJUBFnKZJiJYyLHoyTRmOb/MLDPADDADq8YAC7lMg4uF3KpVhlR7P3we95SZAWaAGWAG1gsDLOQyTchxflnIMQPMADPADDADzIBigIUcVwauDMwAM8AMMAPMADOQoQywkMtQx62XkC7ng4cXmAFmgBlgBpiBp8cACzkWctwLYwaYAWaAGWAGmIEMZYCFXIY6jns/T6/3w7Zn2zMDzAAzwAysFwZYyLGQ414YM8AMMAPMADPADGQoAyzkMtRx66UnwPngXikzwAwwA8wAM/D0GGAhx0KOe2HMADPADDADzAAzkKEMbBoh5/lOOfFuOf0e1KenpteyJxPzfssMBXctbcb32hx1g/3MfmYGmIFMZGBzCbkEL2zPROetJM8s5LihWgk3fA1zwwwwA8zA+mSAhdwmi0ixkFufFZEbSPYLM8AMMAPMwEoYYCFHQk68v3QCrRc6MDoXRWRpGp3Hc5B7rAX94/OIiCHYKGaDHajKU6DFXBPF7N06FJVfRv8UpRFFZHEavRf89ryDvBNoGpxGaFH+Pjveh/pySq8SnY+iCN2rM869jP6FKGa7TtvHjnRgbCmM3oDMg+9Cj8ov3SuMycEWVOr8ZTdiiM69ZOdn6EoO3EIu98wtTC6GMXStArmbTNSupMLwNdzQMgPMADPADKwnBljIWUIujNDcCJqOlSpBk4+qm0GMdtahsqwQO8pq0DsTxeyd81JYCSEXRWSqD7VHS1F0pgNjC/OYnZlG78VK7CioRNNwGJGFAdQKgeRH68MoQuM9qD1Wih27T6D27jQiU7dwMjsH/hsTiDzuQ0CLqYsDCC2EERrvgF8dK2q1z8k904PJpTBGr1ejpCAfRcfq0DsVRWi4ET5xPgm5KEILE+gO+LBDpeEQcuWNGFqIYrKrmkWctjt/2h0HtgXbghlgBpiBdc/A5hJyKrKmI2z0OXRVR+SiGG0uTegwIYKmbqGSwBZCbh7dZ+yeiVhQ8bANRRr8Mz2YXZpH9yl9/jQ637PPz8quQ/+CirDp9Ojc7BzU3g9j9m4fxpYm0H6EjuWD0g/dp6id/B4x70X3DPQhpO8nInKG8FR5soQci7iEvl5PvS3Oi1ln+DvzwAwwA8yAycDmEnIzfag9UgG/8VdSoEWWElxahNFnXgXOXh/A2EzYGg6N6AUTLuFFRhVCbrjRFgjmOVdHrCFaU0haYjL7NLpnohi7UYGs7Br0Pqb8lIoo3lgrCUwp+vovEsDyXMewq8i3jMIJcaqEnPxuQy+EnBa0KhpoAsHfbVuxLdgWzAAzwAwwA+udgU0m5HrEMGaMU0zBZQm50+ikuW5zI2i/WC3EX+2deTyZkAui1RCRUlD6UaTmtZ2l9CnKRpG1uT6c1UOuwRZ5bGkEDeLcJxRyJGiP03w7HlaNYcHyPzdebBtmgBlgBpiB9c8ACzl6cHsJOX3MGDq1hiXjXJMwIqfS6z2XAAoxNDqC7tvzCN2tkZE9scBBHosMN1rz92KGcSlPHkOrnhE5FVX0XR1BaGka3Wfy7SgiCxm2BTPADDADzAAzkDEMsJAjWLVoU/PTRA9ErRAdbaWFCz5UNY9gklabrnRoNduPBlr8QAsq3vdhR14pKgNtGBofQEOxFndy+JQWOeiVqXJFaxihBeccvlQXOyQScjTXLnB3Xi7IoEhfcSOGHkcx2WmslOXKnDGVmXvOuh7xJ7PADDADm4cBFnLxhFx2PqpuBDGrtgoRW3vUDyC0YiFHc+6c249E5ibQ33zaWlFKFY8WOdgrXSWIcl7bBFotwSePJ99+RC3mMMSYI6pIx/Oq0a1Xuxa3YHQxitBdYxsU41puGDZPw8C+Zl8zA8wAM5AZDGwaIcdAZgaQ7Cf2EzPADDADzAAzkDoDLOQ44sRDh8wAM8AMMAPMADOQoQywkMtQx3FvJfXeCtuKbcUMMAPMADOwURlgIcdCjnthzAAzwAwwA8wAM5ChDLCQy1DHbdSeBZeLe83MADPADDADzEDqDLCQYyHHvTBmgBlgBpgBZoAZyFAGWMhlqOO4t5J6b4VtxbZiBpgBZoAZ2KgMsJBjIce9MGaAGWAGmAFmgBnIUAZYyGWo4zZqz4LLxb1mZoAZYAaYAWYgdQZYyLGQ414YM8AMMAPMADPADGQoAyzkMtRx3FtJvbfCtmJbMQPMADPADGxUBljIsZDjXhgzwAwwA8wAM8AMZCgDLOQy1HEbtWfB5eJeMzPADDADzAAzkDoDLORYyHEvjBlgBpgBZoAZYAYylAEWchnqOO6tpN5bYVuxrZgBZoAZYAY2KgMs5FjIPvuQHgAAIABJREFUcS+MGWAGmAFmgBlgBjKUARZyGeq4jdqz4HJxr5kZYAaYAWaAGUidARZyLOS4F8YMMAPMADPADDADGcoAC7kMdRz3VlLvrbCt2FbMADPADDADG5UBFnIs5LgXxgwwA8wAM8AMMAMZygALuQx13EbtWXC5uNfMDDADzAAzwAykzgALORZy3AtjBpgBZoAZYAaYgQxlgIWcw3GFKDlSAf+hUuQ6jqeujLkXwbZiBpgBZoAZYAaYgbViYHMJubwKnL0+gLGZMCJLUfEXmgqi+8pp7BDCrRFDdHymBydZyHHvjBlgBpgBZoAZYAbWOQObR8jlVaPzkRRvJOJCj8PiTwu6yRsnkJXNQm6tehB8H+6tMgPMADPADDADT87AJhFy+ai9r6JwUz04W2AbLvdwHTrvtKEqj46xkONKZbPBtmBbMAPMADPADKx3BjaHkDvSgTExlDqB1vJEUGoh14eGZjkEG5qZQP+1E/acOWN4lqJ6s8Ee1B7OV6Hn82gfHEH3lRM4Ge/6bL81vEvXTz7oQeu1FjRdu4yqYpk337k29I/Pi4jh7PgAWs/57dB2+Xm03pvALEUUKW/Xz8MvRGiicvFv670icv6YUWaAGWAGmIGVMLA5hNzVETkn7mEbihKOdSshR6JvcRqjg0HMLtJwbBj9F0ms7ULDsByenR0PYig4L9Od68NZkW6y63Nw8ua0uGaWBNyNAUwuqLl6j/rQcCQHvqsjCIl5ekEMDY5gdMa8fyXax+X/kw9GMBScFvnsPMXwrwR+voa5YQaYAWaAGch0BjaFkKvolOIpMtxoR7Y8BZ0dkTuroly5SgSG7tfJawtOo+q7hSqdfNSLIdswegNUGZJdfxrdJMxmelCl7i/zNo9uIcbOo3cuisjCAOp1lC3vMvpJ7AVbUKTTf9gGn2f+uUJmeoXk/DPDzAAzwAwwA8thYFMIuazlRuTMVaunejBLETKHCKRtSqpRe60FnQ/k3LuhqwSeFnLGqlfH9fkqojeN7nOFyMqrQJO4fgLtR3KQdfwWJkU0UC7EcCzIEHlSQpDOmZvAUFcjqnbrYV0Gfzng87nMCzPADDADzMBGYGBzCDktppaCaFLz0Lydl0yI5cBXP4BJMdyqVr6q76kJuRxklV/G0GM5nCpWzC7Oo/9ShZyDp/P5qA9NYt4czZ1Tfx+reXp6jpy6Lw0B89AqN0bePLNd2C7MADPADGx0BjaHkMvWc8uiCA23uBYH+BG43qJWsiYRcsUtGBXz1/qsla8nu+Q8uVSFXFFzEJElEl9+j42H6+Qwqjm0GncItdCabzd5k7ZO4crKNmAGmAFmgBlgBjYbA5tEyFEkrBFDamFBZHEeY7RYYDBoLza4X4fCZEOjevXrTB8CRypQebEHYyrNVIVcpVrsIKJxC3IIdXZ8BJ0X5MpUvRgiNN4nV7Ne78PY4ygmu6qRS3vhjU9jqLka/iMnUHuXRCQtxOCKu9kqLpeXmWcGmAFmgBkgBjaPkMvOgdgz7oFa+ECRNTEfbR6jXTVq8UCSiFx2qRJP6tq5IDqv94k5dKkJuXxU3ZhAaGECQ/dISKqVp5SPhQHUiqiaH4EuvVpW3WdqBE3H8pFVXoNuvVJW5D+MMSvvDDQ3aswAM8AMMAPMwGZjYFMJOdu5+Sg6VAHfShcKFPhWdq2K6M3erjaGQkvR+pAE2wgaXMOjO8p86tVhroqZVwofvw/WsKHLPi472n7n89gWzAAzwAwwAxuLgU0q5J6WE0+jc0pG2SaDMiI3qv/vPM3ChAUYM8AMMAPMADPADCyLARZyaw1MQSUC1/vE/Lwx2lT4Xg8arH3pnpbA5PtyD5UZYAaYAWaAGchEBljIrbWQ4/stq6eRiZWK88wPA2aAGWAGmIG1YoCFHAsrFlbMADPADDADzAAzkKEMsJDLUMetldLn+3CvkhlgBpgBZoAZWL8MsJBjIce9MGaAGWAGmAFmgBnIUAZYyGWo47h3tH57R+wb9g0zwAwwA8zAWjHAQo6FHPfCmAFmgBlgBpgBZiBDGWAhl6GOWyulz/fhXiUzwAwwA8wAM7B+GWAhx0KOe2HMADPADDADzAAzkKEMsJDLUMdx72j99o7YN+wbZoAZYAaYgbVigIUcCznuhTEDzAAzwAwwA8xAhjLAQi5DHbdWSp/vw71KZoAZYAaYAWZg/TLAQo6FHPfCmAFmgBlgBpgBZiBDGWAhl6GO497R+u0dsW/YN8wAM8AMMANrxQALORZy3AtjBpgBZoAZYAaYgQxlgIVchjpurZQ+34d7lcwAM8AMMAPMwPplgIUcCznuhTEDzAAzwAwwA8xAhjLAQm6NHNcwHEVkpgcnU7zfyZvTiCxOoP091QsorkH7zUb4jetzLw4gtBRG/8X8FCpgI4aWohi6un57FYl6fKnYI9H1/Ftm+p39xn5jBpgBZiAxAyzkDGG0mrAsW8h1SiHXekQ5MNCHkEsICiG3uEmEXAr2WE3/cdqJGxK2D9uHGWAGmIGnwwALuWUIuR1Ha9BwvQ2t1xoROFqYQhTMdupyhZy7QuReCy4roue+Pis7syNy7vI8uT1s37jT5v/ZNswAM8AMMAOZwgALuZSEXD6qaKhzKWr8hTF2oxq5KV2fA7eQo/9Dd1vQNDhvpTkb7EBVnqo8V0cQWRpBQ3YO6gfN+7q/z6P7lLwm91gL+sfjpJdUyOWj8toIJhdU+ovTGLp2QpXP/ds8Rrtq4NNlP9WD2aUJtF7owOicvH72bh2Kyi+jf8pOr/eCX4lfEpVh9F6yfw897MDJvGq0B1X+F+cx1Krvn4Ms0x733TaQdsqUSsf55AcEM8AMMAPMQLoYYCGnxUiCz9xAH2YdIk4LiXn0nksNRi8hF1kKY6yrDpW7C1F05hbGlqKY7KyUYscQLuTsk13zsRE5IaC0kCOxGcRoZx0qywqxo6wGvTNRzN45b4in+HPkfFdHEFqax1BzNUoKClHyfgt6uy4LsSZ/m0bvxRMoyqPf2jC6EMVklxKyIh9RRKb6UHu0FEVnOjC2MI/ZGbqmEjsKKtE0HEZkYQC1ws4yOhhZCKL1TCmKjtbJvM5MY6y9GkUFpTh7m4TzBNr10HIq9kjgw3RVGE4nNd7ZTmwnZoAZYAbWhgEWcik8/Gvvh62omTMqF0Xofl1KQ6yeQu5BiyOiJ84ZblyhkIsFRoi/qVuoNMST92KH0+ieoQhhjUdZvH8rap2QEUOKIGpBecbOgyjLwzYUafueoaidFp1SyI1esxdpiLw+7kNAn5/XglFzcQYLOQ/f2PbmBpNtwQwwA8zA5mSAhZwWDgk+hSjxjMhFEdHCK8H1VLk8hZzr2icWcnkVOHt9AGMzYYQWVdTQWiCRaI7cCn7T4o2Gdc3vyg6OstAxxzmx94uNOLrOYSHHQi5JHeOH2OZ8iLHf2e+bnQEWcik8HPw3KPqkh1Odn2M3KlJ6wK6+kDuNTpqPNjeC9ovV8B+pQO0dczjWJYwc5V7Bb6YwM7+rdFnIceO62RtXLj/XAWaAGVgLBljIOQRNHOjy6tCvFwGYgu7xAGr14oQk6ay6kNNiyhjedEa5Eok1e/g0dvGG/ZsJpOfQqlp0QeexkIvDUhJOTBvzd7YhM8AMMAPMQDIGWMil+mAtr0G3XlG5FMVssAeB8tQBe1IhJ6KCCyOoL8iH/8xpuWJUizcSUEc6MLYUxmgrLS7woap5BJM0vJrS0GoOfGLO2zz6r9gLGobG+xAoykFqix30/Ddpk9UWctIeQbQer0BV4Ly9gjZVf/J5KUWSkzUg/HvqbQDbim3FDDADq8EAC7k1eqA/qZDLoq08ZtSw7twIGg65553lo+pGELNqbtzkYAsq6weMTYQTReSochXibKd9fWRuAv3L2n5kbYWcwx60WraYG4jVaCA4TeaKGWAGmIH1zQALuTUSclwR1ndFYP+wf5gBZoAZYAYykQEWcizkeIiNGWAGmAFmgBlgBjKUARZyGeq4TOw1cJ65t8sMMAPMADPADKSXARZyLOS4F8YMMAPMADPADDADGcoAC7kMdRz3aNLbo2F7sj2ZAWaAGWAGMpEBFnIs5LgXxgwwA8wAM8AMMAMZygALuQx1XCb2GjjP3NtlBpgBZoAZYAbSywALORZy3AtjBpgBZoAZYAaYgQxlgIVchjqOezTp7dGwPdmezAAzwAwwA5nIAAs5FnLcC2MGmAFmgBlgBpiBDGWAhVyGOi4Tew2cZ+7tMgPMADPADDAD6WWAhRwLOe6FMQPMADPADDADzECGMsBCLkMdxz2a9PZo2J5sT2aAGWAGmIFMZICFHAs57oUxA8wAM8AMMAPMQIYywEIuQx2Xib0GzjP3dpkBZoAZYAaYgfQywEKOhRz3wpgBZoAZYAaYAWYgQxlgIZehjuMeTXp7NGxPticzwAwwA8xAJjLAQo6FHPfCmAFmgBlgBpgBZiBDGWAhl6GOy8ReA+eZe7vMADPADDADzEB6GWAhx0KOe2HMADPADDADzAAzkKEMsJDLUMdxjya9PRq2J9uTGWAGmAFmIBMZYCHHQo57YcwAM8AMMAPMADOQoQywkMtQx2Vir4HzzL1dZoAZYAaYAWYgvQxsAiGXj/r7YUQWBlCf5zZeHfoXopi9cz6mJ5J7dQSRpXl0n3Jfs97+b8TQUhRDV+Pnq2E4ishwY0wZRWUS5RxBAwna4kYMLUQRuleH3OwcnOyaR2SmByfTJHYrrvah/Vz8fK5F5V6rPCS0eZrsuar2OnULk0tRjLVXenPjKEMSBotr0H6zEX7jmnSzFWOLUz2YXc/118MmMWUw7LWS35w2TuKjJ7zXSvKX+jWlaBgMI/J4ALW6DT/aiN52Z7ude6YNnVcqUuD16bRBGdkmeNjZy28nb04jsjiB9vekbdNS1jTVkWR5Watngpfd0nVsEwi5HOTWDyC0FEb/RVcFvkjHo4g87kPA0ZDlQzg/jSImXQ6LTSd5A50QZLeQexxF6G6daAydDwKX7Rz2SuW3UrQ+TCw4Y8uWSrrLOWft8pDQ5su23XLKmKZzScgtRjF2PZUHYxIGA30IuepSetnyKPN6F3IeNkk3/04bJ/HRumZSC7k+1Kp8FrVOxHROqbyzXadZyKXRl1529uL0ZKcUcq1HZF1MS/uXpjqSOC9r90zwslu6jm0KIZeVJxux0N0aRyWvpUjd+AQml8LoDZgPg/iRunQZPn3pJG+gE4JsCjlXA+B8EJj2Wcn3anTPPG0ht3Z5SGhzl53Tx8JK/JKOaxIzmHstGBPZTS9bHmVY50LOyybp5sBp48Q+Sve9Vzu9qtvzMUKO6hwLOY+68ATtjZedU/FtOtq/dNWRxHlZu2dCKnZb6TmbQ8hll6IpGHU9TKRYG7p6Ap2PKApliDzqCZjirrwG3cF5RCh6txTF5IM2VOkQv1FJZORvAu2qV0JOqaCeytIIGozza++FEXnYhiK61pV2aGoETcfyLcHpBaHzmLuBLsTZziBmF2VeZ4M96H2Y4tBq9mkhtnRj6HwQ5CD3DEVpwhi6ViGGXt15j2eXrOMdIrqj7Uef+h5ZeSfQNDiNkMpvZC6I7gt+q/yxYOej8toIJhdk+SJzE+itl+f7qJe+ZIf3s7LzIRqimR5UVSXIg8sHjnIIQTCBzks9GHus7rk4jX51T5m/Zdq8vAadD4wyTw2gvjxeA+xHoMv2Z4T4+G6hsA9xELrbiPo7E4a/Oxxs+i70YHTOzvfo9WrpO8Wt8/d5jHbVwCd+c3KVe6wF/eN2HZgNmvdxnmv6rP6+ureqO6IuGMP29eRL7XuHHfwIdAZtP7tsLsvegqbBOHlyC7m8alnPh1vgN+piVnalPH7/ssMuWUc6MEZtwAWqiy7mFk075SDLfS+yn9cxZfN4Nkl6H3W9bd/ENnLW3/g+Eum566HZDrl/c9VRcZ+HbQjcUJwuzqP3Yil89QO2bx/1IWAxTnkJo/fSZfRPST5CDztwMq8a7bqdXZzHUOsJyyd2WU6g/ZGbKY//dQTYlffZ8T6jrsXmY+hKbJs8OdiCkwWu+vkeTT0Io/9j+7hs/53TcfztE9aIj2y32xz12VmPcuCsj2HQvSsdvNr3S4/fbqG+a0KOTFEdteqgh52FTePYzBUQkGVtcT2L7DbD9qddHvNYynXEaP9lvVhGW5zoueR6Jrify3YdtPP/NI9tEiGXAxEiXppGpxrDzxLDqlJgCbFlDK8KoBYGZBg/rwa9c1HMDregqqwQO8qq0RoMIzTYKIWYo3GV4nCstVQJkQq0j4cRWjCHdWvQ+zgKcU5eNbqnoggF20TaubtPoPbuNCILI2hQjZ6sEM75bc5jzgZaipl59F85gaKCUlRe7MEYiZ5U5sglEnLlcv7cZJcSAsuyC8HuzKeE3o+G4TAiU32oPVaK3AIfqq4HEVqaRvcZW8yaFUSUb2EC3Rd1+fowuTiNTjGX0S+Gb0kkkxjJPaPmSVlpeeQhWTnEAzmKyNwImt73YUdBJRruzzvmXC7X5r6rAxi914KqQ6XYsfsEWh+EEQm2ePCkpwVMoztA9/ah6koPWgPSNoKDpTDGuupQubsQRWfaMEpzHO/LOY65gT4xT2youRolBYUoeZ9+D2PoiuST7EMPI+v6Y3XovKM7Kaat8lF1M4jRzjpUijpQg94Zc26peW5sw2Y20NqX4hgJ+kFVr442on+O8q4EVXkj+oMDaHrfLzluJS6CaCqW6ceW/RbGqJPVqeb0OYSU5qzHIXJ1Xoqag4gYadNx0SbM9eFsdg58V0cEk73EXJ62YxRWXXDcS5Xf65jRVnjZJOl9jOtF3pPYyHmPRD5S9rEY96GquQ/dorOibRe/jmpfTt6tQ8XuUlS1TyA0N49ZqtdHC7HjaIuce3tfTtnQbUFkIYjWM6UoOloneZqZxlh7tfD32dvUAbY7xc6y5MipL442zdkJlb6V7UFovEe0L1TXRPs6dUvN+5U2CVF7QvVL2FfNqZ7qQUC19w1dbQjEiClq250BABrhobZ+7IaejiCH7XSQIBmzuj5SZ6ukIB9Fx+rQS8+H4UbVuXLXrfT4LW4dzPays5fNcpDlJeTMtsXVNrn9Sf5yH3P/T+ckbv/V70vLeP55PZdSeC5Lvtz+eHr/bxohJ3vYUauSiWFV/fBUvSs5vCobBHoYkrPEogf3QgnRW59Aq3qo2E5Vc+uGG2VPUpw3gt67YfFwFeeJBl42UHJBhTsdKfR0xMop2iQozmNmA30CnVTx9cNQNfzO812wOSqgszG0KpJbxC3bLnRPM58qD8IW7mFt2fiR8KQFF7Zt6bvMn/WwVr+LBlRHVMvbRCRl9FqNsMXsbTMCFZuHpP7VD+QzRl70MSEeV2Bzd7kcPjDuk50D/w3Vo495kKhG9kGLw05CgIhOiGTRzYJIT0SDFas6MuzOk5e/jHMEG1O3UCmOxdrV9JvFkft6ipR6HPNeXKPuQRET/YBxld3BueUjLUS8RZzIp5p6YXfAzovOm+RMtQeaL5Vf2TFUkXbrXobvvI4lLGsK9zGuN+1rf3fayGn3BD4SeXXXQ1UWz9+cdVTfx/alvJdtzxwrMi59K38fvWZ31kQaRmc6K68Fo8YiLn0PzYbD18IuzrZL2ETk3ei8i/Oos63LKvPhXOxmC7TY9sfwb4zwoHTn0Xt3ApHxDrmwR3Bld+JFnuMyG6c+itEhZ5TP8renb57Eb7FiKtbOXjaLI+RcZbVGp2JsJ/Ps9rH7/+Tt/0raYlkec7FgKs9lywdJ66STmdW6bvMIuWxZQeWQpoycjTbryJnRiArxRXO5ZCMjYLKGhcwQvnfl0sKAJuXqiaIUGQmpRko8SFVFjwVVOt2sPOZ3DYHzmAmi/G42kHSN83wXWA4R4WwMHWW3erFGpVuGXTyFnOPedr7i2UWnYQ7RWt+N3nkFiR/KGwkFhwAybZViOURj6fK149gKbJ5diJNXejA6FbaHlGn43atRIBFNQ7qL8xi714FaNawa16/CptRRkL607GP6SgyROH2t2bI/XbbKq8DZ6wMYmzHyrIevUhF91rmG3ZMc2/HdRnTTELQe0jYe7F5MO44JH+n6Oo3O79p82WXUx1QU5tEtVJAPzlEkU0f/XHbQPjIZML97/a6PGZ+xjKdwH+N6XYZENnLeI076lGaceijuEec3M23zu8xX7L2c5yT7nfziPMd5vVeb5sGzyLtmwPkpH9zOe2ibysgoReEn0H+jLnZYVftB+F1FDfXE/GLqSKrOOY366JGdOO2wzaxH/sV9vPOYyDeJfjPtaH7XZXcfs/On60qc/Lg4ib1Ocybt5b4P3d99zP2/ZsKzTRPtv8zbsp5/Ls688qFt41kmzcJT/txEQk6BQg9MsYpVN9QSUAHNXB9qxTwre06bhKkPtUcq4Hf86VC8Blx9FlNPknp8stcqxaLqrZ2Tx3S0LRZUmYYJjPndGyizYpnf7Xx5paHTcjbizsbEKvtxmi9kDCVZlW4ZdvGoMM572/mNZxddkUevu31RAd9u3bvPR+AuDX2GEaIG1ZqXQ+nH2scqo8O3lL7yb9KHdGyaZNv4Nlcr8BYm0Ntcg0q673Ua2osj5EQDUYiKQAu6H8j5YHpLEM97iAaVHiTKl3fqXNxWwF9Gc+ycvrZ4sBoks1ynRXSThpfbL1aL9GrvmFvTmOfaftRpevkz2bGiKzScGcbYnRYEjpM/2hwRGq+yO44pv/V+fALtNEd0yi3qXfkU4m0eveekqLMjmXHKZnJhftf28zqmf7Pqj7m1Twr3Ma4n2yazkdPGcdKnNF0PYe038RnnNzNt87u8NvZeznOS/R5bV53Xe9UvD55F3oNojanbfhSJDl5sPqyyF1Qi0NyD0RnqRJnzbk1uZOSWIo+Bu2G1jZUMGFC7T8fMkQUHn8qX9jGP/ItzEuQxjm9W7rdYMWXnT5c7Tn5ceYm9TnMWRFNe7H0oz24fu//X7Xf89t87b555sepS7DWx95VlT5yOts/T+dxUQk5OQA5jdsZjTpJqeCdp8q0x3CTDrE7RZ1V2CwbTeUqs3e7BkO6ZZeeAhv9mxTE7upNKCFfA4whR56PpgTnnzQRRDsvqORkyn+7zzbzqyqVFhLMxMYHW83f03LXl28XMp8qDsLke5tD5cg7bOG2t8uex758+z54Xd0LOYXnQYswvic1D0nJ4PZAdx5Zrc5kHR6/R1Qjqsnh9mqvIvBqWsySwRPRXDdXo6QMxrNpDOXJxg7a//jRspctrDC+bbOgG1hyeMPPuPFemn+xYLPdGfuIIZYc9dJ5p+NtjaoCZP/ldL3roE0Nv9lZFkjlnndJzbl1Dq4Z9svT8zDj7UMaWP4X7uHyYzEbOezjt5yi/sJVe2KH9rz71b45V/c466rwPXRd7L+c5yX6PTcN5fYpCTjHQG3fvyth8OOwi7J14VaMUaz3onrHbMTHqMkzH7JEdStfBp/Klfcyuj2IRnPZ1KkOrYkFOOvwWK6bs/On049jM1YbFXpcD0Tapeafan/ZwvHv4PTYvVuczbvu/3LY4ljPyUyrP5VhOtH2ezufmEnLZ0tEUmjXnb0inyIY05jc98VFNmBUT8q/0YTSoJ8zGOk5UZIoImYKQooB0TIEs7qnTTrDYQax6osn/AR+KaLKuXmFkDSU6K5aoLAsT6NST46+rlWTW+a78OiqgEkpqLyZd2eS8FB3pUpty6rynbBc5nD17pwb+4zU4K1bm6vlL8SdSuyuMFJTzkBP4aUJwDVoHJ9BPE/gpTzQJ/26NnDcmNrUNY/SaXgXrkYdk5TAFgW5cXceWZ3Odh/P2YhSxqlSLaad/xMIIsZghHzv0pHDVkInGcmkaYhK+WNjSJzfxvSEn/OvJ03IxQ75YqNNwhxYtyL225GKIMMY6a+zJ1eNBtB6mPBhcqRWco62VcsFFs1ppag2NGudqGxmfsj4E0Xq8AlWB80JYO9mSZTaPiTmsM304S4s4jtWh+6GMRmqx6PWgcBxz+UiXtf+ijtw67UycyUUPNKQmFzlo9nQnJu5ih2zp09BwCyp3l6Lk/RYMCZ/anTadlv70skny+zjznMxGpj0d/jR8I/OjFgnNDaDBWnQ0grE7NSjMTl5HnfdxsaPu5Twnlhfn77FpuH/XZQ8cOYHAh7S6VYnLhx2oPFKNwDmq867FAHmlqAy0YWh8AA1ifnNsPsQ194JyMVVeISouygVDccWgGD4NW1NnhD1pzrUYEXAGABx8KruYx3R9Xc5iB9qbM5I2v8WKp1g7e9nMHRBQojVB25T1sdzbdaj5BIp20+KaEcyq6TB6HmT8OhKn/c9WYnE5zz9Vdx3PJf1MSPBc1vV4vXxuMiGXI8PdRqTMdIR4IBsrpazfYpYiB9H5sdqCI6ZRzIF7YYVIJ85edu4tPGKWOYvl82qLBbXtQYB20baEmati5Z1A63Ci850PA+ewSiIhlyOFkrmKall2yUfVDbXMncrRrjbudG0PsOztR8TcMdoeIB9VXdPiIWyvMFPbj1irgOPkIVE5XIJA+NJ9bJk2N7dloO1hAmdo6NpbyNG2H0NTYXvrG2M7AvEQCPah09iywd4+RPo5ZjuDB7dQe1iLmXz4Lw04tvgY7fTafoTsZm+BIrZEoI5JikIuq/wy+mmIihpqWslYHPvAILs6HtZ0jdqaQjJRLSKsKxVyYisa4sNiwVUPqB7nXcbQorHy1arbSbYfodV0F4ztacTWHVQv4ws5L5sse/uRJDZy2NMU5la5DBsUnLc5otXE4wP2NkhJ6qjzPpSmq01y+zbp77FpuO+RS3VGzZ2kLTzo4V9EokttZTN5X71JJCbvE+hvPq1WqMbmM9YH0xi6Zm+DYj0TLBsqEW+tyKW8q6CA0ZGn60zRptNxH4upr0Z919c4PtPqN1cdFCv/3Xb2slkcITfc49hOxtk20bZK9rYnok2hoILVplAkPbbdiPUPzR02todZZlss2gWv51K1jHf4AAAgAElEQVTMM8G5LZjDBxYLRn1a42ObTsitNwdwfp4e/Jlue/dDINPL89Tz71jkwFw+dX+s8cOQy8vMZyoDLOS4sXBt8cGVOVMqMwu5dLLqXuSQzrQ5rUypU5xPZjUTGWAhx0KOhVyGMsBCLo0PHbX/YKI5dJnYwHOe08hIhrYTzMDGZ4CFHFdOFnLMADPADDADzAAzkKEMsJDLUMdxL2vj97LYx+xjZoAZYAaYgWQMsJBjIce9MGaAGWAGmAFmgBnIUAZYyGWo45IpdP6de3HMADPADDADzMDGZ4CFHAs57oUxA8wAM8AMMAPMQIYywEIuQx3HvayN38tiH7OPmQFmgBlgBpIxwEKOhRz3wpgBZoAZYAaYAWYgQxlgIZehjkum0Pl37sUxA8wAM8AMMAMbn4HNI+SKa9B+U71/T4k39/v7YoAXL12PYqxdvoQ85ve0isA477BL6z1WB2jx7tAF+S7N0Wu7Ynt17vcdLkxjtLMO/rw05CfVtOk9fvSuz7h/Cd6LmcwHRxvR234+ttzGdWLzXte9QzMT6L2U4J29dL37va5GmpLHJNzEKXdoKsn7gmPuk4OsFMrprCNm3krRMBhG5PEAalP0+/I2PFbvt3TZWPjbfH+jV7k22LHl2S0NdXCD2c/JMNuH7bH+Gdg8Qi7QZ7zkWzomJSG3GMXY9YqED+n0gG4+9NY/OFaZ8y6jfyGK2Ts1KCnwync+au+H5cvSj/uwo8CHqit9GJtK/YFu3SvmgbHStNVDf7gxLX4tap1AJEla4uFqCIodZSdQe3cakaUwEr5NIC1CzhSp+Sg6dAK16oXVk13VyI2xq5cfc5BKOZ2+MpnWQq4PtSneb3mCJL0+dZbD2x7r9Zzl2S2zyrZebc75Yo6eJgObRsjlXgsiYjxIyehJhVyKD5z0ONB86GVQpUhRaIxey0+LaHLaWtps+Wmn96FfdXt+2UJOlqMGvY+jmO06Hd82Kdp36GocZkREzhRy9nm+qyMIJROSRh1IpZxe/ombNyNt53Uyj8sTJOn1qVd+MuXY8uxm85Ap5eN8ss+YAScDm0LI1d93D6mNoMEQcvXXRjC5qM6ZGkB9uTaSU1zlHmvB0JQ6b3Eeo11xhgfFw3cCrRc6MDpH50+j83gOsspr0B2ct4b3Jh+0ocoaZnLeKys7H5WULzVkGZmbQG+933rgU176x+20ZoMdRlp+BLqCmLXKNIKm7xaqaxOnG1NB3EOXc0F0X1D5uBI7XBn70Jblmr0dL/JD+RnAmLBTFBGy6w3j3PIadD6YRsgqS6x/4qet/ej+9H7o+y70KH9RPqYxet3Oh7fvT6D9kYstV2dB21M8XGN+k0Ju8uYJ26+HL6N/KiwZWZzG0O0RzC4ZQqzgPDo1Q4LBPowtRRFrd1XmBEIuK7sSnZT/YAuKSFTFtXX8cibm0Mm0o+Ok6kjnpR6MPdZ1ahr9BuNuQSKE5+I0us9plk2/evtU21/c+2EbAjdUvZi6hcpsPwKdQbuOLcbeP3T3MurvUeQ0isjjCbSfykeVTmMpitnhNlRadThBHX/vFiZJNH9s5zm3fgAh07fZOfC3TyDyuA8BIXJddVX4uwY+LYDjtDPLs5udH20r/mSbMAOZxcCmEHIEpeMhohpCcYwa48EWVJUVYsfRRvTPRRG6f1kNN5kPIvnQCw23oHJ3IYqO1aC1sxEVulE1P0UDG0ZobgRNx0plWnk16J2jhl/dq6warcEwQoON8iGabd4rBz4arluYQPfFEygqKEXlxT5MLk6j8xQBlo+qm0Exz6yS8l1Wg94ZGt6U87TkA2L6/2/va4Diyq4zk01S5d3sVu1uJeuYhCTMmhnGwklExstoSmKrRMkZPI6I40GJ0LhGKCukyGqPQCkIiYTGAgzGFoVHCuMBVlhEBEYYLAzuFYYowGB+3PTgpmPHib0ur5NMMvGMPZ4fjcTft3Xuz3v3vX79w5+GVh+VqNf9+r17zz3nu/d+75xz70O7T4cyO9Dokx6x2OW6wVuA6usqLErtoLDoBT8CCxNoP0LlZSPX1+UkGqYexGcVUqOJcNyP9voyFJoh2KxStAz60VJRjD07c7BHldd5XMqSf74XQ90NKHk0Dzt2FaNxMGgTj/Q4ZUfIotsXOelnqnr760ulHEebMDQXRP+5PGjCE8327onTaxCMIHJZeTh2eQKhuQFU6wcHhZHASCt8wq6lqO0jsq6JXAEab4QRmu5F9QGpDx0iXR+Ry4Dwsi3IB5vYus5AZDtj4zDNhWlHHxR9hNoygNqjhNMiVF+bQWiuF1WKGJn1ZR7pEESo/7z9MOPUc6RNzd9F3XNB0f+Kdinv8L4a9Ph7UXu0QPaxRsK2H7W7JU5E/QtBQehzdxWh/OoMQpMzGLtxCSU0BpwgmcIYvqhSL2L28UI0j4QRuFpmkXZKOQjMBe370/OEffU10mM6gU4aA7JysEdgMgwrHO41zqQ77RRfb7pP8NHEC39mPCQTBpjITXagxJjwHZONYyKqFLlgwxeiTSQG8NUkNVRPJECezyTPiDFJifP7L2F4YRSNYuIwiZyclMZanIssxMBvTAS6bDoKuYWXIQMFF9VTvekpEHKssVw1UXT6jLapyYZywkRulbhGEw3zOuNzViHKTQ/hAk1etrfLbEdaupLR8FI5fhceJkk8xPk1la1lck/62YKk2AReXif0eKMJuemxbW8SDoesBq4kKXB578jDc1wRfbpWeDgn0PK4ltO12OGg8upUmWFqEzfGfbrumB45hRtF5CJkd+k6kXaaOIxP5GbQfsSQ2YUlXV9iZETZNGKxg8SmkMsgaRFtFfpSujwnZRL1DzbYOYQR/SEbtYNhK6wer487xxbC1Aw6r44iNHIJBVR/FtVPOZNUv2yPJnVaXpGnSPaivi3kCcMcZ+i6tenN0L/GDB+tcVvrnY+Mk+2MASZyrnCXc7A1J0nyPsgQC634a68/GX3VpWtCIgDIicQ1kYtJR5Mgsy752XOFpU6qzyrEsQu9GJ4M2mFH3ZZ9NeincNX8DIa7L6HcCqsmUK45iLsmcg1kh4482qqvizySV6EGnSMUOrTDTJmPnURj9yimZlVIkbykVt5YDg6d68DQuNFOT+LhXXakDPYkaS9QiEYCwiqvMrbt9cTpXZccAMU1k10o31+IAvVXcq5XeHTGnpM5clqv5oOFY9WqsIcftQ6CbuLGY7CNQ+RMj1xaemxde7YzFg4dD0Iur7gXblznRH2amF2vwQ4TmxGflQ39TZZ+pZ4LkJvlqtu4d8cTNWin0L0O7xph6oj2uuQje5vXxO3j4v5RNO/PQJpefLW7yX6Yq+hFYK5XLQaJYldTBvOz0aa16c0DM0ZZsTDNv7HuGAPbAwNM5DT5UYOXnkwPie+Rg2nmrlKUX+zFGA380bZS8BhgZbnOiVxONPlqgjLrkp+HLtiTvp7880VY6DBaKFdvegDNFaVi4iq/QmGfDki5CVw5KPQ1oH1Q5tHJLVTilesC5aYTOVW+8Dwosqa2eJnqu4Tyo9TeShkmFkROhU7nRtFZX4YiIkAX/Ah5EjmPsqNOSGrS16RYeT+mrlS6SEAhCvba+VjRbG9O5tEGNnGNwz5SXt/VoPDU0kpOJ/ZUe0wsedrDxI26x2x3TCJn5sjF13VkO+Ph0Cmbo31mu7S8rnOiPiJmFRS+DyJ6WJXa7bapUxeOulV9uefkYo/hKw3wHSTsNWFoo0TORdadffykSK8YbswD2V2mQsiQK3nVBBa0p9tFgi1cmToyP2sdanKZsN6cerLqMcrjc6wjxsD2xgATOdfk6hzwnRORA8xZDRiycpdcRvYYYEXYJWZox6xLTko6581RLw2wunwjLOWU2ymPvdowTrnuwVvUE8TGQqs5yNU5Sbp8ReT6z2db5MX2QikZBZGTOnGsSnWQmdhlR+hN1x8x6cvQqpX0b13n1KNVnsv2kQQn8r6YRE4lt8uwmQ61qzKOdNg5iOTFWXDZQ8iyvsUOzlWr8XTt9D4JXcTFoYlpF1HV94qcT9VW1zlbr9koaXPlE0bYaO1ETpRvhk5d5Mmu31s+0oF5Tfw+nqHIWgfaJ207ihD+dTpHdtRhc9me+KFV7dG3MWfLlIje7PssfEfolq9h3TAGtjMGUobIicFyzo/Gg4Uo8Z0UK7+8yI/znDERiaR8lZidlYeS5lFHYrTDyK4JSfyWVYr28TACIx0o1wsHznVhyN+qvGhGXekZkJPsDGTyfbZcXNE3ih5Kvhe5dUEMNRbJfdnq1apbRUpF0npbJSipe8dHlIdLLYSIWW7EAB5vsYNBKs0J2Sgnh7Z9WZDtIG/ijr0qgZ9CSFkqn4/s8hFatEG/TSA0r0OrMjeNCK1c8NGhVrfKHLl4ZTtsYsjk5b3ReVjDWm97S1F9hRaUHEZaHNuLffImu+DbXwzfiWI7p8qoU0yu5kOD2E/PGVpN200PB2FMXatRC2oq0SlWxerJWnp0zMUQjcrjmvhih2j7yMXWNekyop1xcJhQjpyJG1e/sQkJTSJqocfIJe8FRhHk3DnxOPu1/E2355hYvFSJ9hvSe6116azfG+uOa+L28QykifBpEAFrZWoG0mhF61wwYjxJbLGDxobdXodMbr2RB3xeL+Kx74neV/ga1g1jYLtjIGWIXNq+s+iZVDlq410o3+3yEKhJ1zngm+TKtaWHuQ2HMWELg7smJAsEru1HnLvrm3VRx4ncemC4uwGHxIpP5xYIY30NKKKtDBRRkFtl2Plm4ncrrypWuR4dNtb2I9TuaG21dFKAYxcGZCha5TtN+TtQ/pjyPGSVotnaTmMC/XXFqLoWtHLkxFsj1NYjdJ/vCC0Q0Ysd4pRtyeBul7f3xrn9SBBjg61Kzti2zySZVI4VbQNjh7ftesXkqvO99FG84cLYToII/ClanaxxSqueCRf2ZJ15oAn9eqsWgcEyEWbX5MPCmm678GBG5mY6sSfljK3rDES2MzYON5fI0dYeNeifM1Zt6jaKo7dNtT6c/VrZhcYEvZ2Q0GWpWFmqdekkRN5Yj7gmZh+neiVhDlyrNBLqlexiYY2NGa8xYKjNwEuUvhcpk6G34+ThvVubnJtt4c8ai3xkLGw2BlKHyDkGfQbSZgOJy2NMMQYYA4wBxgBj4O5jgIkcEzzDM3D3AcidnnXOGGAMMAYYA4yB9WOAiRwTOSZyjAHGAGOAMcAYYAwkKQaYyCWp4fjpZf1PL6w71h1jgDHAGGAM3CsYYCLHRI6fwhgDjAHGAGOAMcAYSFIMMJFLUsPdK08S3A5+KmYMMAYYA4wBxsD6McBEjokcP4UxBhgDjAHGAGOAMZCkGGAil6SG46eX9T+9sO5Yd4wBxgBjgDFwr2CAiRwTOX4KYwwwBhgDjAHGAGMgSTHARC5JDXevPElwO/ipmDHAGGAMMAYYA+vHABM5JnL8FMYYYAwwBhgDjAHGQJJigIlckhqOn17W//TCumPdMQYYA4wBxsC9ggEmckzk+CmMMcAYYAwwBhgDjIEkxQATuSQ13L3yJMHt4KdixgBjgDHAGGAMrB8DTOSYyPFTGGOAMcAYYAwwBhgDSYoBJnJJajh+eln/0wvrjnXHGGAMMAYYA/cKBpjIMZHjpzDGAGOAMcAYYAwwBpIUA0zkktRw98qTBLeDn4oZA4wBxgBjgDGwfgwwkWMix09hjAHGAGOAMcAYYAwkKQaYyCWp4fjpZf1PL6w71h1jgDHAGGAM3CsYYCLHRI6fwhgDjAHGAGOAMcAYSFIMMJFLUsPdK08S3A5+KmYMMAYYA4wBxsD6McBEjokcP4UxBhgDjAHGAGOAMZCkGEgZIld9PYzQgvMvMDmKzjOFyNwM4+0uQ/NzNSjYjLLudhlPdmBqYQbtT67/iYCfplh3jAHGAGOAMcAYuPsYSC0iN9mBQ4ok7dhbjPKrEwgtBNFTkb3xJxFfFwJG+UkFZiZyG7f/3SbfXB/bjDHAGGAMMAbSM5CyRE4SrTJ0zoYx1XZ4w2DIrPMjxERuw3pMKgLMgyjbmzHAGGAMMAbeYQwwkZsNY+y5YguI+ac6MDStQrDzExi6UGqHXveVod0/Y4Vox/oacGhnBqquOUO2oYUBVHsYlsK7gatnUdVNnsAwQn01SEvPRlHdAMbmVBnTo+isKrDkSdt5Ei1GnVZ42N+EAnFvL4YteWcwdNGW91DbDEI3muC76MfUfBih8VYUpWcg87Gz6BkPShnmJ9B/ecAIrSp56HqScdqP9tObFH720AkTt7vvhmeds84ZA4wBxsC9g4HUJXJZeTh2eQKhuQFU75MGzfR1CULTX1+KPTtzsOdoE4bmgug/lycIV9W1IELjHfDtzcGOvaWobmuCL0veK0hTHI+cyNObC2L4chn27JT35TeOIjQ3ivaKYuTuzENRRRfG5ifQIvLVslHuqrP5RhChkUsyFy+rFC2DfrRUFEt5lfydxw2Z5oKYut6Aol0qfJxVhs7pMAIjrVY7avuInKocucdbMbYQRH+9ksfXhJbzRTaxZDLGumAMMAYYA4wBxsC2wUBqETnXYofQ7Ciaj+cpj1s2hMfs2lnbA5eegYKLo8KrlZteiOYR8qiVOX7XTzUJE7npLhyzOsBhtE+GMdbiJEpE3qietHT5+1CdkcN3fiBGCFeVpzyMQqYFP2p3S2InZD03gNDCBFoeN86ZOXIVvQgsjKJRkVvdPj4a+rLsx+cYF4wBxgBjgDHwzmIgtYjcZBfK9xeiQP2VnOvF2AKFVilHTpIgK3Rpkj7lacs/P4CACDeOoudipQiragAnTOSuUzhVG70G/WY95mdxXTbICxgYbEABef6yClF7PYiAQTYzHzuJxu5RTM2qUOmCnfPnJZM+V2LJkIE0k8iRl+9mGKH5IMYGO1B7gsOqtr203fjIOmEMMAYYA4yB7YGBFCNy9qpVDUDf1SBCc70oV0Ru6kqlRfQ04SvYm2OTr51F8NV3YGiSyM4ompVnSxMkvSpWl28eRWjVg8gNXbDJpa4zX4dC99Wgf9bIwbvZBZ/2lj1JYdAwpvouofwolVGJzsnEiJxDTpPICYKXjdwjlWjunhDENdBd6emFNNvGn7dHh2Y7sB0YA4wBxkBqYYCJHBG52S740mVoNeRvQK7prYr6uVSERfvPS8Csj8hJL+DUlZM2UXTVJ8q9XoMdO/NhkTt1ja7T9q6p8tQqXP27SdpyKSePQqdmuPVI9H3kkno1rkuXPLil1uDG9mZ7MwYYA6mAgdQlcjvz4QytZiDzSIdI9B9uqxSLA8SChit+DLVQ6LUA1d1+uSghKweFFXJhhF5YIHLp5vxoPFiIEt9J5HuQiEiPXAZkuHYGcoFFNnIPlKGxbxQ9YoFFBgqbiXgZHjnywI10oWqfyt+jOj8iF1/U9k0gNB/bI5e2uwFDVMa1GhTtykHugUp0UihVLXbIPNKKob4GlOzNQeauUojFFQmTWx40UmHQ4DYyzhkDjAHGwPbBQGoRORchCs1NYKilzEG6nNuPUJ5YK8ofo8UGrm1CaNuOumI75LjvLHoo3Ep1jHeh3PR4KVLnReQiy53BcLfc1oTy9lpuBjFUX4Q9j6rw69EaUU/gWiXSskrRrLcmUfJQTp3eF8/LI0edL/8UrYzVsg6g9gDl6qlVq64tVqb8HXYo14OccmfePp2ZbcG2YAwwBhgDqYeBlCFySQlukbsWuSedyOsTe9ClHmCT0o5MgKOmDrA9uQ8zBhgDjIGNYYCJ3HaeZFUYdOxqJYpEqLNAhYNn0OkztiTZzm1g2ZjEMAYYA4wBxgBjYMswwERum4NrxxMN6NdvYRBhWz9aThlvftjm8vOT1saetFh/rD/GAGOAMcAYiIUBJnJMhLbsKSEW8Pg3HpgYA4wBxgBjgDGwcQwwkWMix0SOMcAYYAwwBhgDjIEkxQATuSQ1HD/FbPwphnXIOmQMMAYYA4yBZMcAEzkmcvwUxhhgDDAGGAOMAcZAkmKAiVySGi7ZnyBYfn4KZgwwBhgDjAHGwMYxwESOiRw/hTEGGAOMAcYAY4AxkKQYYCKXpIbjp5iNP8WwDlmHjAHGAGOAMZDsGGAip4lcVh7y9xeiYG8OP5Vonbyjx2zkiteSFSA3K8pAszMfBdvWZjnYQ7I9mme9xi1zVx52JKzTyPuTfbC5m/Lv2EuvtIuBnYTtEAV7fD+Pk4wBxsA2wUAKELli8eL3wGwQUf9uXEKReB1WGKHrNZsHzqxi1HaPYkq/13SW3u1aiYJoxGRNoKB3v/ZieFq9M3XefC+sOfmcRU+sttNv3Wc3r80RbfCuf8zfhcYThRbJiZzkD6NdvLtWvQM2otwMpJ0fkO+29bRZFLtPjqK/rQaHdpo62orP9P7aMEKTHTiUnoHMil4E6PvIJRR4tSXinPP+SP24ZfbWs8A84TuifPf999Z38V5j/f7gWG0/0xt9XFD9pufMvaWb+Fji9rKOGAPJhIHUI3KaVM0bxG5LiFwBqq8HJdGYm8DQoCZ0QfSfe3jDxCn//IAkBkTg/H6L0AX6apDjmLhcE7xu/5zR/g0Queo+m6x4A18RkoWwY8IMEalZIF3kRdHFRomcvj+MkElkrfaPovnIGl5zdo5IYwxS6dA5DYJOIpZ7Ttlr5BIKI671GjSd93vr1rzPW89M5EwdeXx2ETmJSydWmch56C0hDPN98fst64h1tHEMpACRcyrpUNuMIFdTbYedBGKzPXIHWzFGZOVmqz1xZxXiWMVJ5G94ECxGyzgRoQm0PK7bl42CE5U4tk9/9z5KT0UY/ee9f19bpyqVXjPldfK+VxOMAVQb7c6/MCpJ7o0m5Brn7TI0EYtBnmJ65KLdn4NjLaOSBM8NoHp3YnoouUy4iSFLRBvcRIxCxWsJ9bnvjyent55tfca7/976PWGPnMNurMNUxQu3+97q/6lmTyZyeiDXRG7wEspb/BgjL8545HtN8483oWdkRniXpkZ60Xg8yntPdXk3W1EUJZS644katA9OKE/VBPrrDxs5VETM7LoCk360n9ahSE1SJtBycA1epfQMeBK5rGJUtak2U/i37awhczaKznRgaFx68MYGO1D9RA7SPnIW7RQ2JrJKHse+AfRfrvEIG0aZHKt6I4hc/qlWu56+DvS7Q6s6VE22IX1cVWTQM7SqdeRFvvIsb+lYS5Ek9DsPo9rSQRBjfQ0q/FqEqjYdwqbw9QD6+zpQvT8DaUTML/RieFLqZsrfgfLHtD1cRGx/DdpJR80nRX0F5zrQ33cJvscq0aIwMDbYCp9FxF33p2cgv4ruGUBnY6nL60qDcBQ9K3zr+o7tK0O7fwaByS6Up2cgJgaVzM0+lSIwO4PhK2eRn14An+4jk6PoqSt2hMij9ZGc061C/pYK2wtbWO/H1KQfzU/aE8mxZqnjqkfpXA4O1XfZuPB3oZbwp/utlvF4AXxtfkzNzqDztMa5Yft9Z6X+rzahJNeuyypHlBdFh3H6R/R+mgHRlss1KNHYHvej8Ug2Mg80WOOI0+7RZOPzTluxPlgfjAGNASZyekLQxIuIyfQohmhyFeG/UTQrr5cVzpz0iwlpSBCNIHoq9ORtACurEj1zKn9tWuZllZgLKXR980SCiETJa4fq5SSXo71NJEufX+XZzaDzONWRjfJrKmw7P4NhIhZH8w0SaMih26eOEUQuqxTtwrunSIputwoBWrldos0yhEvh29zHa9Cpr02IyPnRSMn/9He0Bj2izhl0+qTuMo90SA8mtWdwAEM3VfssL5gRqh4n/WudRMtrjEXkMpBZ55dEUuSs6WvDGPMbdfsbkJtehOorfowJW5pE7mGLFE+N+NHvl57e0HQXjpmkQHsrtb0V6dSeYQrl0f1We63Qq5PIWfoZ70CJ54NBFBKi7C7rCyKgMbkwgGotUxQMpunfKSx+05Zx7OYEQvMzHrjMQMw+osuzvLCFaB6RuA9cLVPkrAyd1BeEHqPZ3AjJqzIDcxovYfSfcxE5C+MTaI8ZTvfQoXWvd/+I3U+1HGGnvqYnBJ5MnYYE1qL3Wz1g85F1xBhgDLgxwEROEx09yfgbLEKkJ9vhi4VISz+JTlpYMNeLKj2RZp2VZC3KIJx55BKG9GIEQQrDmLrepLxd2Sg4UmovfHhchWKtSS4Hh47aHrrMKpksb014WaVo1uRBlR2aHkDjAQ9Sqdvo4ZHLrZeExvJMpWegsGVChBGJNGoC0HnKo1ytM01WjHpsoOnJUZFaLetCGMNtZar9eaj10+9B9FTpejS5Ul6V413S+2eGqjXZXbNHLgNpRzpkeXoxwmOlKLG8aUVouUnyjKJRhF5dsuh27jyMEss7lI0qQa6D6PTRQOMkYhYpchG5oXrtXdJ1jKKZvH3m/ftq0E8EjELBlsfOPZhF07PUn8ZyYLDBxlx6HAxq+w42KI+bCqUv6DZmILdRekVlqkK8PqLbqMLs+y9hmEgikbDZLvhIr6rOqSsnkaZtfqPJTkfQ/URjTss450etZT9NoKjtmgwG0X8+ivdc21PrnEiuOhevfwiPYYx+aoV4j0h7WQ8QVj9XxNWo0+47bhvzd9YNY4AxEIkBJnJ6ENcTgkkKFFEQk5TOeTMXScwqL4CeVHRZjmM2cg+UoZbCPirR3iRNmbsKUOSrQW1dl/RIucqibRRKKhpQ2+KXHkJTPloNuasYvvoOSO+gKyfPIYc0vtsjJxYrELkyFwQorw3l0eXqRRUL5K3qQqOvyCK6etLVKzO9O5gmGIZH7mAZGvukBytwvQb5HhNoWrqe9CURKXqOyGUYjtzGjRA5fa+5ipS2oDlYhuq6BnQKIqdIpEsWZztpm5BSlNc1oGVQ4kHmHyZG5MxcRWvSF2FGrbcwAgI35I3VJDeyI1vEb4E8tBSa1H8yDKyJnFmfbkdUDEb0CadNxP1r7CPWg4FPk8BRNDbaC0kKLhIxlERR23zsuWI7lGrZQpHsCBmdOA8pLBMxzLJqUE4AACAASURBVPToD1oH8qh1bhO5eP1D3x+tnzpt6rXSWuvUrlOXyUcvnPM5xgVjwI0BJnJ6cPeaEMxJSv9+swu1dQ3Ov9POHCG3kvV37VUTW5yYHjW1glSsmNNEbt9ZFX7UJEt5tFxETpedpr2DcZ7sI4jcdekJG2pxtamuRi2csHPkrBV9FFolvWmdaJm1Lh3HyMlRyqzP+1GbpT+bk5me4Jwepc0hctp7Fobw/KRno+SiItqaqCvy1C5IlVMWrfP8ql6MKXIuVoeqz5tK5Gb9aO+WJFaEtB26NQc0Lx3av3sSuXgY1Pa1MOehh7X2EeVlm2orQ+ONMELkmdrdgCF6UGgpleeUd07LPNxo59TZBF95LiNklG2WOA9iqK1XPiAltLAlUodWOdH6R5x+ykTOxqDuN3xknTAGNhcDTOT0xOg1IZiTVLrKeTNDq/peryMlSNc794zLVOUFrlXi2BXySAUxVK8XMKhJRJAiHWokL4wKvTnkI3LVYCTWU+K9un+uVySxR+sobiInPSA0iaqkf6+2qHOZj9WgX+TyKcKlZVoPkdvXJMJqIUE8dchOhxUJ5E7SoENSpDurbUqf3nv/Oe+37qFw4pleGVZdUPmPilyYYUfnBOxRliIfockuHFN70mnisalETui2QBKcmNu1RJIQu806RO5crRwbgwZRT5TIJdRHVCjxxqiwvyRpebJ9I/KcZWOx5UsYgWtnbW+aG+cag5aMcoA07Zevwr+xiTDdF6nD2P0jXj81Q7xq4I7ArMaW+RCjro3RF03b8mfWF2MgtTHARE4Pll4Tghp0tRfokArvBUa60EheuQtdGJ4NY6yt1J5oVHk6LBQSieQU5tKh1Qm0PJmhFisEMdRYjIL9pahVoUYZptRJ4LQYoBAFByvRPqLCuDRh6TCvCHfKEJoOrY4959pWRbdPHd1ELm23yr9amEH/RemVayZZVD4WJa+P0WrMg7RI4RKGKVSlw5FZ0pMSmhtF+4UOtFR55SDpydEM+fltT9a1SqE7SSrC0LoVMoh8OhXe1MRJy0m6V2Gz2EROL1CQNrA2UCZSpHOm1Ga9gcEmFO0vREn9gCJ6OrSajdpB6bkcbmtCe8tZ5Kv8LiJyvv2FKKrosOTZfCKXgTRNfKPmyWk9exMCJ8mUg55cMBMNg+shchlIpI/4ruqFCTZx17l2Ik+yQg3KxkKDoecIm03oVP3AwrlXv7VyQbX9DCKsbe7qF3Ii9NBhzP4Rp59GyMGhVSYcqU042P5bY38mcnpA95oQXEQujbZdMHLdRKhxfAC1XgsMsgpR7r522o/2U4rsPHlJkEAdrhzrbkALhZqUdyu3osvKqRMrBFua5GIL4XnIRsHpDudCClpF2FZmJ4XrdrmOEUSO8uwONKBfrCJV4VurLHp7xIBFumTo12xvHsq71WpNIl0jXm8Q0JOjKlsvdqCVri2GvBTmu6En+DCm+hpQ5dq7jUKZOs8wNDuK9tNN8u0JLm+MHCy0p8NVr+cbMA476g6N96K2hXK1NBHIQG6F9uLRCsRRNB/MQ/lVo+3TfrRckAsytoTI0fYj2rMk8grdA4LWc+JELi0OBq3QuaVfrVNbL/rtGvphJ6E+4uuS+Z76gYAwqomx26OstkvR/UT0BRPnXv3Wi0DFJcKkT28dRu8fhItY/ZQ9cjxxu/spf2dMbD4GUo7IbRaIduxNbLsPqo8SofN3eSWq0yaxscrJwR7jXZ2estP7RuNd4yJznuXQNVl52OMpp2zDniivtaJk+Wi/Ra0rmkw786K/W1Xck43cXXql5+Z2iLjtoMUQ5hYyJM/O/Ci23VzZ1qzHaPqNOB8Pg+tvx1r6SPz25WCPW/cRbVm/rPHrj9U/Euind1tWrs9OwWBdsC7ucQwwkbvHDZzQBMU64IGOMcAYYAwwBhgDSYkBJnIM3KQELhPULfY+cb/gfsEYYAwwBpICA0zkGKhJAVQmbkzcGAOMAcYAY4AxEIkBJnJM5JjIMQYYA4wBxgBjgDGQpBhIKSKHKP9WVpexurIKrKyK4+ryClZWV8UfViNv4ieCyCcC1gnrhDHAGGAMMAYYA3cfA0zkACytrmBxdQm3lm7jzcVFvLW8DCJ3guAxkeOntCR9SuMB9e4PqKxz1jljgDFwtzHARA7AysoSXvi/L+P8jW+j+ivfwvmv/j2+8U8/xNLKEjnpIv7dbSNxfTwwMAYYA4wBxgBjgDHghYHUInIrwCpWsYIVrGKZKBywuoKVlRX8UdeL+Pen/XhX+VfwrtM3UD3wIpaXl7G6vIwlCrNS2FWROi9F8jnuYIwBxgBjgDHAGGAM3G0MpBaRIyK2Sv+Jyi0LUke5cUurwP7Wr+PnTn8VP3d6GD99ehR/fDUoPHKri0tYvrOKpeUlLK8S+QOHGjnUyBhgDDAGGAOMAcbAtsBAShE58satau/ayh2srixieXkRi8uL+P3PT+JdZV/Bz57+Kn6mfBhPXZ3BnZdew7+euo7vFl3B61/7AVaWpUvubrNtro+f8LYVBo5fQn/zyW0xgG0rvfCkxphgDDAG3gEMpBSRW8YS3nr9bXzra9/B7MA3MPvlF/HNr30Hb7/+Jtpmf4BHPjOCnZ+ewK4LYxj45vfx1jf/GT9+9Apeff9f4JVr8yIEG9sjp99F6Xq/J71fVL1D9R2ZeJ5sxdhCGMPNRVvSyfT7W633YVJ7Pd9pujFCJl7ITu85fTx2OYletxm2OHZFvm91qD5v03UrXnS/BtwUnu9C83FTN0VoHpHvwC3czMGF3kFsvX/VrM/4TO8abvFjbNboC3MzGO5uwrHH9Ovq5LtN5btpjXujySreq2q85zXadVHPx6kvqxi1fRMIzCuZxfuAK1GQlYBsqs7MI5esdyBPXS7ddExsBmajlpGQzRLXRdR6otqHy2adMQbWg4GUInIrK8v4xs1v4s92X8BTWbU49cB5lH/gU/j29HexuLqCH99ZwitvL+LHdxaxuLKEO//yOl5pHMMrfzKEn8z9AEsrK3FCq4rIxZvk7vZARkRuPozhC4VbMrEIImcSDnon6cFKtN8IIrQwgfYjeuLeWCc91DIhXljfuD92OYlet54O47ynDJ2zYQRmgwj5G5C7yXZdG5HLQ+ONMJyk6B0icvvOomc6jNC0Hy0VxeJdtPQe2yJfE/onwwj0nUWO0FUcYuXW55YSuWyUXwsiNN6F8oP52LEzHyXnujA83ovyhIlcEVpuhhG4cQkl+wvV+4eL0TLutkts/DoxdpeuTdhmd0ket+35+5aM3e8I1tiWm27LlCJyq0ureOH5WZx+fwPK7q9H+f01eOqBOsz/n29hVSx6WBR5cbQFyRt3lrC4tISlt25j6fXbWFqiHLkkJXJb3HEiiJxVXwGqrwcRmlvLZJg8E0VmVS8CC6NorqfjBFrieArXOmiujciVon3yLhGGmB65AkEoQ9Nd8MUlQNuJyElZhuo28tDh1R6vc9sN42ux2XaTneVZ67jC1997mEktIre8jBd6vo7y3/wUyjM/jVNZ5/GJrBrM+7+F1ZUVvPrGLbTdmMfvPf0l/G51P2p7voZ//NHrWF5axvLKKpbVstXoHSGORy6rDJ3TYQSuVSJTk519DRiaC2KorgBp6TToB9F57iw6R2TILjQ/g6GLpfb16RnIP9VhhW9C8xMYumD/TqQqcPUsqronIEKdfTWqXHuSzzzQgB5d/kIYU/5LKNGTrvB6jKLlTAeGdVhsfgI9VSSfdweITuQykPa4DOvaocdsFNUNYGxOha+mR9HpKNv1+/wE+uuKZfuJQCwMoFrIoa7TYbBpP9pPF3pcl4E0d8iMrj1lt0cQphutqGobRYDCwvQ33ouqfd7tlXrIQ60/rDxx0jM3dcWZNxa/3AL4KPyodeHSs03klKfn2lkHDtL2X8Iw4eVz/1uEzh2hbd0OOpoe4n1laPcrbAnbd8An2hlDn267xyJyAj9h2PaOpUM3yXHbfgZDbWXI1/Vrj9zps+gZV3Zy6SwmtkX/svuBE89SFgqHWn1T12sdY8h3UOI8qg2UPabaPim9dt2Vdn/KOoueuTCm2g7b57RtfRlI21eGlkEj5OvAphozztg66T8Xifmpka7oeF6LzdT40HhKh5An0HJQymjiKjA+gNoDNikWY4SJw/QMOM6pcptPN2Eoim2d9oqFK/6NdZVaGEgpIreyuojpLwdR8dufxqkHavDU/Z/Cx993Di/e/Dss3r6N5i+/iJ0nvoBP9wfwrH8eu/+kB//rwlewdPstLNLbH+KuWo1D5NIzkOnrwtTCDDp9NMgVoHYwiMBgg5qs5GQSmhtFe0UxcnfmoeSCH4GFIHoq5KCo7++vL8WenTnYc7RJEMH+czJHSwyOc0EMXy5ToR0CtDlhZqPkOT+GWipRtDcHO/aWoXMyDIuEqEE9ND2A2qMUYipC9bUZ4VWr0mTPmthkZ4lJ5NKlpygkCGUG8htHYbavqKILY/MTaHlSlpV/fgCBhRnY7WtAZ9tZqR+TyAmCGER/vdQThe1azqscQPO6dOUVpJDZgTxkUshM6NQO+QrCRKSmrwElpJOP1IjQYMBNnMx2727C8IJNWESu3HQXjhnXxC13Xw16/L2oPVogbF3USLb2o3a31IVN5DKQW+9HyPiNBupCCjVbdZo2lvfTNY7JMqsU7eNhBEY6hC527CpGeUsXGin0HUufRpvEBBGDyOWSfclLGSf8LScap8zS9hPoJOxnaWyHMdamyJXG5qSNzfKr9MCi8ybjYNvRD2wdSVnyUN1HqQBE4v1ory9D4U7nNXHl8ypfyWyGvAsujiI02wWf1mtFLwJzQQRGLqFAnRN6VNfkn+/FUHcDSh7NA9mscdAM5UsdBmjM8OVjh7hfetgcdiY9jbfikK7TOK7JZqI9QQRofKD+ROVoXPmbRP/JJFxRfXMDqFYPQw4cqrod57RtjXHHaVunLaTN+BzrgTFAGEgpIreMZbzxo7fw1Stj6PrkILo+OYCRK2N449U38G+vvYH/+afX0HpjAf/06uv4wY9ew8Dcd7HjyQ787b+8Ila30v3rWuxg5o+lZ8N3dUYsfvARaZnzo9by/MhB2Rne0d4YeoLPFhOzm2CIieFGk8jREoOjNblrkDsnTHfnF4RhvBVFNMCKAXUG7Uf0vcY5Rbbc94s6HW007k03ya38PNbiXHRBuUmBq2VIU9fKz2YZ6rNJ0GjyWxhFo6U743rzOjXxdJJnw5q8ZD4ZeapoItKEqcT63T7nNfFROYJEzfXCIreqnp4q2wux9nKVncijYsglZMiSvw036kUVJ4V319alt43NyTJT6GUUjYoo2vrIQFosfRp6EffEIHKizZbX1NS512dTZokNt+0lyRhANT1EeGFTebPGnis27GvX5cC2F9Ey20bJ/m1+TGkv70IQw5Y3PAH5vMoXMru8gLodqj8R/qeudmHYIsC6nxteO1NOE9+qTutBjK4T5btD/ZXomQvC2Q8MnCVqM9Ue0+PqjSvlpVZeRhOHGneOc1on5rijbDt8cWtye7UcfLT7C+siOXWRUkRObj8iNwBefvsWlm7dxuLiMpaXV/APP3wDv/bE5/H+E134H+XP4wOnr+Gh8m5k//EX8Tf/8BJWlhexgqXEiJy/CQX7C+2/R9WTqx6Ms2hQpdCQDqlq8JgTmz6nvCriaV2RIjNspj8rIuUYHHV97gkmqxDHLvRieDJor9DTREwPqCZp8zpnla3k0/cb5+WgYHrkZPs8w08i7OLdfmtwMSewrFIRopKrYztQe0KFVal+8zrzsyGbJllEkszPui6vc/q3tHRJoihEbp+ThNtc9OBVhvvcjidq0E5hMx3GXrAnfee12aiiZPybrRArUI+TZ9f23jm9ri7sqJCWszz7GtGGWPo09CauJZ26wmRaD1G9O8IOKhxqkQbT3uZnQzYTe+ZnSyZFsLQtYmHb3Q+sMoz6xDnyBtagc4Q8dEH0nKbfE5DP6xohs21TqScpsyQoRHhoJa58uJBEXZKungotVw4OnevA0LjRXz11qK536FrrXB5Nz+C6bOZhg2i4Msci87Ou13HOo1zrwU7bNqq9tJ74qHXLx9TCQmoRObGH3AreevkNhP9iEgvPvICXXvgelu4s4p9/9BoefuqvUPf8DL76je/hr7/xXfRP/T0GZ/4eP3nrFpZXljYltCo62D4KywURoLyYq2VGTo73ZCEGPOFxkxPA1JVKmyRqwrg3R5AKx+BoDXxmuYfFKjoKnTZXlIpyymkLDU3EvAZUr3NW2XGInCNHTsoxdMEguUr+/F3kyTLl9OiIEaQsG7lHKtHcPSFy2wLdKvfQvM78bMhsTj7mZz0Aep3Tv0nvlXOCtMmp7fHyKsM8l3uOwshBDF9pgO8g6aQJQ1GJXAbSBHmbQedxSeqcnllv3Zl4MOu22mLohDy+nvp0XKOIchQiF5kTqexIK5nJ1hcoRKzzHE2Zzc+G7U3smZ8tmVSfEFt9xMF2PHxZZWqZpUwydy0B+bzKFzK7iVwGRCie+rSvCwHlQReedVr9TOdIRyKVQYV850bRWV+Gopg6VHILzPvRqMcG61iAXK/0CEcfNXTvZTMPG0TDlYk987PGnuOcR7kWkRPeekMut534u/FAyXrS+EqlY0oRuZXVVSyurODlmR+g56Fm9L+/CcG6Udx54zbefPtNVHSM4/c+OYju8W9j6OvfwalnR9E/+x28/PK/4Se3bm3S9iN2XlyBCGdRGFOH47wmC+X9EYOZDLmYXh83WB2DozXAGeXqAdMIYTgGYv37pnjk3KtWNRF1Lgqw2yB/p/CaZ8J5FFJG92fW+W0yal4n2uMOKXmHVs0wqkMnlh5pkFSesekulFsTpCKmB2nxQRg63OlVhnlO2GqwwWirYSdPT6EOs3eJMJntsSG5nPdqnZp4sEJgXuFoRxtd+nT9Jjye0Yhcep5aqWznR2lZxNG0jUNm2/bm9Z6hVRObuxsE+RWhPo3daNh21Oee8HKQKx4mjPMqnN1/nvpnAvJ5lS9kiiRyaYqstV+eUWkFGZCLVwZA53TYX9vVkW4RVYdKdqWHTseegka73PZci820jg0bWLhyhOw9QqsOrGejdtBYiONRbpqyrZ1OEKsN/JvZb/hzauEhtYjcygoWV1bx0vT30f+bz+D6jguCyN1+6y1B0r730muovPICck524rdOdOJo01cQ/sdX8JWZb6L3bwJ48/adxEKrUSe5DOTXUUK7zu1ST9uTHWrVqJyMxV5WB2RiszvhN/NIB8bIi9NWiaJd2dixtxTVV2jxglzxZk7cdmc2Jnm1Gm6osUjulVU/IPaY21SPXIx95JyLGbKRe6AMjX2j6FGLNcRiiIUZ9JyzE977R7rgy3WGTDOPtGJILU7I3FWKZtqzTu/l5pjoElzsoD2SapIzCZetxwzoyUWTNcdvBsmjRQ9eZZjnxL5lk104tisHuQdo3z25mlSHv8xrdT1y0QPt0eZcWJGWLsP1lCuWufMwStSKQQce9KrpkVb49uZAJKVfGQV5SGPq0z3xk35jYJxWWXbSysPZUXSeK0UBeYt35qPgaCWar1MbvTxyGYi7mECRooBKqifsN/qN7W3iYduLaKm25dCDgFpkQ95hKru2Ty7y0fvIxZXPq/wsSTSHLxaL9vs+oicYGT6lRQ523hoRdempt3PQpF0pB44WPxVVdGCY9uiLokOJE4V5vXAgK0/u4TfSi2oH2dKyyFWnCdnMi3AlsNihoJkWwUyIBRm5tBhCrxDXOIpnWzcG+Tt74RgDFgZSisjRFiPLy8t4+4238bedM5j/wiReCn4fK0uLwMod3Flexp3F23hzcQlv3lkWr+5aWrmN20t3cGtxBWobOUt5enK1j/Kp3Q6zGeE3Igr7atA/F8Zwo731RZrYfkSvzJOEa+hKq729iGurDKrLuf1IEGODrShXu+U7Jm4L6AaRS89GyUU7oXusrwFFtB+aJjJeA7XXOatsFVrVuXr6GPXNDpFbOAx3N+CQtUIwB8dabPlC06Po8dp+JOo2Gk7CJ2yTyPYjuv2qXV4kisoSixwcuWnGZEj3nqZFGEF0nsqOS+TSaBNWvdWCsHOpeBNDLCKXlnUW/fO218/GHtlVbZ9Cun9OvlXAjYfMx6hOtTqTvIeDrXL7kVj6NGwt6otH5Oh6I1fN6g8CEx2ofkKmAWhvk24veTsdW9PQ1jsR249MoPNir3z4IKw5trmIg20vomW1rQDHLgw43kQx5e+w+pXUcxz5PMvPho88bCQrbZVyzk7cF0Se9li0ZFDknx70DMKVX2W3l2TyHSHPrzcZtvAQgflR9NQfVqtaXZjV9Sdis2hjgQs/7u1H5BZAWg/Srr7nJuwHAlVuz3N2W522jSKzlp2PMeYl1p3VL+5RnKQUkQO9KnUVoBDrHdoAeGkVd+4s4iej38Grz83i1Y45vPXtH2J1ZRVYpaURdLn8TN/1v60DhUm4uPNtnZ6TWLcRixzegbYkQuTu0QGTMblFeItGEBlHTNAYA3ExkFpETjMxQGzuS5v8Lr12C/9S/Ff44fsu4aXfuIgfX5zFyqLcZsS43PFx6wZzJnJbp9stmoDu6iDjtcjhHWgXE7m4AyvjeI24ZCLHmLqrY+ka8bnNZUtNIkdeuRX6W8HSq7fwctFf4ZX3XcS/Zn8OP2qaxModJnI8EW3Djq5WO+vNod8xGzGR40l3syc2JnKMqc3GVAqVl7pEjiKmK6tYeWsJ/1o9jB/8Tgf++Xev4MfXv4nVZTuM6nDFqS/v2ASaQsBkHW9DIsn448mWMcAYYAxsOwykLJGj1Dd6dyptBrz82tu4/cNbWHz5Tdx5+5ZMpPNicEzkth2AmfAx4WMMMAYYA4yBVMZAShG5VDY0t50HOsYAY4AxwBhgDNx7GGAix25i9rIxBhgDjAHGAGOAMZCkGGAil6SG46eqe++pim3KNmUMMAYYA4yBtWKAiRwTOX4KYwwwBhgDjAHGAGMgSTGQ8kTul3/1PvxqRiZ+/b8/gIz3ZuG+zAc39EdlUFlUJpW9VmYd7fqNyrlVckWTl8/zUyVjgDHAGGAMMAa2HgMpS+SIGP3affdviLQlQvqojo0Quq2Sc6Nycefc+s7JOmYdMwYYA4wBxkA8DKQkkUv/9fduOYFzkzyqM54x3L/fDTnXI5dbTv7OAw1jgDHAGGAMMAbeGQykHJGjkKebZN2t71R3okDfNDk/dBpNf9mNZ/70w1HbvRa5EpWfr3tnOjTrnfXOGGAMMAZSCwMpReQS9XA98aFfRc3R92D3Bzbfc5eIByxRORMioEc+i6v9X0Lf5/88KpGjchKRiweH1Boc2N5sb8YAY4AxsP0xkDJEjnLNEiE+DzyQhe8//9+A794vjltB5mLlzCUqp92WR/DBQ59A5Zmn8fRnPou6Pz2BD2U+iIcefRwf/YM/xEef+pwkcm218vtHP4yHoizoiCUXd+bt35nZRmwjxgBjgDGQehhIGSKX6MIGInL/r/eXsPz1HcDf3Y8zh39JEMDMBza2mtUmXg+KRRbROluiclJ5Hzpei2e7voQ+8rjpvy+24nTmg6j8vHFO/yaOl3Fmn3dbqO5ocvH51Bsc2OZsc8YAY4AxsP0xkBJEbi1erpzfuB8/HHwPEHwQ+HomTj7+y5tO5IiEeXm/EpfzETzx9GU8L4hZL9qansaJQ05P23o8ctHk4o68/Tsy24htxBhgDDAGUhMDKUHkElk4QJ44IjIVh94jCBwRuZ/cSFtznlzB2T5MLXwZ56OEL6kO+vNaYJCInHTvQx//nCRx1y7j6Y89IsrT5UYcE8yR0/d5ycWDQ2oODmx3tjtjgDHAGNj+GEgJIkcb9Gqi4j6aIdPf3/trtjcu9ABmW9NAv+943wP47d/MFEf3/fb3h1B84QYC0zMJETmSyd1BYslp1/Mx1F2hsGkvmj7+CO7bf0Lkxp05/nuyje7vCaxatct+UGxm7JaLv2//jsw2YhsxBhgDjIHUxEBKELl4b2wgkvaZE+/Gmzd+SYRUV2cfEF657/3lf8L8M+/CK70/Lwge/f7JP5I5cyb5EZ9/6+O48JefQ+lvfQpfSsAjRzK5O108OUU9x5U3ru1pfDDzd3CmTefCtaIy4rt3LlyE7Ib30Esut5z8PTUHC7Y7250xwBhgDGw/DKQEkYtGXCgfrvPP3i29cKEHbBIXfBDL47+ClS//NDD8U1j96/8qc+b+7n74G34hqndP1pMYkaNr3R0impzm+Y/WdYqFDV+o+0MhR0m9/N53pQElmQ/C/f2+zEfwxJnPou4p5bEzSJtZrvnZLRd/334dl23CNmEMMAYYA4wBwkBKEzlakUorUykfjlapkidO/618LQOv9/4Mbn3xp3DnSz8tvXUT7xZETufTmeTH/ry1RK7kM92CyD37Z4l62/4cz9KiiK7PCqJnyxn9fh4ceHBgDDAGGAOMAcZAcmAgJYhctJAlbfqL2V/E4gv/3SJwIqwafBBE5IjEYUj9Tbw7YksSb1KUGJHzCmFGk9Osx+2Ru+9gJT79TCuebTH//gKfPv0x6Tn8gwZ8gYjclQZ8NAFvnJdc3JmTozOzndhOjAHGAGMg9TCQEkQu2iIC4ZGb/UUZRv1ahsiL0x652zf+i/DIkTeO/ug7hVspT44WRZjkyvk5MSK37sUOjhy5B6GJnbWPnNiSxCZuH6y+LDx4zzediCGz7Z3zkosHhtQbGNjmbHPGAGOAMZAcGEgJIhdtWw9B5F74jzIHjjxu478i/jSJI48c5cnRH/1G+8q99MVfAOXWOcmbJEJnn38Rga+/iNBCWBwDz3/S8zq612ubj2hyOutyrVr90Gk8494UuL8bz5R9GPc9/Ak0ddNiiE7UHbTJmrM853kvubgzJ0dnZjuxnRgDjAHGQOphICWIXLSNdmkFKiZ+FrcGfx7LI/9ZEDpa2EB/9F3nx1lELvigeOsD0v+XLgAAAn1JREFUrXKNRYYS+W0jGwJH7CP38IdRcvppnDlDf5UoefQR3PdwCZ5u65XeuOZPRH0tl1tWL7l4YEi9gYFtzjZnDDAGGAPJgYGUIHIERq9XX1GI9NWefyfz4Eb/A2D8EbnTRI4+0+bAmHi32KaEyI+5/5ybDMX7HutVWF5yRpYX/c0ODz36MZw48zm0XZPbkjzfVosnHnZ63SLLk7/Hkos7dHJ0aLYT24kxwBhgDKQWBlKGyEXzyu3+wHtR9gfvwd98+ucFqaN8OGuBAy10GP4psSBCrG797ua8ezWW1yuanF7ky/NdqzpH7ovdePb8CXwogQUOuuxYcvHAkFoDA9ub7c0YYAwwBpIDAylD5AiQ6b/+3pghUcp9eywvA08UpIt3rBLBo1d20R+tcKUjveVBE5/1HEmGeJ0jnpzOeh/BBw99ApVnnkbdZz6Lp888jUrfx/DBBL1wuqxE5IonN/+eHJ2e7cR2YgwwBhgD9w4GUorIEXATW1CQWChSk6BEj2tZSHA35VyLXNz5753Oz7ZkWzIGGAOMgeTHQMoROQLt2jxem0Pq1uPxuhtyrkcu7vjJ3/HZhmxDxgBjgDFwb2AgJYkcgZfywRJbWLAxIkd1bCT3bKvk3KhcPADcGwMA25HtyBhgDDAGkhsDKUvkNHCJKFFokTbCTeTNCvHCqFQGlUVlboTAafn0caNybpVcWj4+JvdAwPZj+zEGGAOMgeTEQMoTOQZucgKX7cZ2YwwwBhgDjAHGQAaYyKVzR+COwBhgDDAGGAOMAcZAcmKAiRwTubjboXDnTs7OzXZjuzEGGAOMgXsfA0zkmMgxkWMMMAYYA4wBxgBjIEkx8P8B11XiUrLPmO0AAAAASUVORK5CYII=;" vertex="1" parent="uknvqtSnCwPRW_PHpSGz-1">
          <mxGeometry x="23.93" y="32.2" width="432.13" height="227.8" as="geometry" />
        </mxCell>
        <mxCell id="xz6AxM3HopdPyTxjWoAX-90" value="email " style="swimlane;fontSize=11;startSize=23;" parent="1" vertex="1" collapsed="1">
          <mxGeometry x="696" y="1047" width="290" height="23" as="geometry">
            <mxRectangle x="696" y="1047" width="759.92" height="244" as="alternateBounds" />
          </mxGeometry>
        </mxCell>
        <mxCell id="uknvqtSnCwPRW_PHpSGz-5" value="" style="shape=image;verticalLabelPosition=bottom;labelBackgroundColor=#ffffff;verticalAlign=top;aspect=fixed;imageAspect=0;image=data:image/png,iVBORw0KGgoAAAANSUhEUgAABPIAAAFKCAYAAACXX3GKAAAgAElEQVR4Aey9PY4ry3Koy3GcsWznzuChgZ6CBnCtCwgPeGjQkyHnPUcQ8Cw2IEuGHBmye1ly7h7CBrSgUdRF/kRmRGRkVZFNNpvsbwPnsH4y4+eLyGRmrCr2YeE/CEAAAhCAAAQgAAEIQAACEIAABCAAAQhA4NsTOHx7CzEQAhCAAAQgAAEIQAACEIAABCAAAQhAAAIQWCjkkQQQgAAEIAABCEAAAhCAAAQgAAEIQAACEHgAAhTyHiBImAgBCEAAAhCAAAQgAAEIQAACEIAABCAAAQp55AAEIAABCEAAAhCAAAQgAAEIQAACEIAABB6AwGYh7+PtsBwO0f+Oy8e3d/D3cno9LC/vv4ulv47L4fAIdn97sBgIAQhAAAIQgAAEIAABCEAAAhCAAAQg8MUE9hXyXk9LLYU1836/vyyHw8ty+qtd+oYHFPK+YVAwCQIQgAAEIAABCEAAAhCAAAQgAAEIQOACAhcX8pKu/LReUOS7wI4bdaGQdyOwiIUABCAAAQhAAAIQgAAEIAABCEAAAhD4YgKfKuQtf52Wl8NhOf7SVn8sR/0qblToq/30K7taRn7a7+2UX4vNbd5WXuLNr8vqV3/1U4IU8nRkOIYABCAAAQhAAAIQgAAEIAABCEAAAhB4XAKfK+QtpWjXfoOunh9U4a38xp76Xbqg+Odf0y3n6rftZnxzEU8X7upTgu138CjkzdBxHQIQgAAEIAABCEAAAhCAAAQgAAEIQOCxCHyykGcLZaUAp4p2mYUt9uU2/ik9V9yL5Yxgc5FQFQ1zC1Pcs/Yt/LGLESJXIAABCEAAAhCAAAQgAAEIQAACEIAABB6CwBULeaVopp/GEwJhwW1ZFnnyTl6xlddrw2KfCJt8lif/5BVbeUqPQt4EF5chAAEIQAACEIAABCAAAQhAAAIQgAAEHozAJwt5+mm7WsjTv4+nj+XJOff7eLl4Fz2R55/ai8Ca38erxTueyItIcQ0CEIAABCAAAQhAAAIQgAAEIAABCEDgwQl8rpCXC3D26bfoiTzNKD8554t0FxXyJk8AUsjTuDmGAAQgAAEIQAACEIAABCAAAQhAAAIQeBICnyrk+aKcPy+M9Out+rgTlFdsz3u1tjwNKH1EWnnF1hYX2x/j4DfyBBOfEIAABCAAAQhAAAIQgAAEIAABCEAAAg9G4OJCXim+ScFMvC7FNf1UXmnX/wBGKbT180W9aisFt32/kVefyNNP96lXbUuBzxUOKeRJoPiEAAQgAAEIQAACEIAABCAAAQhAAAIQeDAC+wp5+rfu2rEqxhmnazFv2q4W4Nr9VAy0BcB9hbykNNBVC4OlKEghz4SGEwhAAAIQgAAEIAABCEAAAhCAAAQgAIGHJbBZyHtYzzAcAhCAAAQgAAEIQAACEIAABCAAAQhAAAJPRIBC3hMFE1cgAAEIQAACEIAABCAAAQhAAAIQgAAEnpcAhbznjS2eQQACEIAABCAAAQhAAAIQgAAEIAABCDwRAQp5TxRMXIEABCAAAQhAAAIQgAAEIAABCEAAAhB4XgIU8p43tngGAQhAAAIQgAAEIAABCEAAAhCAAAQg8EQEKOQ9UTBxBQIQgAAEIAABCEAAAhCAAAQgAAEIQOB5CVDIe97Y4hkEIAABCEAAAhCAAAQgAAEIQAACEIDAExGgkPdEwcQVCEAAAhCAAAQgAAEIQAACEIAABCAAgeclQCHveWOLZxCAAAQgAAEIQAACEIAABCAAAQhAAAJPRIBC3hMFE1cgAAEIQAACEIAABCAAAQhAAAIQgAAEnpcAhbznjS2eQQACEIAABCAAAQhAAAIQgAAEIAABCDwRAQp5TxRMXIEABCAAAQhAAAIQgAAEIAABCEAAAhB4XgIU8p43tngGAQhAAAIQgAAEIAABCEAAAhCAAAQg8EQEKOQ9UTBxBQIQgAAEIAABCEAAAhCAAAQgAAEIQOB5CVDIe97Y4hkEIAABCEAAAhCAAAQgAAEIQAACEIDAExGgkPdEwcQVCEAAAhCAAAQgAAEIQAACEIAABCAAgeclQCHveWOLZxCAAAQgAAEIQAACEIAABCAAAQhAAAJPRIBC3hMFE1cgAAEIQAACEIAABCAAAQhAAAIQgAAEnpcAhbznjS2eQQACEIAABCAAAQhAAAIQgAAEIAABCDwRAQp5TxRMXIEABCAAAQhAAAIQgAAEIAABCEAAAhB4XgIU8p43tngGAQhAAAIQgAAEIAABCEAAAhCAAAQg8EQEKOQ9UTBxBQIQgAAEIAABCEAAAhCAAAQgAAEIQOB5CawW8j7eDsvh9bT89v7/Oi6Hw2E5vH34O8vv95flcDgu452h6YNc+FiOh8Ny/PUY5k5jpsz/eHtZTn+pCxzelsBfp+VFjZU8RqJxdVsrVqQ/Vo6vONJulXnokOep7zR27xP7/17+/e/+Yfnn/2x4Vg5K29e//cOS//d3/7H890prufXf//pPpX3u90/Lv/+X3PnM5+/l9FpiuPqdksZX+j7S/7vx+MrzrNa39R0h35muzy1s3prfI9uLHXu+t2tM1Hw2Rni7zedsGDWmK2lsnTfW7bx39tiseXeWzo08OEtWjOGhr+5Zvzy0gxgPAQhAAAIQgAAErkRgtZBXNsPj4r4vwv297QX8lez+QjF2sf+Fii9StbkQzhsJCnkXwb2o0zgmzt4wXqT3nE6PleObnl2ywd4U+rgN/vzHUpTbLuTVIt4//u/qrD+PGZQi3r8sf0qvXNTr53Gv7auz7x/TsxZGfAGkfEf57yfT88KTOp59obDm3Mv78M9eoZ5dvoU9Ny7umN9n3xH7mI3z2WjRdpuZDYXLBd9PF435T857l+jcEZ+R58+5MsuLn0MATyEAAQhAAAIQgMA+AquFvCVcqJZF+vFXtAgu1/ZuZvaZeO9WkZ/3tmmuf3MhzEZiDu8md8ZNLYW8m4DuQsN5q9/+OUf/e/lnebLubzueyPvPf1le/+aepvuv/1j+3l8zAIuOv/9X/dxeKQDaa6bTrpM9xa4834VPh93ouyjnVlxo2mOvOH5OW+mz63PH/D79jljxrese57N+T46220xtWJZl7Z5oGD4vGvOf/G6/ROeO+Ay+/aALF8X+B/HBVQhAAAIQgAAEICAE1gt5S1mQm8JcW+wH94JFal6YtdeJ4g2QGNM+sxz9qpTuV/Qe3/vrVP1pjLIwb68r+acmmoJ6IL786rJS3y4vtQsW+3UB3/QEG0nrd/CKspcRvI5cNnudg7Wr+GD0vJ6W0+x16PrqUbP5cFh0XI2cgYEHF+hOMTa8JT8+1Otxvo2wdXHbwdOwyPninr6pfFs7aeNyq91vLjpbhri4+8bnJqQeuLZVVo7r62n5yK+hS3x1jpfue+JvNCbfJAdcPGx8va5ip2Hh83NHTGz8l0X+IaDnnItRkJPGBuOcOvG26Ri4+A42JTG5jWcg15WNXo9hMJuHyvXus51PJPb6uS0fZz0u+/zjcsnYoti0w1rES6/G5mLcdiEvP1k3vEq7UZSbFPpiWc24cuD5qjjafLVzVZdSWW+ykB5jbIafh/A2+blwljuiYudnibnKNenn9Q++jT7ImFnPI1GwUijLuv24cPreTmU+N3btadP1p6McXxVvc7cyEL/yPc9Fx8WPeWWbzyM7H9h5z47N4tPL+8r3V2Cn6DO2a+d25U/RHa5xvK8HG6+s/+2j8G3rrpJnYluemxSjYp6bX3RsIpuDa6Jb3F3Px9jHLEPrlrjra6KATwhAAAIQgAAEIPCDCWwU8oIFd1rA1UWVXfiW36iRe4lpWTiqzUpdhE4XuanTbIHYCiqyabALWNnw6o3ZoN8HWhaJejE82GgX+1Kc6Jvtao9aaA6L0VoMbLbNNgBKRlkEKx9rn6535NsWzkqOd3nkKzzPi9Omj7UInDYNLd6DD7J5UH4O/HfYl/so+5PTnnGVu5qfg301p1vuVXvVJmgzx4SD6tPi1K6NObQn/nFsx9+uHGwcGH/fHJ/52MfByG6I/SCk+NtllAaZk8RkyAWvR/JS5W4Qaz/eclzV+CyxUTIGvXvGyOCgvbCzkJdfwW2v1YqIjddr81N842u0/nVbkdY+aw72GHi+fuy1nuagjaU2Rs1tdVLlS3zTHc+6nrf5qhWaVXxkLnf/EKIU7Tosdsdz1pxJ4EPmqOzz54E1OedUDkqTdL3rTlfHmJR81XPMnjaioX/ObCgt3PjcE5egzaijjqWWA+Vc4m3HZvVr7fvL6SxsVCy6u/1oR3wad70uSRKCvkVnz6NyruJYbUzfwy229Vo7l5xuXPzawnJKpogeYSc2i8yBxaBT+FpeuZ/kptiu7OogOYIABCAAAQhAAAI/m8BmIa8sHt1CURZWeWE5uVcXYX2hV0CbhVrAPt8X+XLfLGDrAtC1CTdGdYEqi0sR1z6HxWW5Y220i1h7r0oyvtr2osv0M/5IC/1ZZHi7jY9Gp/QdN1Vyp3163f68NjT2ts5ysMNH2QS6OFm5kZ8uvnvsy216HmYrPZ9IjmtjN3Lia/80/NvlyId2s2+GFYdQjrEvlhn206qMjHrD+SjNozjIWLX3Ijk74h/ZIsrz5yU+utwQed5Hfy7t1Ofoo/VpvN8LP4VTZEvsk1Jb/hiQ26gKd2ln4xzJjHRL7+Dz2xXyJva7uFkOgV/1UmknT7aWTz93lqKdLRpI8UH+gSXLkdiIOmdTuVxiop+6XP1jHCJLfUa+bedclAtKaDrcHHe9CGPtr/zUPBXLqr5Lu1Cfa+NMTKehr61dyQ+J4a64DHEqNvixZfXaNlZPnKOmv9JZ4unzqznUD0Je/XY5WtEt3KWLk5ftM0XtKsvktZUf5aL8w2iJgW1f7r0sL6++OFj9V1zEzPRp9XiZpWXnu51DWjbHEIAABCAAAQhA4KcR2C7k5UWZLFDtwlcWe2WxbO/ZRZvCmheeruiibuvDsiiVDZrYUBaAssgv7eNFYbqXZfjFrygxvslF2QyJjdqvcmx1p36RTVl7/ou3bcPUFtNFjvlXcqU+3kBJIaFymHDsC2EtUB27hf96nIS56j8cdl+yn83HmIm1T7MVwTaWu+yLWPjNxGYbq1es6Z/z+6s5FhQ0s0+NU9Wg46KPuwH1CaKVmAQ+rvP75jmufc/H6+NPCjLypJXfxBtxjrHltK5Hb279XJBzwb3WrPWa2DsbWjuTu9tjpPWbHXy7Qt46X4mjjcnMOX29jtH2SuFkrFS+bV4Ovh+KbvnuUU8Va3XpOMewtxPbfTN/Pvq2zkTybCu/pt8dygA7B/cb4rOMm3zu5yk3n+1p0zX0o5kNpUWJo/jce0kxqPMWW9fHfGHb4t18smPL+hLbYOyuefTy+rL/r2P7fGm5qopi0/VEJ9HyIPfveW7sq83zNZPj+rtMH3f56Uj3M2yS3/LTEJWlub9rXlvj+1L+CnWLk7WLMwhAAAIQgAAEIACBZdku5OlFZV64yua/4GuLvXyvLyjzwk4tUtsiOl+zMkwgzEK3yjMLw2gBWBejM31mEau0OZvbnaxPbNSLfbchcPpk45GZyL26GM3XzMJ0tLltSgyDvmkpDAuTwldsbJbbJ3765X5kWNaNkbGrNnXtuoBytO1jFCf/JIZmKxoqlxozs0GQJulT25ePHYscW7UB32wT29tVjvEyOT3LMbfxTfJCnwZ/fNzlvI+xbls9CnzcNw51HL5Pjg/+1Sds2zhpDWzOrG/qpVPxs4xZ119eNZMx7D51HxnzIjV9DsxVbpjYB/HKckzu6tiIFm+vXJ98ftNC3lYcC0c3ricuDpcrw15Yc+M3x8RxlD413tk+E4tBi7lQ5sSV8alaj77tG3dJxFp+mXlR6dOH43eR3LU8Zu3y9ZrTe9qIdP0561fa6LEp/4Al81+d031c/LkUomTsht/DdmyZsanXPcpwY3fLl/J02q6nMvU8r+TawxKHYW7JfYVDtDby36+VZvrdXDUHyT88lmtuXAgv+ZR+2de+9si25WtlfCYuzd5d81rsY+abdL+WYl6TaQFxBgEIQAACEIAABH48gR2FvP4vs3ahW9i1a2nxpgpCZbNx7ibMbiRadMziN1oATvo1AZMDtTjVLazterHvNhi6kxzXxb3fpJoNgLRtn9V++U0c429rZA8mi+V1Pa4A1jaFQZwm8rMRu3yM4uQ3GpqtuGdjaWMhbcSPandkq7dxs43VqzTVw637Y49yZezXxozuku2LN2e62epx4OOUnxGk4/CNctzYmE5mthXGbdPnYz/IKRfaWBnaz/RoQU6nvqWOC/++yTWx1zFXfexroDo20mjMKbkTfu4s5MV/oOIWf+xixtcy3Ze7ocf5YotvOgtZW46mvYgdckNuBJ9ntB19mzEJ9KhLPr9iP1UHKXCp7+p+1/Iwudoand+mdVUHIWu5nzn2gmjY1rPeOq+yrSw7tqy/NhfFNNPf6CyybMFMeqnPMA/V/XwY6bbcWw8nz9hXG+VrUpBT8k0hz9xv0tVBZ5XklfWNXJPP2tzZ1ISYuEY+2vVBye2eB00OBxCAAAQgAAEIQAACe57Ik03QcTnqf3UVeHlxVu6ZRexkMWcXyyJEPt2CsF7OC1Epcu35l3IRN2nbbteFeCsAaH1tYattmiym9ZNC2W9fGCsydKGz2dAOlB6zQWgN6ma0yg7bVPvCTVqV4+Piz2uzaEPQLNnl4/ZCXQoztujpGO+xL2qTr8mGo+fwR3OiP+kh+ld9nm6AYz+7GuePFE99jLQPYWwnPnRFNj/kupYr1wYbVO4FTxCWbqpNlvkFOa7sLYcjy3zd8/Lng5x6obI5vqVX47Q/Ez16nG/NLUpnzqs6n5j5b2Jn2cCKPYp7kzmzrzWwBzsLeUv+wxX/tPz7f6nuua+7pm4vS/nruH//r/+trm4U/2Y55nhYDkq8HLr2clk+p9ylQe2vCxr+u6DY0OeR1Tkiy9tXeBh9m8U0ir84UD61n9co5DUG4dxR7Gnf9XvaWHPz2RpHe69waTZVWT4uw1O4u+YoyzbLbPNyrNfY5vKv2LQR/5CXBxTptrZKj2xPWxvZQphp09Yz6arNNeOTdArmt9zu7bgc21xZ7cyvFst8NX6vikib85GP3n6XayKITwhAAAIQgAAEIACBnYU89aqZFD06u7rY0n/drd4si8ztBV6XVReYbTEtxYvyOknRHS8ApSjUNhhSrGiLzq6lHclGTi2Ex42QW0DXPnpjYRbCs/v5VZXKIljM20WuvD6lNwXFjkGv8q/ISK+lnJbfzUl3MOiuzJWcwqBvXp2E8a89SpFL+xhsBJIcw8oURkRLtadtPHbYNzAPcjLa2NV+LacHOZJ/Eocqt9kmcVI5Lm60T+9P7eNj5OIybgrH+DcVchD5KMx1fL3fPg4BBxO32X0df+dPMvGSHBfX2meW259wa5tSzXPwr/V2Bz1P9LyRG818bHpKXPV4lDnIXHO2ZAZNRh0Pev4Z9BYbW45m48acco7Z072FvKX+hdq/+4+llOU2/mJt1VL+Qm0v9m3+xdrUb0ccfb5Yp8pZ+Y6R8alaZI7qetXXOcq80ufLIkuN5RqL9Ap9i6lcU3OAaM39g+tyX3+Gvg2xj+fLZksSWPs0v4Jxp/WmYzOW1c3RpspoyFf9quaeNkpJPVy3QcVN7A3mrygujcOMpZ6j3Lxnx2bxy7AWW4SHZy8FMrk/uj15MtQ3jHSPnGUMJQ7id8R1zMsqq+Xqzu+1Oob0+qLkjM6H4kvWuTqvRT4GuTmMW8+KcwhAAAIQgAAEIPAzCex6tbZtlvViWvEaFm3DPfldl77gVE3codpcy6LbLMrjBWAREvR10s2pLMTfT+XHlbM+u4mQzbkslHP/2q/9RppfuMuCN8sri9yy4FWyfRu96K1GtkVyleM3FalZYV/5vp6WU/o9HG+Pcbou4pPMtpB3cgJbjIh04u1/+6iFGvExjlO2t9m3v0hh/IzsM/YkG5zsfF9t0pMPEv9f2jufQ+KPtPH3nUxppj+bbUWW3TDWhrmN1bUn/lpNiUlsj+Xnx6FjlYR+oxw3Pka2qTzObcO4DlLyBeFixrc0XWUQ57fMF21u0EUgKWa2/C+KfJytLUFspGDg/Ra7/eekkLf2Ku3r3/5hyf9rRT0RWp7A++f/lPPyWYp3tc/felHPtnJnnq/zp3CJ89lIauOrf89Ec6DnnObTEn/RoebG9l1Qx7uxzbfT/9BkLJueTH3zTFyubOVX/66287s2RHJe52g5Fg66tfP17bScXr3sPW20TP99o+IWrjGc/Dz/j3FpfgkznxfDd5QdWzkm0nfPP0RF80zVGX1XZwLBPG/JpLPi7yij+izrisSq2iBtM4PmQ5Gcr0X5a64Fsr1hTle+Xf21c1bp6MebbRP7ONovsa+5mW2w35PeTM4hAAEIQAACEIDATyCws5D3pCiihfiTuopbEIAABCAAAQhAAAIQgAAEIAABCEAAAo9NgEKeei3lsUOJ9RCAAASW5X/+j/+/PE0nT9Xd8fP//r/eCQkEIAABCEAAAhCAAAQgAAEIXJEAhTwKeVdMJ0RBAAIQgAAEIAABCEAAAhCAAAQgAAEI3IrAzy7k3YoqciEAAQhAAAIQgAAEIAABCEAAAhCAAAQgcGUCFPKuDBRxEIAABCAAAQhAAAIQgAAEIAABCEAAAhC4BQEKebegikwIQAACEIAABCAAAQhAAAIQgAAEIAABCFyZAIW8KwNFHAQgAAEIQAACEIAABCAAAQhAAAIQgAAEbkGAQt4tqCITAhCAAAQgAAEIQAACEIAABCAAAQhAAAJXJkAh78pAEQcBCEAAAhCAAAQgAAEIQAACEIAABCAAgVsQoJB3C6rIhAAEIAABCEAAAhCAAAQgAAEIQAACEIDAlQlQyLsyUMRBAAIQgAAEIAABCEAAAhCAAAQgAAEIQOAWBCjk3YIqMiEAAQhAAAIQgAAEIAABCEAAAhCAAAQgcGUCFPKuDBRxEIAABCAAAQhAAAIQgAAEIAABCEAAAhC4BQEKebegikwIQAACEIAABCAAAQhAAAIQgAAEIAABCFyZAIW8KwNFHAQgAAEIQAACEIAABCAAAQhAAAIQgAAEbkGAQt4tqCITAhCAAAQgAAEIQAACEIAABCAAAQhAAAJXJkAh78pAEQcBCEAAAhCAAAQgAAEIQAACEIAABCAAgVsQoJB3C6rIhAAEIAABCEAAAhCAAAQgAAEIQAACEIDAlQlQyLsyUMRBAAIQgAAEIAABCEAAAhCAAAQgAAEIQOAWBCjk3YIqMiEAAQhAAAIQgAAEIAABCEAAAhCAAAQgcGUCFPKuDBRxEIAABCAAAQhAAAIQgAAEIAABCEAAAhC4BQEKebegikwIQAACEIAABCAAAQhAAAIQgAAEIAABCFyZwL5C3l+n5eVwWA7qf8dfyhK5//ahLnIIAQhAAAIQgAAEIAABCEAAAhCAAAQgAAEIXIvAdiHv1zEX8F7efzedv99f7DUKeY0NBxCAAAQgAAEIQAACEIAABCAAAQhAAAIQuAWBjULex3JMT+FtPWlHIe8WsUEmBCAAAQhAAAIQgAAEIAABCEAAAhCAAAQagfVCXvA0XuupD6SQ9/qiXsE9LvpFW3mKT17P1U/4fbyl13ZfltN7efovtzHFw1pQzK/2vizHt/JEoH69t8ior/++npb+/OCyrOnWbnAMAQhAAAIQgAAEIAABCEAAAhCAAAQgAIHvSmC1kCcFMF0wCx2RQt6hFu/kXIpxtSAoclrh7q8iTYpwUtyL778sp9y+F/Viee4pwmrLTHboDxchAAEIQAACEIAABCAAAQhAAAIQgAAEIPDNCFy3kCeFu6UW01afjJPC3LL4wp0tII6ytu4Xea6omJ7mc/Z8s1hgDgQgAAEIQAACEIAABCAAAQhAAAIQgAAEpgRWC3nLua/Wzgp5Vc6hPrHnC3f+3BTq/NN9S39VtjyR15/Qk9d2y6cvFOq/umtf+53S4QYEIAABCEAAAhCAAAQgAAEIQAACEIAABL4JgfVCnjxZ1wp0E6uHYpt9is4X6rbOTSFPbFBP023dn1i5LCJrzx/wmAvhDgQgAAEIQAACEIAABCAAAQhAAAIQgAAEvpzARiFvWaKn8qSQJr87t+wq5B2W/ASdtE1/3ML8Rl4/F/mrv4F3qPJSeU7+WIb+DT0p/PmnCqv+ZvuXI0chBCAAAQhAAAIQgAAEIAABCEAAAhCAAATOJ7BdyEsyW/Gtv54qRbasUu63J/fsE3nmSbhUgHsrf51WZNhCnH91NmnQr88el9P7xl+tlT+6ITzaq73V/manNOATAhCAAAQgAAEIQAACEIAABCAAAQhAAALfm8C+Qt4386E8sdef4Ptm5mEOBCAAAQhAAAIQgAAEIAABCEAAAhCAAASuTuABCnm/l9NreZLOPsHHH6y4ejYgEAIQgAAEIAABCEAAAhCAAAQgAAEIQODbEniAQl70ai9P433bjMIwCEAAAhCAAAQgAAEIQAACEIAABCAAgZsQeIxC3k1cRygEIAABCEAAAhCAAAQgAAEIQAACEIAABB6HAIW8x4kVlkIAAhCAAAQgAAEIQAACEIAABCAAAQj8YAIU8n5w8HEdAhCAAAQgAAEIQAACEIAABCAAAQhA4HEIUMh7nFhhKQQgAAEIQAACEIAABCAAAQhAAAIQgMAPJkAh7wcHH9chAAEIQAACEIAABCAAAQhAAAIQgAAEHocAhbzHiRWWQgACEIAABCAAAQhAAAIQgAAEIAABCPxgAhTyfnDwcR0CEIAABCAAAQhAAAIQgAAEIAABCEDgcQhQyHucWGEpBCAAAQhAAAIQgAAEIAABCEAAAhCAwA8mQCHvBwcf1yEAAQhAAAIQgAAEIAABCEAAAhCAAAQehwCFvMeJFZZCAAIQgAAEIAABCEAAAhCAAAQgAAEI/GACFPJ+cPBxHQIQgAAEIAABCEAAAhCAAAQgAAEIQMed4ZQAACAASURBVOBxCFDIe5xYYSkEIAABCEAAAhCAAAQgAAEIQAACEIDADyZAIe8HBx/XIQABCEAAAhCAAAQgAAEIQAACEIAABB6HAIW8x4kVlkIAAhCAAAQgAAEIQAACEIAABCAAAQj8YAIU8n5w8HEdAhCAAAQgAAEIQAACEIAABCAAAQhA4HEIUMh7nFhhKQQgAAEIQAACEIAABCAAAQhAAAIQgMAPJkAh7wcHH9chAAEIQAACEIAABCAAAQhAAAIQgAAEHocAhbzHiRWWQgACEIAABCAAAQhAAAIQgAAEIAABCPxgAg9fyPv9/rIcXk/L7zOD+PH2spz+OrPTzuYfb4eLbNop/uGaZR6Hw3KI/ndB7B4OwG6Dfy+n18Lp+Gt3J9Ww919l/eu4HA7H5SP3LH1e3s8dQUrtrsOP5fhFsU5zwmX8djnSGn2VnqZQH5gY6hsrx3+dlpe3EvXU6tK5c0XDjW7VvFa230jRjxN7lxxwuXsNG7KM+v1y87Gf7T9n/fCxHA+H5fZz7N70LfbcnNNec2gHAQhAAAIQgAAEIHA2gZ9ZyDt7IX4eVwp5ltecR9lQHNigF2Cp0HI4LseLC8GXFDy+ppA3zwGbK58+ywwPty/kfZWeTwMRAWNuXKOAItJv+znaflt9P0f6XXLg2oW8rx6LZ68fvlsh7+fkN55CAAIQgAAEIACBZyVAIe8Gkf2yosUNbL+FyFUeZ2+KbmHh95DZOF3M5JKCB4W8i6L/1cWDi4zUncbcuEsRR5u0+3i0fXdXGq4SuEsOUMhbjQk3IQABCEAAAhCAAAQgsEXg+Qp5sknIn/11TnmNJG9c1Cue5XWX9C/mL8vpPb1ymPr012bi9hZrLsCIzNfTcjJPVMWFkla0UaKMnMP4VJG9321UItxh3QCLbYHMxXHSvkc2JgX5unqKzjMS1mLMTE6+HxZE6pN6YnfwSqZlYV9bks3pR3rtWmS0V0nFqmVZqu7WxumJ5TjuXkagZ4tPsUg/taGPlb3p0MfL2Lyz4CFjJIuO8nObv7NqZNk4+BxU/Dw7lVNJvuSZibXx11nh2Sh5PgZ7XnMzevWrcSt6fB87FhLXffOM7ef8TKcmhiVex182bt1He11eq96V34HqdGnVz2SbzINp/E1ilvW/ndrr5P3JXJcz0kbF0+vvvkYGF3nH9/TEq3t1fSMHl8XZ4ubQbMfbh+UR+Luef0XHy/tHZxFx87a2MdZ99nq28khyQL9Y79lGMtbbjMx6bH3u2le8s9yBX8nfMMZ+LLa+cc43UjtzNLc3OmT8qnksNfKxUbm6LGL/Kb9iK9831h/JAR2JOs6aT0mRYxuMje02xR6Jq+SA/b50/vkxL+Pb2NbocgABCEAAAhCAAAQgcGMCT1rIs5vHsumQ3wSTjYReqMqiX7VpC1fVri7W9QLcy24bqbbA3bNAr4vz1qdvDGSx7fVIQUfuj3lSZeoNRd6QKH/8efO5cgjuy6ZE9BZ/lcwZI+2bNnbQUWOh7Pa+53Mtr+q0Nu3JAV0AHGPQYtlscW2c3uSWt20Pn4zDcfByojZtw+bta+catDrOuiTXi089p7f5K0nlcAeHwZ8hTxxbYZkKGs2fsc1uW1RxXjbd3edByhBH6SM5Npy3DbZwlXlGF+TjeWZ3jmgzTQxFrtI149tY1gLKuXz3+Jlt03HThvdjGV82DmOMc+4oO2e51GLTVdSjKlPnQLozY9TmltpPMSvzbp/vvG1tTDYZUvTsfaZ6dZHQ21bPtY+ewyV5lPs0W4XTWg6P8RF/im0BM++LyV1byPN8cwBze8XPx9ezqed93pAYjH7pNl5s1z2OK/0PXuJ/z2PPaP/47DKKNTbGnm09V2Oj5V/L2ahNsUdyScZhZ+HtH7/XWt633AnpcRECEIAABCAAAQhA4EYE7lrI+/PPP5c//vgjPzWVPtP5uf/ZjYhsnt2i3y/0h41BWdiaRbTvUw0ri966IQjb+EVwOTeypUghi+Asx9msQYR6xsW17iIFN69Xt8mL8bbgr3cMm4CL2YQF9+VH9NXTInYzYiwoTygoGwzf1lTrqXxVn9asHhQZnucOGY5zaIvmo4+9Eflc6+wNIrkDoyxbbSADrl2iHG2zyS1NDG1+RrZt5tImhzFXB3+TYY5/bqPyKNvu2ojn7dPf9+e1YeynSNnB0cudMLB+RvkQXZMimyo8iGnyaWJYZPSNeGlkfRx9sver4IkfojYstPj5bEtGFbZfv/Zv9KPZNj2I+9jY1M4mrnFstJrNHDXyek/r+w77NpnGtlo9Xb8c5fvyPTTRYThlf/zcKtJkDPv7zr+sp+e2saE9vdafTDP6lap26BjH7R2fia9NZj5wdtebhWn3MdRnbNL52zXY2BRd/vvayHbcsqSqp439PW0qY1vI6/HIcjWfMObVJ8md7hZHEIAABCAAAQhAAAJfQOCuhTwp4smrJun83P/sJkAKeW5RahbV0qYvxKVQIQvbbINeyGqjtKxo0ew3tfUJlrUFul3Qa2XleHp/ol8k5E1A+tf6HYvt1ja1V0+umI2EPI0jRbRVRp2vld1fd85xF1nZ6HjjlG5lGbVt4ZHkuDhXx4ecqNe7DLepq/f90wyhHONz3czo1y6brCjP6k2/MdI51foHLGq7xM3kqu+TY+g4a1Ymb/QGMtBZZXd2TZk62OAg8Wt5uM5fxkqsU9urTJBDz9LESxpJwWHGUQpp8xzzRcf1MSpjofhtYrdqn/RTdsuhiWEgN7UzeTbGdju/RVn/3OWnsa339UeR/uhaOC5zjsfj3+uR/pJX5f4ZObgyh27m6Gp8Jf/inM6y3ZhJY9/6Ub1d1TPPI817T2ynbUborTAv3++zYpO2IYmJ/A59Fp1mzI95Ls2M3F05OhlXhvWePJrICcan91PbrI/FJ8ltYbunjV/veP5ZtvJxFvNYV7eMIwhAAAIQgAAEIACB2xG4ayGvLfBV4eFcV4dFaLRANwv9qMASLLQjOck4JWu2wLU2bW/SbPuRQNHjCzNyvr6ZHfrqwln2UeTUzZ5awGdL9Lnyvd+T/v6zbx7HBX/dbOniUhYo172sej613RYrZzyzHVlGEG+tXxcM20Y6N6i/TdZ9axsplcOtUGP4ep+6jCFGStZYrCy297HT5TRbNKdqtvnIdkne6Pw8g78RmE7Gvo3DZHPefbBsZDPb46WVaXv19Xoc5qj4qtr7dupWO/Tx07ng+s9yzj7BFuSd12Fir2PbrCoHJoaB3NQq2ygyanxUboQ2Z7nSx+mUp0I1B2mi+xnbpMH4Gekf54rSb8iFrEPlTWRTUxnljB9HSpYrlg3jUzEc7Mo6lb4ZC5M/qn2z2Re00o0aQ5UjbYx5HqqN/ocZJb5Ymn5HtLKL4pEbZdklJ6ZtmmBnY2ZVrwk3x2SQqfNW6W4q/MEOlqmLyS1ngxeZz41c1ULbV59uW5/L9o9PmftEm7ZZH8v9lhOV7Z42FPI6PY4gAAEIQAACEIDAoxK4ayHvcZ/IqxvdyWbALqa3N2lloxgUG2pWbd3fm3xFjjzR4TZXImTYOJVNSNpgDHYMbUWI/bQ85F7dSJsN+MQm6TL7zHb03+TKdhq5qaOW3X2yIm2sQjmrPlcd8kTjalvRrO2Sa/VztpFszSrDVhBdkdX6SCFb8k37vLO/lhUeVznCwW+ig9fnIjE5b2Tz3xrMYlcbeGazGJjNeBM+P3A5pgv6qdMwNkRS7iesi+2t+JLazOyT/rPPLbmD7DG25+f3Tj+NbTMHqiw3TkObzNgN5GV9ffyPLXSOy92NPJJm7rPEWeZQ+6Rwb6pkz+Jr8i+yzxWeuvB65MbYTM/Qz17QvItvkquqnYrntI00D+1wuafkpW7ahiKm84i/O0RZ/TRj3ulSTc184mxQzdRhMF7TXeOjirXqaQ/3yOk+677af33c21h/97ShkNfpcQQBCEAAAhCAAAQelcBdC3m3+408txkxC32/EE+hCxbavk+NsNnIhG3qwrptUO1Cu4hxbczGIEilyf1xAxT0dZf6ZibwWQouqgCTupfNwXE5vrrNcui/8O0xiDcX0q5viruu09J/ISldLbz80wraNc2ixMg/VaT9jWIiTzDJ627RBlNs9rK1JUrPHj6zNlmkyxOtRo5zf7Fn4pe0lU+zibVs41jZNiJm/VNxaDkkcZ3ZGfRpRcqqzfgbWOB5+vPaxYzjQEx0SeeYL+TZzX3vbXla/3KriX1FXh9DXWI9MjEscuX1Omlr7A2KYfa+liv5JJLU52QuMn4a21Rfd7hff+yfFhfKag2i/N2Xg02EOsi+6ieg1nJ0Et9sb+sX2SfzrowZZUA7VPk00bOVR4bb7tjO88PIEzurbS0/XX5Efcq18p2zNu9nFc53k4tig//HA2dDa2YO4hzJtrXvyLiNXVOUOHk/ihwZ45Gcek3WEpHNG2w1n8bfrXci/mY+yzp8zOuYFNsMN04gAAEIQAACEIAABG5N4K6FvGs4NyxCVxa77UmY3EYvTNWGSBmVNwRtwd4LPXpBXtrIYlyeWLGvem63cQv2bINd/HsZQyFB2V0Obf98zWx4Ap2ZS3nFrLFKHWfX5WkKzchvmIYijjV0YFz7902HMBXG0YbH+lo2SEEM9Kaj+tRjOfIYcquxqLkz5JG3Vc7HXBO9Q1wtnvqkV+lf/BIOpWHu3/yK2DiBzQeRU/qIPbIBnfOfydM+it+iIyhK1Fzsesc2hY0uHu/wz+S4YqRzNNBtvYr02Bwbx1/t04ozfdz0sVRk9POitcRV83O6rHHlLOee8C3t0+t9TfbAYfRpM78jvVIQXPPT2BYKyRdD/SK/5XTNi/SqaC6ejX5IzupcslpLn+F+kAd2PAVxcFz35Ghpo+I76I3tM7ZcYa6xTMqZjUFluxbbID6Gf7ZT5aG0T/GTmLr8sDZUKyujtdeCmz8uJjI29RxWYiDjRcamOm/C3IH3J7JriKefy+bjU+ektzFz0dyEZXtKWeKl/zGsXlttU+yRuSLk7/LN5KJ8p7cx6ZhxCgEIQAACEIAABCBwcwI/s5AnC+K2ELULW029LaZTW71RVo3KArz+xtLraTm9qU1LbtcX3Pm3dN4+gteJ1Ia16tKL/CTG6JnYosxKPcpfha3ykm4r098/Lh/BpqTLiTc+npHV4Tc11sJYdmCX6eZ4tjiWRsWe43JKv/8kvssmUstpm7Iau7b5UXJ8P7fB0UXOoktt2KuuOZ/qp9OrTZRNqTD1suxv6PlNnJHUT8xGuvQR+aXRFv8uqh3VDW/jrQtnqZFiLRtIfS33c6xl85jHk8RxjVU1po0TJc9zazY0B/zBeo6l1pGedi3b63OhcI10e/tsPLxtvhBR5L68n8x4H/S0GBW7sk7FKGvx+R2oNr5Hfpr8mgiQfwTw+nNzx/7ttJzM08DufrJhNS+iHK92qbyMcrDPT3WOcHPo3hz18bWxie0T2e3p5BY/scXnlxTQ5b6f78dYRDmwnsNFhm1j9XhfUy6X9vX7w+VHZIM8hd2Kf6Pp/UqNoWXq5jCfZ86GLiw4MtxfltP70fxBqNxjNY9k3FubrL1JisvrcJ1g27y8f+SxYeeLrTZiT/E15J99tvllYv72UWK6Ou4CllyCAAQgAAEIQAACELgKgYcv5F2FAkKeikDZSMZFx6dy9MmdyRtHvwF/cp8vc69szO1m/jJJ9DqPADl6Hq/9rcnpfaxsUS7us6dN3HN+NS4+z9tzBwIQgAAEIAABCEDgmgQo5F2TJrK+BQEKed8iDJ82giLJXoQUPfaSunY7cvTaRKu8c56Yu5EJ301s+V6zT8n577o9bc72qz6RaJ4gDJ7YO1suHSAAAQhAAAIQgAAELiZAIe9idHT8rgT85ua72old6wQokqzz6Xcp5HUWX3tEjl6Zd3tF1RasrqzlYcXlfJOfGcif45Pne9qcC6B8p/ZXtnf9duG5SmgPAQhAAAIQgAAEILCbAIW83ahoCAEIQAACEIAABCAAAQhAAAIQgAAEIACB+xGgkHc/9miGAAQgAAEIQAACEIAABCAAAQhAAAIQgMBuAhTydqOiIQQgAAEIQAACEIAABCAAAQhAAAIQgAAE7kfg4Qt5+bdbLvjLlh9vt/sNnqf/3aThh8jLX7A7TH6zZ5be42/5HBbzg9qzjje5rn3QvwVUj98+bqL12YXecpxZdh/L8YJ5wMq41VnwFx7rD8inMXPpX5tNc18fL7f4y5S34oFcCEAAAhCAAAQgAAEIQAACELiUwM8s5N34L649fSHPZdv5f1yiFs184aX+0PmlhQ1n1pmn1aaoYHdXu8504zs1v/E4064+1pi7wh+nqDlJIU9nAccQgAAEIAABCEAAAhCAAASenwCFvBvE+LGKCp8HcHYhLxch4iciz5b1efOrhJVC3rIs97Prag5+vSAKeRPmFPImYLgMAQhAAAIQgAAEIAABCEAAAhsEnq+Ql4sHx+Ujf/ZXJOXJlVKQ6dfL019pY/2ynN6PS3k9tBeZ4vaWqnlF9PW0nN4Oy6E9bRa8VrcsS1TsM3IO42um9n630VpTz2ZFFOEjneqTPcXvw3IwT6QV24/vp+UlvzZbbVIyrE3pNcF/W47R64LaHn0sdqx8nh2DZGvjvyyLFA5/dT+Sv5ITRfV6IW+JbF5ll6RWmZWd15nZvX2UXJA22u7KZN1/ya+P5fTa89r4n+R4Ww/Hxb8s7PVYPtUY8zH3z8vST1nanLF5nPu9npaP95c6FpNPo63dDG+DllcKZi2398gx+Z+0CN/fTeWa/TlPZA5oeahkBHH4t+yr97H6NdizLCUXVaxzm+Lr8ZfzOei/an/zUh0ENm/ljo63SLJ63RhdYvsjOSIvfeZ8eTv13G/+Og7BuPL2aF2789CzcXpiOTpHsxfd/joPDGPP62l+ahocQwACEIAABCAAAQhAAAI/gcCTFvLsJrFs2NRGeSjKyKZPtZFiWyrw/VVToW6m9IbPy84bt7aBT/3UJl5lVO7XNn11097Oe+FFNnRej2zm5b4SXQ+LT9rWdCPLkU3g4I+3o55rBklI5tdZFZ/7ufWtmGOvCe/t3wcrfu+IgWZXiwKtKNk2wUpO9kEX86qvwqZSlA/voxTGOt8JOy3P5V3xTRdPvYwaL81/FjNdmPRt6rnOFRsPeeJQ8fEyBET7DHg5/0qeKJmSf7qg5uIwjh9h0POrmaAOvD8Sn5YDkW7VPx0OMU4XM4fuQ4mZssXZL+NS6x3nADc2g/iI/Tpmxtyhj4ypbqvYomVs2m+UiP96nIz/CFFkKr1B7gzx8WNUztfy2NvWYubnkcpCjT3v92CP47krD2vs53OA5NTaGN8xjgae4zwRoOESBCAAAQhAAAIQgAAEIPCkBO5ayPvzzz+XP/74Iz95kz7T+bn/5Q2XLuL4YkIS6DZpY4HBbayjPtUws9n3cnMbv8kq532zVwSZjWSWozbCVVf7CPWMG+rWvh4YHfla8VM29uN9zyrYZCY5mXEvZhgm7b72J+CrNu7TJ6Ymflt91qfqun3iscpZjYE8Pac2/yJL8kf332YX+dwk5oMsQxe10lXtsz5WXa3/cYyMfdGYUPKWGgvtX7pt9ZgOqSwWP3mpm3m9E3+0rUWnzp0kcFuXlpF7mKdixagNOYF92R6ZX4L7gy7vc1bt5wBvxxjDdfYuT7IOLzNddHL32J9lqf8L/VH3JzKt/cU2mXekt41ZaWMLoFs5GN+3ups2la+OizRRn0XGWh5OZDgeoS2GaRQ3ZYgUoCUH5ZbTI5f5hAAEIAABCEAAAhCAAASen8BdC3lSxJNCTjo/97+8UdKbnLxJ6kWmLM9vesxGKrUINppDm2qZlhXpGjZeZcPniyR6Extu9hSI6f2J/tbV+WDlzDaQ2l593KRuF/J84cXZoSSVw3zfvyooBUO/mY6KGCKxFgP8a6o5ZoEcw69uzKWv+7Tx28NOniSzT4eKpekz58BQOFTMZ9x0Du564rNzsX5Ua1b1BNxqt2y/efpUezfGz+afaqvikNvo8ax1Day6DD2ehgJWb2YLvOp6Oaw50PTYOO+x3xe5tdzO3spNbaxsb8dgqC345ttFpi2WWTlWh5Kp+Kur9fAzuWOf5CsCu7w877dYR/bLWJ/n4Jgv1mftjx5vhcX8te1RbrU+FYhzfhR7e0xFk9UfynHjbX0cresZ9YsdfEIAAhCAAAQgAAEIQAACz0rgroU8KeDpz3NBDxulaFNqCh9jgWFeyHMFwWScklU2g2Mba1PZ2PkNly482PYjgaJHFbpMkWnU3yXoTaDdYIrPmr0+LvbGtvtiRcRB+6R97bbFR2VTWzfuUSxTNxWDdNo2wqqoZHTm9kExwMj3fLLk/BTP8HtztVCpeeljHeshdq1ItLeQF8TX+B/HyPifUVf/VO60ok/mMMuvgFuWV/5vzT//5OvQVtkiv4On80apmRQ9ewvrb8wktbbten85KjZW5plL93+P/X5sFLneHj0uRXO5lmNi4iv33efQRvVvTWvMa87tsr/11QdbubOVozvGaPSPKcmE2dit5o35Mtqqx6Z54s/nfSsq1sKqOhcaOX9UIa+NIWngnoIc7Yu+f6SQq8ZgmydKXI0PatzouaaZwAEEIAABCEAAAhCAAAQg8NQE7lrIe9wn8tYLTbZY4DfxJZ90m7LBDjbDNfW27q9laNMz2fivbwRj232xIrSvbcCjosWKxdpOV0hpvZps2eiPT/40v1Mn3b4Jkc2zcK8FgLaBrg2rPaYA4J84VDLXDgun/nte2UavT8ve4/+uJ/K8VVLs0HncC1a+9d5z719cyBPesdQsYyigTGKjRJh4u2KKarZZENRFYivT54uWqo5zzLyPfhzFY0LyIRxPSkU+1OMkX9hbyPO2ecFb5ztzR4+5wdaiw/KN7I+LXtrCMV+2c0X3b8dS1KvjcZSbWmrZcQyljcyroZzZuK7GlPjLPDHT0yznAAIQgAAEIAABCEAAAhD4YQTuWsi73W/kuc2q30gOG6lgE+n71MQom6wqP2xTN3utGKE3f5Jdrs1gj7Srn5P74SbRdZViyvEt/RVQzSWyK3XWLEob2ZQ20dmeLsswaY1q37fj8qL/WMPWU1GZaS0qhXxdQcXZUtQXH9qTdFWO90MKJ6XPjIfo08XCWVvNroEwB1pnPjYxcUXHPf5fVMhLJilbJ3p8wdY4MjnR/knutT8WsyOPSy75oqKydU1vG3OzJ++KHJ8HVqTE9qh+U6222GF/zKyOhXf5y7cTO2ouH9vrm9YyczbELGIkvtS/MbvHfqNkdqJ0DXaUPmZOqH7Zv3RbZLQxWvPRFszr2FNx9RZFc2DOwaGPj4GXZHVt56FjK+Icj8i+YVxIX/XZx9FEjx6/qh+HEIAABCAAAQhAAAIQgMDzE7hrIe8aeIeNUrRpdJurcSOlNqbKqFJoUUWFKkcXAkobX9Syv4u23aZu1szms9gkurwM/eSQMjk4rBvm9DqWf/pr5k+zY7L5dYzLprczECPKdcsi36t6B3ukyKfs3IzBzIf8+lm1SfTpguJQ1JhtmJPF9Z4uus30NnY2ftpveR2v+KbjMtqw6f+eQt7gqxQne8xKrFSu10KB5J/EtH9u+zeOM3nFsuv1eRzlTGbQuHYL9NHQRmI+5JLSrQWo42aDzpd6v8RDyah6JKafKuRJMUv/5VZllzn0esPCziyfVuw3SuIn4gqfLmMzR2djRY/RyPfBR2+cLb71u3XOU7G3No9cpLAt+d5yQOXdkGN5XMmTc0l7lav6ZDnqPNtoxuOOcTTj5+V2ABxBAAIQgAAEIAABCEAAAk9M4GcW8mTD1YpbZTPVNuMq4G1Dlzed+qms3qhsZOvvG72eltPwFzPrBq/KSAWsaINn5Bz0BrHo8vcje7tV/Uj6he3rJrH9BpPZHBa7ZXPbJOaNaN/IF0b9vLULNqDtno6BcJkUMDZjUDfUzQfhK4UYKQi8n5aXpksXrZJV0ea+WysFp/4EkTw9p37XyrBLfWtBoem0Mc1xkXyRNqr4INrX/Y9jJLLlGbBSYFK2ChtRkgi8p6c2e5sh7qptOVz3rzFNMpVfko+iS+el5NJJ2zJwHQxpv5uYZHZ5zr49cpJoGROT9mv2f66QFxQ6A1flUrMj2xnNYXFOt3411p2XSHaffnztyJ1Bppfhx2gdKy/vp/K7lDtty/kSxsnFXhfhs3uVjcp3naO781ByReSoPE9qQvsyCz3/eFvtPJHN9XpCn13cOIUABCAAAQhAAAIQgAAEnpLAwxfynjIqz+LUsGG9k2NSyPt1J/0Ttbmgwobc0JECin0N0zR54pO48PbEDivXSjFru3isutzw8Gfn4Q3BIhoCEIAABCAAAQhAAAIQ+DQBCnmfRoiAGYFcqHJPqMza3vQ6hbyb4r2m8B9dQMl5qp/UuibZ7y6LQt53jxD2QQACEIAABCAAAQhAAALfgwCFvO8Rh6eyohRjgt/Gu5eXFPLuRf5svT+zkNdfrRxeST2b4KN2oJD3qJHDbghAAAIQgAAEIAABCEDgawlQyPta3miDAAQgAAEIQAACEIAABCAAAQhAAAIQgMBFBCjkXYSNThCAAAQgAAEIQAACEIAABCAAAQhAAAIQ+FoCFPK+ljfaIAABCEAAAhCAAAQgAAEIQAACEIAABCBwEYGHL+Tl39S64C9/frzd7kflH/2vke6x37apf23zcFzCvzZ6rb9ee4GcbOfhsByC/130FzLT7+2ZP+DxsRwvyL+LRutqJ4lB7Kv4f85vsLXfOmzsJvFdtesb3sx59Bi+3HKespH5LnlsrSpnJbfNeM0xLLlurkfd73ztVjFM43NtPNs5+s4QAvXf3b7AZC5BAAIQgAAEIAABCEDgWxD4mYW8CwpC50Tr0Tcoe+y3bVQRyRS5KrVr8b5AjrVTRbH+AYzzigDVT+XjVL5SdZ/Dz/zxgPrHF1yBUgp7a8WD+/j6pFovkfwNGwAAIABJREFUyPdLSXzfPI48+kxuR/JueO1WMdzxB3y+e0y/u303zApEQwACEIAABCAAAQhA4FMEKOR9Cl/c+dE3KHvst21UIe9wGJ8SudZm9gI51k4br/Of5vwZhbw1Zvne7MlLi5ezzxK4IN8vVbkW80tl3q4fhbyFQt7t0gvJEIAABCAAAQhAAAIQ+OYEnq+Qlze/x+Ujf/bXDOUpInmqSF41LE9kpY3hy3J6P9ZXMPtrt3F7G9VS3Ki6Xk/L6e2wHNrTTKX445/8ijbORk5QELP3u43WGnfmOBySn3/ZNkbuYH9pu95GClyn5fSqfa96woJEfepr7bVNY7vEx9lfN7QSz4N6Wi5pz3a3WFi/S2z1K5a2IJllNnne3v+1/D/J12a/tsu19fqTX8I59c/3S5/jL9e36dcslV4vu7lY5Pi8a0ya3a7wulUg+PUxvj7tY2BsWvPL+ipjtNn49lHiJ7YauRMeLr9zjN9qXiY5iWfOKxV3b39QqFyfB2SMf5T8X7O3xScdjPkmDNb0mbHo/C0Fnpfl9Ou0vIgdwVzSzfA2rORxwGWQ4/O1+qjzcNX+JeWEjPWU58ke4ft7kQJWH3fH5d/eX5bDYFv1a7CnW7xkXWosDTJsfnodOUavp+Uj6xc5nd/FMZT8NPOfGqfuup/zxEOZ+/L3keTCBWNoLU9F1xCXgLuJu8x/kT1NaDr4XAyMqHYS5Vi56WMm47F1le8UxdN+35eWxlc3Rsu9nieph+iN9GndHEMAAhCAAAQgAAEIQCAReNJCnhRHSpDLwllt3PNGSC+kZbOg2rQFu2pXN/zjprT3kwX5eYW8uunUmxpXUIl9UJu7KJ8HP2thS21YvdzR/rHP2EZtmgNGpXAyctQbUG9H6aP8a8WWUU6Px8gxy9VcFSd7T/kgbQZfxjZWRupYc0ltZGe+af9bP73pqxv2trkb4jnaI6aLvM4m3antVfwHzllHz+cub3JUbex6qo7GXMZWj1vLH+VrudbbFGa18JZVe7lLLcj1PqmZZy26un3Sr/roxlmT0ewXmUrPLC90wWxo4/kFsfPx9eeBf0P8ql5TsK8xannkTRG5yudWmFnLYyensHa5k+3p7Hx8Bvtl/OgcHYqBJadaTKvPxr/omra33m8yWjHF5oUeo952ya3e5rIcHRjUePXvEMlBxXbLP4lpKji1GF5i3448HViOeqbsdM7p+KTjKrfbP3LYFQMvN8wxKab1XBX9OkeyH8rm4tee9Yb6LpN5WOIy8BsM5gIEIAABCEAAAhCAAAQMgbsW8v7888/ljz/+yE81pc90fu5/eSGvFtZlU6QW40mg3/QMG2S3MYz6VMPMZtXLzW38Jqac681AamY2BFmOs7nqyx+hHidDt6/HWYdsFuS+9j2U6+zf08ZtTMrmRvmjdXrfxa66uSqcqg3O9sK+yzUMRY6zN2yT2tbNcotL7tdlF3HeDn8+xsDkh9hkfBPdXleQg45rLLspcQeBPBcH6aAZnadj5JFlmhgUO/RmXMZjY586mT7jhn2UW9u4HPHjP/Qnc6hFkQkTYePtkutWbsxBc5V+/TOIT79ZjrxtjpE0N3pqG8N2OuZEwpjHRmZrtmFzYF/mJPNzcD+JtroiHYVv98m3Gfnb+DQH2oGxq13tB9YmuW71hjp8zPz5Hga+T1Lv+/lzMVF9Zh9MQXSUk9usjiHrsxLfDkNW2j593HrVmElutOv9IJTr5tJdMegi61HkU3RNinu6uBvP263oGvrqc1zHYZvDYD4XIAABCEAAAhCAAAR+PIG7FvKkiCevSaXzc/8bNmR5E6SeXEgC/eJ62CiVRbx5omNoUy3TsiJdw8bUb0KLHL1JCTcjCsT0/kS/6toOsz55HUiehJr017aVwojjOfGxF2sKz7a5MSzHTbcY2fUG8UiNjJx44yVPncmm3/otr7+VTxNvMSJ91hhLXna/Rtu7zanjeF/E5nayYQ65Rz47ecquqe2i0G14s3XhK4iW6zTXmlx9sB6Dwi1qE/iqx5Xkl/BqKgsPiW27LO19fstTVr5YYPgXW1KsI7k255RGY29sl80N1bcettz09klTk++uqCBt0qf2J9vliw2uje5bj62tLu9Ue9tO3ciHvp+N/TS3tP01b21+e75WblJtZXs7tuzcf1/7n3X62LmY+fyxdiq9moE+liYm3/ocZTlJ4/KZbb3CGMpy0tjyvmY1YyyKdhWzyB8Zs6HMJGEew7NjUAxS/19sNux83KS1Gk+z2A32+OJpkhUwaFzl+1h08gkBCEAAAhCAAAQgAIENAnct5LVCSduAn2/OsJkKFsxSmGkL92HRPlvYjwUsLWu2sLc2qQ2NCsaw+J9uaGSTaotQnV1go+jJfkq/urlXvu+xf0+bcNNVdefiiNIpbaOiSWPiN63ij9pUyaujnYP4WT5FfpMpMqafdeMouZg3wH4z6c/9kxZOhsiST9lUZx4+bkEOhpvZ0q77HRRtso+lnXBIl2xeKhA6PqFtqq05jGzOmspvxWV/Rzskdm08pi4u5jluwqvpLHybT9lWifuY39mSVLz0Y2vwcYxbs21oW40x9jq7apM9uVfGl/igX4OUzX+P79BW8ip/1nwyY6SBCwsJ6q57Ki72J7Xf8snMF5ndmfZfWMgzOWVio72U47l/pcX8vvY/HE/O57iQp+IdxTDKOe+TPxfX1Oe1xlASOeReG5t+PrK+pbFqckLZF/Jr968YgyZTDoJ5KzO3tvs5dubHkBMmplqmm/NrDPs/FIl9fEIAAhCAAAQgAAEIQGCdwPmVs3V5Z9193CfydNHALc6HzW68IRkX/6McgTnbQMj9+LPoHTYJeqMZbRi9/XvahAWnuulPTydonZO2yYe+8Qw2WqmBkRMViEYSmvN4V10xsuW6Z+jPfWFjvC+SzGfINPJ5S17p43+Ev+ga+UzzSNuzVSAw90cdRXexuxTcojblWiuWpU5Grs4FTU7LmrBxcQyLBdpfLT4fV7nylIyT15pne6VIpf1tLTaLXr1lOSrxUU8GOt3T+GlBxq5+Y6uvHScTtmaMdtnmSMXRypRi0HyeK3KC3KhzRivgBk+bpr4yf2z5Kv+YMMyNzZF9/mc9YZFY8sLPWTsZRPmpuGYz/XmzvR8Ij34lHZ0/hmx/8UHyVMvzLet55I/Ey/NrIq4YgyZTDoIcc2NNWurPWV7pPJ+10XLKcfWvFv3MXDg25goEIAABCEAAAhCAAAQMgbsW8m73G3lus+g3PcOiPVjY+z4Vm1moh23qAr1tUKINiWsz2GNi5ApY/V64kWy3A59k8yRFij3272kzLc4VG8qTDX1zqzc+zdwdG8zCXuREXJM063esq2uVo5Bl9b1v+EedXr4/L/JLv1aICDe21m7dr+sXa9VntlGYqOuGZ70+yTNvsz83UtNfZG6vjo08cluTM8Wv5ntuEPhq+tSiTNNTLTC+BjJ8fsuTRG0sVjkh/3rP2+fsklZmHhgKTaXVGkeR4z9zH3naycfLn9fOJnervZZ3L3J5fXLubfXnpV0US5Egn5ITx+XoX1feY78bv0WqGz9RbqeGNa7HlKPCUMxyn7F/vVF83/pvuEtX7+PWee1nZFU/PkRm+vR56M9123oc+mD67RtDgehWNJ0XRZVso1Ok1TzxY1Nuy1ge7l8QAyWzHCrb5F5oY8+pHIvcxs+1RVZ76tfHu8o38ZV5qX4P5zj5uU7s4hMCEIAABCAAAQhAAAIBgbsW8gJ7zr7kF8iymVvdBA2L7WBhLxsJKXoly+piX2+S/SI825P+lV1tQLbbRJsau2HxMsSW+b/kBzKz3+VVH+nn5X7K/mjz3HSqDVDlqDfb3o4SR/WX/qTPnnh49up8mmDVTuHSNqgmlpWp8jPbbeTXjZ1qU5iq4nLWpc6zUVEOWn2DHMlRo188tPlTrlZ5etM4+J1aVh+cXMmNzkg2uvJ0Turr8y6yI/C1xldkl3zQBRnLYtTTbUmFY5GTbXZ+mDki+69ys22ye3yKLarNMA8U2/S8kCmmgpLXXQLRGJs+jkGxU+mVeOv4+T71fPyrtVZOM6MeDHksclQeFw6di5ch55InxgatZ83+zxTyJG9V/MWm4bP6Z/jrXNjh/zy3FGstcy+D3MdxrvZIXm/P/1IMD8ZQy0k/VqMxFIzfiS2apc8nnzstR5otQ4Ta9+3a98SuGAyig/mnjXsVu6BgHPulGQt3FT/Pa5Bb7NF+DiZzAQIQgAAEIAABCEAAAorAzyzkSbEhFWnyRjVe2CdObcOx8gpM2aTU38J5PS2nYQNfN0xVRtIZbUCMHP80S9vE99/caZs6FVB7WDcIojdtoOumYth0SZvQftmczHz0RRZthfiuN0jpvrMt2tDlDa34+7Kc3o/LUByo/rTfM3Jy/MZLW+aPfawToxITtSlrNlV/lP4eD+ebLlwkpdFGvfLoMlLDkau3sT8d570pNug4SwubZz4u0srFPOeH4tCb9Q235JAq/kicrR3FNuOr2+xK3PJYCuUmAwLOLr+jcTbwbzFVufaXdnBrHihxsj5Wfi4frVRvvy6IppYydmSeKr1t/HrRMt8Vju+n5UW46eK3NaCf7cnjVV+6KCkyzYqYq/avjIPOdyu3J3mqTCyHnr8fC+6+83+eW1rOBTGM5geJ66/uROPo7JIW+f7bR53Dam6bsZlaOh/D7wjfxudp/0eu2TycNeWneWffIWK1/3S6na/7YhDLNPNPbeLn155zXUbjnsaX8HVcTRtTWJZ8cDla56BIX9fMEQQgAAEIQAACEIAABAqBhy/kEUgIQOD5COSNsNu0P5+XN/AoKPjcQMs3FVmLJK6o8k2NxaynIFByjgLcUwQTJyAAAQhAAAIQgMDDEKCQ9zChwlAI/BwCFPIujPVPLuRl3/XTcBcypBsEIgL1qTnzJF++Rs5FuLgGAQhAAAIQgAAEIHA7AhTybscWyRCAwIUEKORdCO5HFvL665emyHIhQrpBYEbAv3o7/NTDrCPXIQABCEAAAhCAAAQgcEUCFPKuCBNREIAABCAAAQhAAAIQgAAEIAABCEAAAhC4FQEKebcii1wIQAACEIAABCAAAQhAAAIQgAAEIAABCFyRAIW8K8JEFAQgAAEIQAACEIAABCAAAQhAAAIQgAAEbkXg4Qt5+TdrLvjrlh9vt/uBan7f61bpulNu/Z2ww+GwRP+TvzBoc6f8ztbVfmNr+iPo8ntex+XDu6N+38zatixLuqf+Gudw38tK5/XH2SMG+37b6dy/AlrbT7gflP2RuVy7LgHmoR08ZYxMvkPsOHNzhPSd5HuZS/xfNXUydpi41mQaY7EtGHPZp0OZf6x/l80z2YYJg8OEq/XpzHlmY36/2hxujXzys4/luCtWV8DgvsuuIPGKIsbxWcZLWUtcmlt2vTnquKID+0Tl+eF2a+B9RtAKAhCAAAQgAIHPEPiZhbwbL2Kmm6vPRIq++wmogtj+TldeXM9skA324bD4TYHeYFu7x43usAG3HcrZSp6XzXdQTDRyRr3m9nCy0r7ykCLq0JULVyfAPLSNNDF6eTsuL8F4TL3tOHNzxMr4mmt2MuYNd92ZzRllfKfigx/jK2N0Ge9Z/2OT5nlWfN0u4I96Y0316mxulXgdKFCs8gtuzmMYNP7UpTNj/SldV+i8kmu7pQ/zxHXngN126IaDTfomxxCAAAQgAAEIPAIBCnk3iNLXLYpvYPwziLxo8X3txXW8Yckb47ePJeeIe1pmnjejrD0b7PJE3mxTW/xdL6yNetfTY739rOiwLpO7lxKY59OlEp+sX5sn5nlrx5mbIy7aDDsZn0XafNCCij/HX5GutXE/crD+ax39eDXPdjEa9XbpwVHos7Q7U5Z0++GfqzG8KpsHi89qru0EM4yBaFzulHWtZoNN1xKMHAhAAAIQgAAEvorA8xXy8gLluHzkz/5qpTz9VIoJ/XopZKSF1ctyej/WVzF78SNub8OTF8HyatHraTm9HZb+SlFZuPqCSbRwNnKCJ0Ts/W6jtcad1YVoe73Svz6zel8WnOWzycgFKHtN+Cbtsvn7eH9Rr7b6J0OiVz+tT1nO22k5vdZ4tcKX1d1ZV993Lr7Fzt+5m/iq+Hk2Tb+0qZsSib2LmZWf+vRcGO8V/ZIn/b7z1b0SZxlbfuuFvGhD5fwR9tpvN64s+0imsJJ4Oxu3GPv75gkjiZllJAyV5pKTKk62jcTlo+daauvHyqrvRdtFY9TLNU8U7bRtWUpxWHwc5iFNQx17vt7njfvZXylMi+4aI8NC5ZDkts3dYH7wuqPxJTmadCsdRrfh2X3PdujxZHKrtBNbwzkix83lcxdfjyR+RcKySM6qht5P5Udu5e8bO738+nps9jm452zu/tkxJE/yyX0bK+tzZu3zRtyrtuvvB5kH+/dJneOV3zZ+h8WM11CmKKzjwNlTYt2/9609wqzfF/+LVImZZWRsquq9HtsmlqPzNovx84HzJbWxfGw8qin2Y5pDJUdaLMxYsf76+TDOjWAcN0ucPJ3H3r7A5yZmFv98XbNw+rzMxFnmyTbfS4zk+0rlxOtp+TezthOLSh8b63IvzgfR4exT+V96u/veflHfPlP7eB1rf2ZD2ihWnr+OTZOvDkJ25f5mbq7lt8Tw1yk/JS15OYzXYQy4Nxyyjvk+QDyxtrp5Jjc6NwYimU8IQAACEIDA7Qk8aSHPbsLLl7VaYOYvebWIqZsru3iXxbJqVxc7esHmZbeFW1t0BZspWYS4NmahXHXJAsbrkYWZ3A9TpS6YdJssR/TW+92fuqiX+41LZ9D8Uwv+ci1o0+QIy7UYjG1EV7cveVkXVmrRO7Bx7EI2quAYbtKHWHs29VzZMRTOwjyrnLL8ziz/Bp5n2viNuoRN3wR6+2QjonQYEIVjZzv2L1xVgWTwx9vlz43CWkxTObDFOIijyV/JBV3gGWRKXikOQ5tq95qcTd9Fj/Kvji89/iyROEY2n3fYJvOJ2ny1/Gg5NGhuv6Go7TN8q/17cqS1qWzTBsxfk/PINutzL6xo20q/HkeRI3LFw0FWGAeXq0GuJXlZR2NYxkyzacgJsUB/Fj3dRidjlouiM7DLxEhiL+2T6mRXPbf2e3/8uWMi/psiaW2j9Hl7tPfDnCiv7/r+SscgzzPw50bhzIeeN2WuHfOzxXVgWr9z1uYH6aPm8EFPm6+ULT43h5wa/dmX3wpKwMsz9ud7vmdl/EmuJY2DbcqMcjj6I2uZPkbGHLNiAhmSqy2vaszU9/NgW2Xfv0OzB8sxiHPLjSE+8Rxu7B36SD6t5IHkypr9Rkm33a9jhW/zoeZD+53cHfkxqArZBfGv7ZrugYWLpbctKfYyZA5R33dDG7Gv5cNo25DzA4cdOTSA4QIEIAABCEDg6wjctZD3559/Ln/88Ud+ait9pvNz//MblfKFrhZISaD/gh4WE+ULuy8kgz7VsLJ4rZt1Lze38YvQcm5ky4JXFhlZjrNZgwj11IWJyNDt63FeqKiFoG3iFlBy0+gaFzLC0vhj+tTNod7QZNmWcWibi4thXe2Lrsmmo9nk7BHX/KfNnWKfLDiHRV7qbORaf7zscm5lltyUQs/avb0bbJFVtTt+4VioTbN/w0LY52CxUTY6MXvt+SSnUpPKrsXIjwERoxl7f6RN+7T2yWVjp5YnDWTT1/yP7dY5YGQqOe1wokfLaG3VQb7vx6jxe9s2YSu5W8TXfjedH8bNUXvayui1PhSWca5JfuQ2RkbPIfEzjMneOAztYl7WjmjMej9UcPNhkSt+yVwlPoT5oW0zueBl1/Pcps8FJqfW7sk4aJxtnJL0kLGzKfQhmxaMT9e3eKDbjTZUL/uH5tOv5qNir45Jkd35lw7Gr9AmLVjb168bGRObTJtanLG2WH9t+66rHU30zGMghRDNpElrB75/bIdlWdp4ubZNU9AOrL9tvvBz4MRPETPaV+QK2/F+6ulsC+Ne2sj4HOdWJ2P2PSaGps9BzyjDc9hlv9aRj7flShcTu8E+abXyGfWZxEznVuyX0lNlSBzljpYx8iytNtsY+3weiqb+GdsaMe59OIIABCAAAQh8JYG7FvKkiCePz6fzc//LX7ZtIyKLpr6pyfLMF7i00QvQ8uXcFm+pU7RQSde1rNzG6RoWdnaBKf7pRUe8YJCWk81Us3HUX3puLThm9/UCJ2oTsNJMZPOnY1JdyT77BbvwSk9k5P/1uAyxlX+JncmQ69UeySvzKW0GO7Vfkd/JCRvL7E+yOfC1uBy0V/o1D32cNaXXkptcHZMq2dwv14aczfkpXP2nzZuRdbaivGoqNiuuZqxU9cLH8G5xVU/A5PZ7GJc2SZ5f2BeVOmbNiDpGax7tGccuriIpx0RisOH7dAxP5gjRoT9bPplxYHNI2hvbJjpMG+nYPmf8pcHsvs3FSEe+JjmTxdk+ca7VoqDpV2wpbHv+Su5FcvbGIbJ7GD+rc4R8R3S7dN73fPXx0zm7zrjIKG3mY0C+k2Te1PITP32ujxVbyfFgfo0Ye06ZpRrnmoP8I0DR5v+Bol0180yPt52jpLV8Bxs9Tb9wqK1Xx7+03WI8csvS85xwzjwTybFjQ/smed78lnxs/wCh7kzmgNJiyz//j4LOJqVGj+0wN+T7PBjHRYyXXWzr40WU+XZyvX7W+bgxMnGe99X2lzz2OeZi5PWIf23MzOxX9hrb0nWnIzfVNutjJUd0T9lGcqNrMnftzX9rQz4L8m3X3LvxPVryX+xSepW+dT16PLrYuliuzzOXxkDZzCEEIAABCEDgxgTuWsiLFuLn+jssJtUXfpPlvsD9RiRcWEVykkAla7agsDaVBYFfqOqNpG3frG4HRU+8YRxeo2i9Jgu4zft6AVNkWNsDuYpJEj/zZ1xEi0968dUXcaOcalvbtEn/+ikLXGdPc9kdWPnar3Ic5We6pnkMsREbqq6uo9jeNh7pfsuxMUd6v9RQx6QItversiyv8xvzXIrC7vdkZIPQNidVnlw3Pnk2Sl9gp4ytXpQU2V6OjWVnPMa8M9QxE7kyRnVOuQV9ampyZOSfmugxWqR7m7vvQx6YHA30i7k5ZuK7tllkb9tWdI86whwRveFmst1M3ttXzNotm4sjo6ggZ/vM7DLzQ42PjMEccxOzeJ7ZFwcfR+FfPnvueR2OiR9vjZE+8PHTMvbaUfmpnOpjIOlSOjIjmwuNa74neVVstLGwccqSd/yDwZgDYq+1I8kb2xY7mo3ltL1OJ/E384fLg9yljiMdO329yVEM26uFuaHY3HOhM9YxEwNlDtFjdvTXzjORnJG5jL1uc4/ZvvxWNrbDNf98XMa23Zb+Uws2d5qiEmPzndHvSa72Am/EJLWPuMzl2LzaZ3///tVynT1RrulxtGcOGNo4HVm99nen/drsfBzIjexPbbUPWr8aHz3/B0Vq7dLv7c/NYmfPqZ7fo11VfmZYxtcs78x6R7VvFkYscrs+5vs8c2kMmjYOIAABCEAAAjcncNdC3uM+kbe+eI8WlX6DoduUBVCwCajh37ofZ0lZLHm9ve3sflnAlH5Rm3LNLPLcAileaAULVb/YdwveUY6W0T0Zjpw9w/16wcrXfkV+z6T06yVOttDXNgvDwlkvppM+tZgdiqGj39b2aoPjZxa23cz6O0Zr+qTxqFfulM/CqReTJ+1rPPrmLfW+hHGV31gVGSYXk2jNQR9r4008ilw/VvQY1V3LsfW9xH4+hsf+6cqEl7F5h225/ah7j/3e527nLD7WnkhHvmbGtvUzzF3HIpJriyK+yFYs3xUHw7d7nI68Xmury7cVOV2q5SV5X3J2xrj3Ho8qyzYGSgthbu0t99q1ZK8r1rd7uamNU7pk7xd5ZnwFzEqrOj5W9VV5LvZytX1mzr2A5PNA2mVb9e+bpRu7YiQS5NMzdnGXZlq2Ppb76dPMM5GckbnuLvkic2zxcRzrts/WmffP5/2WTUV+mBtbsRzuz8ZAsWE+P9XczE8nehn77C+54Vm6GNXvLvsd023z80VIfsgNpyN30jbr41Di5GIkN7q2NS6qfjfHGKXZJ8vustws9kl+2/HSNWrZ+ri3EJ+qTYF9s3mjych9ZJ65NAZNGgcQgAAEIACBmxO4ayHvdr+RZxcYwxf4noVVuIDTi0dZpPunm+oCoG1gogWBazPY4+I+uR8vpKVvpFfupc/JfeN3WWTZxXSwMDR9hJEtFMmGRG9g7eK4bibU4jHyL144F1+anc4e7bU+tvK1XxM206eUulTZUKsr5cmmt3ETLTE4pnvudSlr22iPvV+1+Tzx582ounhuOSqL4DhmtgDXhJSDzFr6jXZK62yv2WTP2uo4SG/9qe9XP0zRyBUfJrlQ7JF5otjS8qeqi3NN2aJ9n7AO49REaF/aRVdo3WFb6GPlq2PcVczHf2sziY/TFTEax4CVVdhLzohCzSL22edQyHZHHCKbxYqyue9zutWhbZyNmSapHnhftAzLpffUbfrVfhTcz34fl+Ob+4eE1CnHrNzzY9n6N9pj71cLHOMpz9zO2eP6FonFH29b93ffmJb51MylLl+bzMrro13wB5pxbJ9hM9GT27S5XcsUfSNzudM+s+w6XkJ+jk/ruHZgbfEx9OdFks3l4tvaOI70e3/9ee0z4WkkSpv8/Wnt2GP/5YU84X1cjq8uv42B9WSImWVfWlkOu+wfdG3LlS5x7ORu+oxkqfvR+Bn8LO3NOFEi2qHO7xrT8LtYvucnegyzyD7Jl19N83CgbTXyWks7BtplDiAAAQhAAAJ3IHDXQt41/NVfvFneni/wYSEQL1ryF7kqLElBUC8yShspCNQFXno9QW2gt9vURZzqIwsp0eVliC2+GGaYZj/7pjTdKws4/a+WeiHq7ShcxIYiO2DlFkhFR8Cg+ef1yKa4vOIgPg2xzQYU/XrTZ3xKbZw9xe7x/61851ewoMwxaD4EbCZ6S+zkX3qtHbMxVZvGAAAgAElEQVR71rbKSxayEsdmS5Xp89qfa9U1N3psx5h42wbOw9M4o51dZb3XNrU9Tt0G92RIYL+1oeaCLhAGMSh+qI3eENtim7Yj2Z37VcZWb/FK32/tA/8knzsLORqZSyEpvXZU+m3bFuku9toxKFrbZ80BbZ/xc2+OuDzMXFSutgJLvRbZtpdl4iJxynKc7oiFmQ+G2Dca9cDOL1aHmyOC/PTSxHexWeb1xjywx7AIdJgYNYXBWNhxz/pX81HFzt6vAp1Nxt6msxzke/o7VP4BScWttJH5cbRBmDWGwRhvauu98ftBjX//NLDzJ8myjAO2gQ2Dr0NsXf5ko62/Vq9iOPDqaw6T3w2EOtj0z851VWv+B6iRY9dbbLVzzFouFLnW33wt29fHtYwZvYZS3qjDKsutt0qDGjOfy3p+znq7P7qfH5/tXLRLnpnclpvuc+C/nQeS82v8nZZ58a3ybT542wf7fP6PmuIiqPxjrGLqxslmfnvbkurBPom70uN9zOfqfpJjbAny0M8L9fy8GASsuAQBCEAAAhC4EYGfWciTzURaAOaFXrSwKsTbYrX+dkhbDKmAtI1IXVCe3uziti1Mq4ykM8tVi/MkzshRG1ZR5e9Htkjb9tkWRvI7IPHipv1eiVr4ymKybaCy0ICVWSD1ReAp/b6S+Ox8FdntflpgVzmiL2JU/KqLdJGtF+epgbOnsXAHVv7cr2bjpg96M9KVSQ6F8aoLUPFZelnbZDGbYlg2pMP91NEveP25CK+fkk/dLlkg11x5O5kfoU/dxJfGxLCPFsdKqeSi5ijXJJb6Xupa+XR90Yb8VDadVUb3p+v2dts2xW4fg8xH2eNlmCd/qiphKvZaPd2efhTkshkH+2xL8ozu19MyzkNdazvy/E08+1gSf/SmpulUjNo1M4/YvCgcj8v6/FD7SF7kvK+squwsx+kWvwyLVhSV/NU5JD36Z+lb5kmrw80RG+OrSPTxczJSIx8D79PqGBC7hZeb3+vt4tPot/VPj7f980yW7W0Ws2QzbPJKbJ3NM+5+ygGdT5XXbGyV/LJzsVyTPPZj/WvmmSD2shZR/nlbrzLPbOWQysHOtY63NgZtbhU7t8ZxS4R+0GxR+aj05xgpHr3jeCSshnjmpuv2l5hbn2Rd0hhMc63m6DTvta0qn7Nf+/JAbJGcjfJAa5H2zXZ9szGva4j39BaA4m/u93WGFmGOc3vPrrSYzb3SX2IW+iW830/LS8s7ZacI8d932pfUJrJPZLcn8lRcRNeQdxs5pOzhEAIQgAAEIPDVBB6+kPfVwNC3TUAW+PPXlrZl0AIC2wTKIjvexG33psV9CDA/3Ic7Wi8lwDwTkfvZ45iciHLi09eGYtunJSIAAhCAAAQg8LQEKOQ9bWjv59jPXuDfj/vP08xm6hFjzvzwiFH7yTYzz0TR/9HjOHriK4LEtfMIUMg7jxetIQABCEDgRxOgkPejw38b53/0Av82SJEaEmCDHWL55heZH755gDDPEWCecUDy6Y8cx7XQZF5LjeBw7TICFPIu40YvCEAAAhD4kQQo5P3IsOM0BCAAAQhAAAIQgAAEIAABCEAAAhCAwKMRoJD3aBHDXghAAAIQgAAEIAABCEAAAhCAAAQgAIEfSYBC3o8MO05DAAIQgAAEIAABCEAAAhCAAAQgAAEIPBqBJyrk9T8lf2x/Xn4rHLXP8CfnVb9v+psd+fdpXk/Lb2Xq+YfF//ZXP7/oB5yT7ftjdL5X5/Qov/NzWA6Hw+1tynxfltNf51hIWwhAAAIQgAAEIAABCEAAAhCAAAQgUAg8TyEvF9yOy/HtsBx2F7go5J1eD8uXFvK+U2H0q22hkMe8CwEIQAACEIAABCAAAQhAAAIQgMAnCDxNIe9DCnhnFUso5FHI+4In8WSAnpWb0olPCEAAAhCAAAQgAAEIQAACEIAABCBQCDxJIe9jOR7kyTJ97MNcC3eH8irl4e20pELWQb9aW5/SSq9a5tct30/Ly9Zrl67P4XBcPpzqXGgUvelTPTXYipCmz5ofyyKv1n68v2Q7i73Ba5veNu3rsuPVWt9f2W3MVSfeV/vEX2WfGChb9Cuuw2uu2YaX5fSrxKLFxr9CnQtlSv6arSttvf3mNeDU7/W0nFLh2MVRISiHRsfLcno/LoeDi5Hnq5gsS8mB46/yKX4XbvaasTFrt/ejnBzs5QIEIAABCEAAAhCAAAQgAAEIQAAC35rAcxTycsGkF0jiwlgt4qniTivYSPGkFlVa4akWUobCkg5p7aMLKV6/P5cCTStkOfuz+Oia0tsKX2J7LcrpAuEy+OMZbBTyaiGq8/D9lUH1cPDV8/HnSy1K6gKXt7uemyJYta1xH3hVWxuf0Vbh02QIQ12IDfXYImQgeVl8v8gH76fobzkqxbie2y3uile51tuIXy2/lmUpuT4WmEPbuQgBCEAAAhCAAAQgAAEIQAACEIDAtyRw10Len3/+ufzxxx/5yab0mc4v+W8oHvkiShI6FHrSxVooqcWeQU7rt/L6ZShXe1F09GJRuWd1lTa9YFYLL62go+WV41K8cYUZZ4vVUWXU4lGxZ62QNymEmf7erkkf3WzoP/qemhv/hoJXEaj9M+21vrVjb4vjJ121njiPpKV8xhx8wc3Ila7GJpufuUnEwvSZ5U7MWdTyCQEIQAACEIAABCAAAQhAAAIQgMD3J3DXQp4U8eSVwXR+9n+uiFH6j4WUXEQZCmO6XTnWxbQsK5SvrazFlvZqr77nj3tb/1qmLepsF11Cf0whaiZD+6mPpdgpxcH1/vppL+1lKVal105Fjr67LPK0WCtsGptV28y9PmWmj1WTUlSremqcVp+e1H3TsYttsT2wW9uYj4M2RnZh13yUe1pOLSIP+WZed45iEMg2fuicFsXl0+aYvccZBCAAAQhAAAIQgAAEIAABCEAAAt+fwF0LeVLA05/nIuuFI/XbaO236HrBZVbEyNfzE3lR0SRZExROBiNr8aTptU/wZR1yrxYTB3t0scoUfAZl+cLeQp5mq49LAWm7kDcUo+T1z7VXVrP9Kh66gGqKTlI8VG2FU/48o5CXqZRYdT/V66YRRmdLyDT10/HIxz2vIrG+QNja6BjL06DG386hxCfKySAfjR8upk357Ek91YBDCEAAAhCAAAQgAAEIQAACEIAABL41gbsW8j7/RN786SNfTImLNLr/pABiiiR7Ylllym+YTfoPhTz1JNZ4b9Qb+qMLTtMnvrQs57MpUkVFpNTX9dHiouMsU/2mnOdhbI4EyJNzY1EuM5g9+dcKZStFN2fLVJ7moo8n5k6Lv8bXGV8tNGqzr5AXPTGZ82qtAKtVcwwBCEAAAhCAAAQgAAEIQAACEIDAtyNw10Lep38jzxViLN1aUJOnwUwRRVqWoogUPcICWu5nn7CT3vNPVWwJCz9Vr9hWBZXi3HE5vspf4J1r2C7kVf+Hwo2yzRfljK2T/qvMY3uNrb6/PxcR2pbaxr+GulmYyv3GAqCo8MVe8+Rda+SeZNN2qTb2MGZXCoViT9zGFgFLrKzfOn5Vq2MY5vGuwq71gjMIQAACEIAABCAAAQhAAAIQgAAEvheBuxbyPosiFyymT2TJH0xwhRNVPCv9x6fFeuGkFtwOK4W8XNgRHcWjUrCpT4IFRaim19te25q/zjqBZIpj0sbbMtPdGJRiUvPXF6nyuS4q1uJT6y+K5TMqTrlilCs6pZ62wJWuxH0MF+erYV7NiQtaYqs86adjW+3XcakM2ivGnpESZw59vyi2m/FxHLKCcq3Zk655pqJLFXG3xoqxnRMIQAACEIAABCAAAQhAAAIQgAAEviWBBy7klYKGPE0X0h0KJVKoqb9F9nZaTq+qkJeESBGk/nbZ8f20vKwV8lKfWrSZ/jabv//2ERSvkqCtQln3clchL/DnYIpwRd+0kBf1V8Whbo0+cowTR9enFTKVLaUQ538jrsqVQlWNReFsi6eppZcx/YMbYq7I/SUXymezT/9OnzTZW8hL7U3cX5bT+3ExxcjUxuWbjc+Fhbxsax0f8ht8irW4wicEIAABCEAAAhCAAAQgAAEIQAACj0XggQt5jwV6n7VR4WZfz6duNSm4PbXPOAcBCEAAAhCAAAQgAAEIQAACEIAABBwBCnkOyF1Pz3na666GfrFyCnlfDBx1EIAABCAAAQhAAAIQgAAEIAABCHxHAhTyvkNU2uuV4+ui38G8u9tAIe/uIcAACEAAAhCAAAQgAAEIQAACEIAABO5PgELe/WOABRCAAAQgAAEIQAACEIAABCAAAQhAAAIQ2CRAIW8TEQ0gAAEIQAACEIAABCAAAQhAAAIQgAAEIHB/AhTy7h8DLIAABCAAAQhAAAIQgAAEIAABCEAAAhCAwCYBCnmbiGgAAQhAAAIQgAAEIAABCEAAAhCAAAQgAIH7E6CQd/8YYAEEIAABCEAAAhCAAAQgAAEIQAACEIAABDYJUMjbREQDCEAAAhCAAAQgAAEIQAACEIAABCAAAQjcnwCFvPvHAAsgAAEIQAACEIAABCAAAQhAAAIQgAAEILBJgELeJiIaQAACEIAABCAAAQhAAAIQgAAEIAABCEDg/gQo5N0/BlgAAQhAAAIQgAAEIAABCEAAAhCAAAQgAIFNAhTyNhHRAAIQgAAEIAABCEAAAhCAAAQgAAEIQAAC9ydAIe/+McACCEAAAhCAAAQgAAEIQAACEIAABCAAAQhsEqCQt4mIBhCAAAQgAAEIQAACEIAABCAAAQhAAAIQuD8BCnn3jwEWQAACEIAABCAAAQhAAAIQgAAEIAABCEBgkwCFvE1ENIAABCAAAQhAAAIQgAAEIAABCEAAAhCAwP0JUMi7fwywAAIQgAAEIAABCEAAAhCAAAQgAAEIQAACmwQo5G0iogEEIAABCEAAAhCAAAQgAAEIQAACEIAABO5PgELe/WOABRCAAAQgAAEIQAACEIAABCAAAQhAAAIQ2CRAIW8TEQ0gAAEIQAACEIAABCAAAQhAAAIQgAAEIHB/AhTy7h8DLIAABCAAAQhAAAIQgAAEIAABCEAAAhCAwCaB1ULex9thObyelt9ezK/jcjgclsPbh7+z/H5/WQ6H4zLeGZp+nwvZn3WbpyzECyPj93J6PSwv74XczZj8dVpeghiISV/5mXw8/voKjYVtlHtfof3WOnKuRGNuqvhjOR4O6+xdnpyvY6p8/UbSu2XbuoQvvftVOWz574jfl1L4nDLrW5L1sRxdPn+8vSynvz6n5/a97Rx+e3230DCyH7XY/Mvxu9L391XivGsO2ePn6PlwxcyTe+K/p82g5SoXxnF2FbF3FFLyMK8r3XxhjJK1Z1p/yv9uugaq6w3RlT/X56+8VjTtla31uqwNjW9nn2zlfWR7tWWNsdixZ+xttvmkDWKL+zx7bllZnzvR4ekl8+J6HqzvN0IjnupiGe+fHQeZsRv/JVYlz79mT/IdA3PZd1Ni932Ybc1vO7lvzlF2DbRT6t2a7YlRHgMyx2/6v98Vq/uyHNuvTbVMPrhxru6edRjNyzfN+cq/rVfSGkBic5bl88arhbycDMGivoPwX0b1S/tKwOdmX/mO+ZKPZWef1+CvyJhxjDXtvfqNWF9xotj2/hv5vW3sF7TY+hIaeZlJ/pYWfmlefNKRL7TV8t+K3yf9unP3Yd7M8+T6RvjOJlf1Zdx8dqNxT18G9juMudp31bXivGNcXuLniMLPk987/nYOGb15tCt7Ylhy088dNW5ra7OLYZS5efhHw5zbG/941nT6vGo3Pn2wzWymeyezHWNv2Wwzs2FZsv3B/mITzCVzS+7j9yubmlqDS+bF7fg08T/woIytz36/ZsZ6v7mZjz8Q9V6Xvxm7q42fb+bX3nCE7S7x5ZI+kfJryYlkr16bf4esdhtuTr73ql+fnYsGdenCZK1w8XdfqGRZVgt58Zd0gXH8FW1ArzM5T2y93eUdX/Kbk8qKjEsWAdvOXiu5tzVttvjSAf6N/N4E8xUNonGo9Y68vmwT+KV5oX2+4PgLbbX8t+J3gS/fqMswb+Z50m/Gv5HBzZQybm7y5d503PZgYL9D3dW+q64V5x3j8hI/RxR+nvze8bdzyOjNo13ZjuFKPHbkyEU8VtZ02/aKRp9Xcv3zn9s2rOhe8a1ZtofrZpsVG5a1e82K8eCSuWWPv6OmduWSeXE7Pk38Dzy4zl4xM6aQd5382RzL11GzV8rVxs8382uv/2G7S3y5pE+k/FpyItmr1y78nvAys/3x3uOS+d2Lj86H+ak1us78J+LWC3n1i9ZsZhqMAtfcC75gsyPtNYMYohgTwRyvjXqtDvcvpdEXuE/IoI2R+XpaTrPXjMV4I8PaOPpQgmhfQZZre159cG31v2pW39pjnDv/pdr4e9BxqrqMnDqwkt7st3p1RH2pFr/7Pfv4qjD6yK8hz+0VXVXO26m0V3okBObT22V8Mi3biWXQX41ODbIvr6flI786Lj5F/8LrYmO4VVUrMRI9/XV2538aS8b3os+yFZecLTVPRIf1Rce89Pc87OPAO+Lnx1l60TKNo9nrtkH7xv6MHBf/OkP5l5HRx+ypzxXFN8tq85fNCaE8fHp5LvesfWvx65KFm4wTH+/V+5nry3L6VV51Fhl57ja5qPmIXS6HMht7TdvSffN5+7L8f/9v+tkFGTuWpbVf25EYJH0vy+m9/qSD8DS2J7nReKwMc0yc3OBatiP7uCO/q+iLcsTb7ueJjfvCOR7DI/v8KnPyV77LUhyyTolzcab4clxOK/Oc6J6NrzUe63FeFvnHQ8mT4/va6/kTP5MrG/xq6OqHzeeSR3viL206CeufzXGrM52V/uJj8rmNJW+/mpNyzxQflzNWt8v1rNzz8t8lfX4W/mZ9l2U4Vs6G3CT4v3lOjDY1BkZO0TvaYxr1E89Ps5VWe+bptTlF5Kx+Vv9c/FIXz2Twe/BB5jfPLIp11jBfK2XfRV51wOmTvDR27WljeMz9z82COVieYpAcPMh8HzBr+eDsMmMpKTL+Fpta3/z9ksaey20VsxIrzUva6mvG8bLW2RwfSU7w3abWSo2DkVX0xzaLbZO1lme16qfkqfbT8xvnDZMz4fd3sbHHQPRszZkBY7Hfj2fDq/arvlv7RLfy0TMyskb/k/Q8/5p21tZ85uW6eSnnmexx3Fp/e37X+pyNkv+OUePgrus9xvo8Nc/f4TtY4iRmDiyEf7G95b0a/2Ut2NeQ/jswYhzOY2JD/pSxVC5mf4e93myONYLa/kZsb3xrMxtD9X2f7l8Uo5i/+JBXJpLzdS0V22YZVBL9+yPMjzNzTFC5uK/Hp9glNps1vpMT5oLobHz3xTF38z6bPKyCV9vUPPZ5r2260vFGIS+YnJLhdbIyySJfsmoiK0krg1MS1SWvdiQHRoOWAa2v6YST+ys6Mmh1P+mTxJbfdHNtvN1tIlO+abPzsZFhE7z0FxtqYhpZ9ZoKuLdh0Bf9a2a2QX8RVj5G1yhp0FXltEnI8Sr+qJi4+0nDrE3/4pbYqXyocoY2yv5i67gBMV5l+5V98iW7sijPcpUenyNRDgzc6oJQfwkObTxbsa3qznqaHZWRyguxqzPS48FQqCejjOZLkzvmycBj8G1H/FxeFBY2Ltbi0VbZ7DamO3LcMqwagpwwup2t6d5g75CfRkI5CfT4HLD27Yxfywk/f0kcZH4J5tlqt/4SLDbZ4pe1s85J6sur5c1wrcfU+jb5/lD9O+cV+yX39PidxUtzMuEZOQuDNs+Zf7gSrmvz02dyRMmVXBPb9+a4WehXe0WGl5lYVLltLGU+lkuLsZej2PsYZzE+7/252KPkiD2N/zC+JActKxNWkavsFbl9jhzZeBnDPCPfr3qjNdhX5IqenE/ajiBHrV7JsT5+8v2JHll3pTY+Bnbs9lg3tuJPm/P7PLLf/hoPJWPQax3MZ6WN8nHwL5gnpnKkAB00kEsB95LXyoY9+VnlpE1E5yhK9n7WGCtmqedgj2cS+ODzy5+PFsW6JdeNT15/m3OV73vaDEbMbKgNvZ974uLbeBkR39xHvmOKTZL3vTjg86P7XuIl/es40GN98HtfTnfdIrsIGmPrx57Mjd3mYmP6TvfX+vm4fqzxEV8yS9Ve5g0lU2wu+VP7r83rLZe0j8V+iYHYbnIyYOovZU56bAW5YPtE+eiu5VxZ20eV9mK7yB9jJnfqZ2CbnweEQyh7lbHTZdYy/ftAf4dke7XMHfaN+SN5qGM7frfInNP0B7o8P38ueafXLzMfOj+xr49lT0rkSu5JDLqemh8yRkYBacYpRS/dxvhY72veNc9Er6xbGiNZ2+g+RmYyRPyz/LMPYkvto+cF0dV0Vzn9PMmuNsv4GnSX+4119ecs+5tta/FxdiTTNsdoFCRhpcd21E7k63lQ1vqKc7ZhvU3LJR3DicrPXN4s5BVg3fg8cCSw2ZHJvSHoxcxxcGrzC+iWGFnGy/LyqoKsdQYgkzSjQ7cXVd423cbfy31qIsnAEDn6U8twk2gJZuIUy+n3tUDHQt/Kxz65/XntEPqjhE3uG4ZtYXRcPmr7FqMkapAR2279jO01esP41sEoOahckcMsw98PZUmP2Ba5mz6L7XbQyiQqLKx/0tuyCG2TpqJH8ixz9Tq9rUW+nYCVQMk5xSO00/CJZZrYBHKTVtNG5UXMT9tZjgfblIzhi0W6mzbjJjc3M/5JR/XpZIw5XdoO9ikR6TCMr9OdZUiMwy9QJTTb5XNA3Xey5U4UB8nT3Cb3U/NqumhkBeOsMjJyHDfrm8uHQUc0dxQPjP2VkdFrbC191v8/Gjflu6XJNax9+8Au57vovyhHpPNkXPl8DHU4Jpahj68otGO9yPX5VtoIJx/jLMnptrm0L86DvUlwluvyVEyvn7ZfHDfPz4kYF62TOES6CpeJ3lGRuhL3sTpqc5drJgbunigwckxuSwutXx/LffsZ5lw0NnW3iW1elrFV93fHuZ16qjcqshk20t/ZkeWo78TczOdwulj79ScCdhQSRWf+jLja8STNDZPIFmlYP7eZVd2Ol/gi4zmJC2W5sbenjTMxGFe+hZ1/dsXFsdkTb7uPKVy6/1E8bNx6bOr19v3t/ennIa9+ux5Fui0T6WLllTa92NBztfvVr8n60Mqoks3YcPbke5/cg4VzhNLj8kz83fM55IvxJZbQYxn5b+PeJBi5Pn9Kq5BtEzBZlxq5ss/oe+rc3bURkev6nI1uzIRyBz0qRv+nvXOJtS27yvPuREorfUwjUhpR0ozSiGgkUhSFBp0kR7ppAA2kiMJEIgTx8FtxDsfClomKNBDCKYNifC4YBxwogeykMC4e5+JgC6jCBgNlFy5cl7IN5XI9br1nNB//mGOMOeZaa5977vU9+/yNqr32WnOOxzfGWnvP/661D5xijSLCRDwmjE3bj+JRPvKmtzHUrYy3/v2cMmS1v6oNnCOhn7V4S27+e5NKaDLfxBuN0cyyOf8+PLdcr7U55row8LUMauTuXBh8799jJV/3uVt5L33Hc3FMvpuNbBR/2ax54jOwvrrzDWxcnP47bZSLH5PdIj/t09dCwjvnxrqQV4qHBvXF1u/1NoIfAdkP1DFqAyc39vGZWRzr4+EJl03qE6Jsuzh8Q+oxeluFV/wufXibebbBa5z1w1DfFVPN+ybtTnWufS+2/LzKf2wQPw7z6+syQ82t2i/N6DmEPNEzyp/pJcsIozTnEpv3NTuJYcC9FnvyRTaIqY2vHOwdStpUHIsWbuacex1nNeqeZn5wkZKLgVxk7HnXLWFrjCv0Ufo34qPqnjlKPdbrh5iPrtVHKvFBicjCV9dLtS7owxk/m+N++bUonF9zDdGB+nH6mNue9Z6Nb7l+Nn/nQD4kwEcd1/WMYi77XL31nPALQhCrs21zG7+Mea7T/Mz1NPDb4svnw3jNUxzUpoktx43HJ1pPm+PtOuNt6+uTz0VcOSayv2zMehijZsf373ETazZvmFp/ODctA4zR1zn3JRFDTO/AV++v9TrH1xNcQxAf3OlXm+c2fnp+3bZ88Y8Gi/V3PVJznH+GzHxaH8vxY6yu0zpb57n1p/8sWY7f8+k2C3/5POr7y5bvCxx254itIQYtvVZOkoMsLO2cnlOuS7xYKL73+o5QbaEW1qN/F3BbZIJzpuc387POLPDdwqs5w1cdN/gxNdoyxuee389jqKNrntH5Pa3LjJ98Htb6mHqXOfic9LlEMdi4ax/NvsNHebdrpvRVj8ncGdM+x6L8NR/pc/n+VWO2NQvyMDWM5vQawVbhjvM5c7vdNViYY4ulfTeE75jkfK+JNQ8z+U7muTH2+rnMqAqnvn+qnxKL1Gfiu+2eXZfKfmfDxqfsmp5W+8umizEa6zgM7MocXCOU/TIP+4OeC7875vk6pjov9/Ws9panPR9VNEof0PbVCJ+nOlQ3bQ5RDabf9ZqtaY3WjmvG56lReG6572imXip5488yqKMc84Gj423sNT9mTvUx1NuMUfHJpotjpb/MP26IjWCjxKuuy7jmuaGlD+U6jr63g7aMQf/Ltdzc5Wzt7ftuXcjTJ18Bjg/D6qokkAGUYz3J2tgKkoDI+6wNE7Rqhmy7fMDlfeXiVguKD73whMvGio0Wi7InfnzjqDGzE3LqC0aVDRQMDSssrh2lo8zBNExrUsNHcTNj4Sy/xs0NNn2kH9ePFCvmt5CU3xKPrRPyGHyEPL0tvEeP1LjACFGVfmofZHobx/Or9JzeqbdLLZy/sg++9WC1beZp0cpdGNWUHsuWOkYXS2UMX0Tlg9zZLL3g67lm04+f5OL4lLzQk2E9qt2l+uGLQf7imu+qXTzvFYaBqZwDs1xtjuG56vJT7upm2MO2/8tAP84bMj2kr0G992x8s5yqYTvWO5vUMg/T+UYxl309pmJZzwk/LINYnW0fb6ml9LOLC/2OPhtewT/wWwJudVfzhgwF6qcAACAASURBVGuTRqZyznGW3i37qp8ca+/nDf1deCFG5cgxUUfy1SudTASFOm52fP8ej9n7eK0/Xz/E3s/JSc+Z3jlPnWscnb94XuHlxWKbD6yMn5f9SN2yfDHex2OZBj1SOOCzx36GeI+xjxp//7KnbKlFj65T2VbngJ2Lerf8MC78LEHdlE85d9182MGrXKNdlhvPEcvV2Vh725hLrdr5Bw7lmuDPSVOn+Do9dwsWYDsfiRqb73zGt2JdWOprMvz0Mfr6ts6szQ9ro883va1z0efSljF6LraXYgiEF8NmUpcyRnHaXG/Uq8Yk/RJek23cco6F3+GRq31dr08erxn3+WUuzq3w+1dUj8CW6ft6HOeFfxUehW9lleMoPZf3lTgqF/Shvg716HEdQY2CuFreOYb6D70Ya6ysvimcdH+bfOfT+zxb51k97Hns+6f6KTblehn43tCnEU/pPfSDeUVPe38uRlVTGelZ+fdlTr/22H5BvZZra+dUW9JnWMOqfNBXOUbLs9VJjTW2Sw/UWLp9ZBrFiGPFk/mOEdXAfJ/WU9t2OEeNmx4vjBvL89Rocv0w/kpdUS8VlPEXMXLnhu8PrQ1ls8Ze82PmTOpjxqj4ZNPFMcnZnqMyedNG6TUtrJVc0Pu6PorjljEz7y1n871gNnbD/g1CXhdOTHM047IvJ6UuYmX/kmA3C64kmGHl4jVo2Fd+rL2DnPrQDaW34dM3jh6jtzF+uKioA9g082rj4YJi4izj9L8M+yaFwbVXP29ykviTzZk1sblj5i0ar1xI3YdHyLPXydiRN5YRduuLd4lN9VQd4/PGTLxOjhfuazHBBi5KXXRdj2XiV5nElwT0hTnU3hg/YczeT3QB1pb9+A0LcV/PZk7XBhdNn4sZY+zUODdduHAumfk5iG09bhgCRcgSB2cLiqBfSkzB/mJqZF12O982vuX6lbEL19HpcTDMAQwcsc/lYeKMWAexOts2N/9lDOdV9zuNX5UGdddf8szh8qax1x/Gw6Aef+7Tag/78IpJ1d5ifxtemDdhK4erH29XDl9gj5tzMTvQPSEObd6+fnWY7etwjGfh3q/XOeYd9q7EXjdsnjO+E/tiy+a46fq28tlaeffPEHElG1FMs/hlUtnQNVhni9r3865a8zlbHzb+lbFuqrx1fSD73XXU1lBGbdywsYW2zHXKjhcns1hlgNrYPDbwtXmu8ieL3l7DME89BXO00CHHdZ/VGIdrUsBseYwYVxtB/uqovSZNxnpe7n3IwcSO/sf3Vp+vvQbW8Gws5hwr/vH5oZOx22Fcdoh8pzGfbT72Nsfa0/WD0SAPYyuag7nqtczJfZYZtH7DvvOswcKFt46lsR6+66uYJpuFie5vk+9kUt5dath/Kqjz13Hp+bpn9HYfY+vT92MrPO7i1dd1zDO9h52rry5G5KvnOd/DZ607z/TUvh303PQ7TJ81brUeUN/fLK92XNd6MOJyxnGfJ/bLq80hqkHtl37tlaltY61G0+O6LnobDnzs/n14brk1Xpkzxm5jsgyqe8d88O14r8Y/ObcGu0gery6OaX+5eDB9y6uJwftrBsz5sGXMsmPb38tj145uEvJw0Tsxdyw00wXAScrHzCLdJN3DCE+SfljuNDs6PimPPtW/B9caIN+GrS/2Ex8GUDSm7FMfxOV9+5A3BUVgrWjaNw7hVdtwX/DtCTPaMvHCnrMhu2XDN5J/3waG+YgRe+eO2m3rpGOutTC19j78e9hdYIQhhkUZ7y9AgX9MLq/1eP9grgeLXfUhYaZM3mgGtYZxLPBlYheblV39AjypkYy1F2DtX4Y0tp1/nK+MD77Mh3Y1a1MnWGrc5RzQeWGME25cH8QM+9y+1XI6zn+lFF++89EJv9CPnte4LtXf2Ri+1LTgag7W9hA3/ohOO+B7z/JfqZ+uS3fUtybHTS/63PLsss/1s7FV47ILtyBWZ9vm5voh+zU+gvctM2sn8NsJqK31cYXL8Uk6kb5qfVwe8dF13b+/Echyj0x6GJP36XE5F9tkx9b0QB5Sjusc807LLI69jkEvRGPqPtVPLpah7i3kMq/lMcQrMavP6jZPv9h5E76uT/X8uu3nbaj/6me0vZ7PfIJrHAdmBXVC/T3rNkWz1duwiGtc/yyRI7Kh51nOGBJzwlH4wGck9he7cg4G1wkMxOskx3pYx6C3MRnXf/SRZYlRJT/5jKh2pmzCcwmW9GtgZ9aLqzZt3HE9VnzL4Q22SjxgNqmRGyPmZSPIf3rMxoRhti64juFas6XemINrn58T+bVx235tx3D+IVD3ul6fPCHwHfZBHdfXP/W9vXYEtkyv2Zx6uH5e43NRa7AoR78YX+2jHq3eKoy1uGPy1SP9dsv5XN8xI45rPdGYXu9/4TxHVPuqn2P6eisRFzbod9lb50570PmLesqzWnsP18aW752SVf9rp5hTXqOxeoA97s8f/77OtHmGY1Z7y/rdpwYS/aRGa8dNvIZrm7laExs7/JkcvI02yPj252MZU23LZ+Bgx7IPv1+6OcWnPl+DcwA59NfqR+LY+B25z69bNl93tMSJcyxmWubL94MNY1zuzuP6k4V+wsL7bUJeK3K+ldV/IcMHUXSsJo4PTyweIxs2QlzceuHalwj1aEmd0QqsvhDWZlI+Gsz+gdeaU+fiTiAft8QzvWguf1Go80cOQ0yqwYc5FlEsarQLVrfb+CzFnb9KZBFWM/QN6C9SzY/0gh8vJydOjBx85e5j6+9rgiUWiXeMv8bqRGPDZpyDnoh6tE5tcxR/H2/UAzbWnqPu26GOnp2wqv1RxiP/YWyLM98ViTGNq9TCsMhvxtyMD4zXNR7OGfSI7pNqd7F+Q1+0WCR2OB9fp3VuTLrfwKbn1uKwv03jfA6xImfVwwEXa2Uei+49yz/+QOh2A5vmXGrH9fk7yd/0SMlF5ZYd6h4wPhBNEKvjZnNrDHW9jY9qt9Z6vD72eAO/gZ3iW3NA2Pq1sennT/8yrc9bnDe9z1SsKp8au+K42iPgrD6j3DUA16vue+wBz7lE55gM16dyXHEukyzbylBfX3AeqHmNodSn5WzOLxdLdrVa54FdjU2fO7UK9v9xnuNj0rrm1kJ+1xjLZ0B932tQZ1hfeoyfn8fX+L2N7lvP73shful51u8oEK6y9TVDvvJZsiX+Vg9hhHNH9YZKA5s1tuVzxOeHuf21xRed366vZyxyH1WmzZY6j3HOmV5rzHQdajyTuvVg1VbEFdwUE98rwfnjr2+bmal6IbBh7pZzb8sYOJDXOP98eKgTenJTXTq7wY5cj1BvXHPRp75+9hpYQ7dxe/bROSopt42BsR9Q3ge+B85gpb9/RdeWuS1/rdY9HcUpnwOqdypnxbTE3zjp83K41gRx+X4P+yEEZnaWmFSMqIvka0bbN8jHfu6jV3SeLUfVl3Uu+gnns/3ctN5Qwz4Hsfbr0nhdhw3vD3Pneboed9fIYrf1mdjw7+V7ST/Xxs+0qLZ9rT/ts3Nd36ovXa/187LN0et9QJVXm0OxqWpdhgXxyvSyMfaIZbXhPDlXjWzsiMnkINdDVcfiS38HHeMfzo+hPy6gx6LYkIS8ttj0ed7i7/01xi/TsQFf2k47VnKV/YGt5q9/P9gyBue84m5iCfbj+J6vG4W8FrS+WCtHteBxUNIM7dl2uWio+cPm0GS4UG7xEYxRRaiLDdf85bi6wMqHSntG+tppOs1ilz+5deDGRuWFJhsuNmJfx9ovOLlZjLCm/ehtyUvZQbM23vqip6f67WmdYE+avM70NZf5ilHNuzGUL9HwbBlhb7GjbMgCS/I5nfxrDyzk14BlywM10aPrNnq8x6vZoYan+jcFTZywGPjGIbyCKXJS55W5AMsHaY8px19Zo19dL8OHfnV94n2UoWWM6iOZ03wfn7m/3Luhfi1Pc843u/M6tMDbODMXOXl+rjfzMNt7eIRC5Qdb6nVLD4fxKBtbes/y31A/uV7YPtBuJfbSUy7PqA5lnxtneqDGZesUxOps29z6F7rhAzDHqepm49dfMHKWgd+82/eo/GuZJuO2W7wmr7DXNvR3M217zcfu/ONti6Ne63NdcT63Af64YpVHDJzzTlO/gH057vw4trB7tnKdszlH55e6nqrYl+tsYy49c/20/K7s4nmnWMk4ta8wVjGgBMOr9FM+L7bU349ROePavujXz1cR+fjdZw3qpO/vWGNra1YXqnUOemJL/PVcnPatSkFvet9SpzaoxOFy1POx7e3EtfV55Hq2uKUeQR6Nubk2DN8l8rnqrpsILnxtsYjfPsjnYv3ifO7X/MGv6hHPs3rxHJStiLWyNz33tozpKeYrVf2+hvNBv0YxDLxxbQmEFfkM8T6CeptrXx3feUefL81mq1utFc6TmmA9d+a9sK2nI99B7YfvX3VezyHHFNhq9TL94WoYrmvatVDPqwzifCsL9JcfE8TVYjXxIy7NPOyR3mDFrz63onz7cLsV5CgDEAv6Vfsog1zPoT6L8bo55TpS2eC7UGE8sWEZr33PcD1u+r9lGbASHyqG5etUVFtrXz4rlM0yovGX4/66qmrQ+7DxQl3896ZsWM2bXsdaiPXF5hDWoMTq+9oYKW+EX4vP9PfwPd7ZO1eNbOyIyORQeByl0/JY/OwczTMt2xy7P78kv1LL8/WYrQ/iciyQCF6lV9Q4V2ecQ5gSv/pzsPLo/YVZlkX5ft789ZpuGRNcy3Nv+HMBbs/5ulHIO6d1TiOBAyFQP8zsF7kDSe2eTIO878myMCgSIAESIAESIAESuNQE+B3zUpePwR8KgUjAPJTc7lIeFPLuEmi6udwE+KF/N+vn/qXnbrqmLxIgARIgARIgARIggQMlwO+YB1pYpnXPEmh3w5m70dq+4Y7XezaJezIwCnn3ZFkY1L1GgELe3amI3LrNC/vdAU4vJEACJEACJEACJHAFCPA75hUoMlO8Rwn4x1HtT+zco0Hf82FRyLvnS8QASYAESIAESIAESIAESIAESIAESIAESIAESCAlCnnsAhIgARIgARIgARIgARIgARIgARIgARIgARK4BAQo5F2CIjFEEiABEiABEiABEiABEiABEiABEiABEiABElgU8uS3BORPPeNPF/fX/qd4bwfmWToxP4DobbUfRIziWJzX7LQ/Gzz+iWHlZ/XPS99mDMqV3jw7Vn9OWR+YbZu/8FJj2qcG5/mtt+U+uOp/ybU+879PDWalXd5f/Sz28LKBu3b0PD1214K7YEd7n797+9//HN/bRZ6w5Rp5LsNbJq1d/5uNJx9Kb3vDe9M1/d99D6Wntrg455hH73f+3vDe9MCnF4x9+kM2Ph0rti8o5kfvf1/66JPzWKLYK7sPpUfn09qRp9JH73tvunb/Iwsj18fcXgyx66c+8r7lGgzTHkkPqLrl+df2qUHru8W6e58rfbCXLW/7AN6XvtinBgeQM1MgARIgARIgARIggYsksCjkWUdNyLoDP0JfhKJFQW7mu+1fnLtxkbpVyAvyr0LXOQStVZ+2AuWdEfKC4yu7ziOyrNdnxelBH6aQ58t7nh7zNi7F+/Ocv3sndvhC3qbrSxNGvABShaItwtS+4JtI5cWGJuq87SPb5MMiGr3hDsRXeGwQ8nz8KaVtzNZFupTWx8wEm8plOf6wYucR1ZIV8kK7SzvP43NDfZZcHvqxWV8cet7MjwRIgARIgARIgAQuisAlF/JSSluErS13m6wuymdiYi7F0rGFUq36DOZuyTeYhl3nEVk2LbTh4Mq9UsjzJT9Pj3kbl+L9ec7fvROjkJeRlYV/eHdYFWm2Cmub8RfxJhaa9hHn9hm7ObY8cINQNBVLFnLrMayLdLcj5GU/0/h6EOPWeUQ1Cnkjx2/wnnPV/hscM92TAAmQAAmQAAmQwL1E4EKEvLpw74/bDo//NSFtJ4/G4u61JoDJ/tljpgtCWSRsOX8n10/T0W6XTFxlHmI+SqfXT9JuN/OfS7YQQz4cLeqNj+yr2/fM5NFMF3tmNsZt+clcsHB+9fxRZKlC1G4Hm2N7bhPysh1wtLmW+VLjXdqZOyir/5MbiKPVpNz5aPfpPEqUnpW6W3LMM6Vx3yiS+FitzyjHGqPUIHfK9aOU66b3jVTVnpLHUTq9UfsU58no2/XCQv5i3fWC7sGQYdAHyCeOSzzJBjifNg51XtBfW+IXq23D5xP2kp7kzts8/9ppOj1ufabm75OnH6trvdxDOra+PbeHHj1Lp9dazPlcUnHDirdh+6eOmsbWaqHnYKzeB1/y6mvo4ioxuX39WtlqI9eGfn0U+2Vji6ikZ7TxeJQ1v3oRsAlC+jFdc7ffBqFMe5xtT4U879/Hh7vdVA6Ir9rsj/zORMypWBIKeY7Z/Q8Fj9ZuGWNJTGPIwyJRznNRj8RW8bLnrWta/ChW9tFZe0de4Sd3Ktac3vaRR2q+sCHH4zjhDzWxWW8TWiGEPvCR/si42Cv9p3J9gxWVi//7H6liKGJud34ittLbQ19VFtL3Os+o54N98I2cl/ux8vU5FhvaN+qu98EBX0mABEiABEiABEiABAYCty3k1cWjWoC1hZ0sbGcLRLW4KwtG9X6Iciqi1YWgWWh6/6mLQTKuiQHyXhajKo8hCCcI+OM+z+LD2qsLYyVo+DHehohCyk6ZAxtY5N+s0bS89CLf+6z1wvzGZpF9Suv1ye7BGbZrSOPcNk5EN8zrOXZBwu/r7/GbXtJn6BHkUliq8TiuxFTEXPsAooKKv/GUPglzrPEjDsTe5/hGCd5H/TfxLXbbHPgVoRn5ZzfFhmbQagmxLug3X6/V8ztIBwyW+nC1foHdMR9/TtZaCKNiw43BOSL9Vx2dJ89pPOCbTQ91HBPz5yj6stYWfalE3KH2EI9VrYcxzY7uD11/vZ3P5iJ0Kntj2JLbUg8WrtqnMOm2fc9FrrpYsPaYahObtIDRRAIRvAIBqdrXYkkXPGReFNjKvmrXxezjgWgnIkaQgxdU/PsgjkEsaWPyfptT8yf+8fitFkC3jBmDmMVQR7q7KbfUJRgz+mi1kx6o7yGSlZpIri0vLRj6+jifxZ8T1obMN9QHQt41byuYW332PqrvVR1bjFmgk9r6PNqdiaMACruWU84JfsAOMcPHwGLwCb763HJ3YyJ2qddAkztIgARIgARIgARIgAQcgdsU8qyIAdt1UdwEkUBMwDi8ri/k+mIWdwXp176QnIhOZjHtFvYtiGEhj+DkNZ4nh5vIAxGh5OTEgmHh79iEi163wK42IDbVmCR/Z6/E5ub32rR8/CK7JyRb6/XJQ6NeiIQVX6M6ZqdZtZglr2ze5RHGZMa4eMqxo3R0TQkihddyn1o/zmYhpPaZPhN86xtRvhBTpD7Vj+kvOdZcmPwbZ801D9M9orfDKFVu6njvIbVTbcbnkrVlubbJLn5lsmyu+UUPglGd787bMGcbG/yu+vO2/PtmKMwVTtx1Q3bLhos/tLkh/tb/p0+IYbuh2Mf1s8NFOPb9pezkGcWW71PHaZlP99vFvH6nEgQFGVVEASsaQHyAgGGFnDaziQldsMj7myAkdzxlvxA9xOPiRiTkFfFDhKTIf/U75KY9BWKPPpy3IcLI3Vc6Dy2ahLZa7hi3ZYwPADH4XGVcFXmQ56a6DHUaxSfJXfzaMdZPE5qQZ4vN1Ej5rPX0/SUJ9Y2QVz9ctxZ8u3j8o9S1troXmy3JOXuw9qNeRI/XGtjx9dj70tvu8+Jgy19x0ZlZP95mHdn5uj7ThrhNAiRAAiRAAiRAAiQwJXB7Qp5bkIkXs2isi8wsvBlhRgZ7YUcdkM14MZsPl0Wg3GVVxw1+zOKyxmMX+07gEL96Yx5DHTWxKzHisbh+J4oRVbQrLIDlkbOJ+NTuMpN8Sz0g8jWDJvd+504WtJYep9XhVMaIX7+qXFYFid4HRYSVxX3dLzkUxwFLk0c0J0+09S9xQ2jIbI7Par+0ffr4VLQxPR7EBQHz2p6P02rA5nxRB0w9te9t+StL7TxB7VC3amd6bprclbVZvG1IKN7gPCjs94+/mG49kOMdzt8yQDNCvO68NUzbmHPm6c/fbT2EuFZ8yzDb09hdehfn0Ib4p7HBYGN71Po45ovB+XW5hhDmw15w8ZpctIvpdhMHRJiaCCtNaBAhy4sjWerIf8FU7Cz8RdoizHQBEaLgNMR2wIoaeWcVLiBe9fk1J+wXEc4IM320F3bUEdnsYonsKhvIGaJleT/4sQLMljHWS303i6EetTnr+YgRtUGs4eO4MrGJQqin5LQu5IE7TJm4Wx+97b7aKxILBkevvl8Qk75jrglt3rc2J31Q5vc+N/G1CWWf6XFdQ72tPTTBt80zdc553/dQelT9lV9zfCZWGoEvrnGN/331r1BLnWxcfEcCJEACJEACJEACJDAncAFCHsQB/wqxIDtvi+lImMICH4vSMFa3GDdj9IJSb+tBaoHfFqzDQnVFnJAcIAxp83nb2y2LVTBpLNwC1gsBsFGELogVoV2IdW6RX+zjWAvQza8L+vwbW0fldwOx4Pbp6PfbFtqKsZpc5qLurcbWXlSzwJbJox4HJ/8qoqDikX2Wmud9JY7KDn0QCg45D1OzIK4maOQYqgii+16BWNosuQXzVPwQTmq8++S/0oNL52bxj/n+NYi35ThjWequhDxfN7yX+oXMfO46jqg+7tphmDYH58zT9sbk7rPsotjXcarEonjUYVx3PBNzDm2If1YTcdXOr/wbittE/oh1tmZ5h34dD5OLBLRxA2KdCBhNsIBwUvY7EQNz2pgizBjxYdl3FVe6qLI0ugpS+s4pJzYhzvaqRR0vZhnxcCaiqGAisacetjxm48r+xnXLGOVaNmfz6gAnam6pS1Cn4gMcmyhk/V6MkJcfgc13p226K3NDfXDHnK554WJEwNZnzp7Nr9Is++Q8yPt0nd15AV54xbzCt/rM/VdiK/tqD2cfEm+JSfd2jcOKrdWvzGlDSqzZ931VzPPH2zC+kAAJkAAJkAAJkAAJTAhcgJA3WaBOHMpCT+6iu7078iBw1IWuE7YQQyACQcDBkMXFdhlkF6gyDxtmQT4Z6xaw3me4oDWxQxSAWOfyNTG0wNz8srDGb3iV8bO7m5DYlvrkscHC3vmGRZtnnWeFijVb0RxYV6/Ff+7PzKn1KfaVPyzRe9dwUSZqjcA7iMvcmdTqvihKa+NtGzG5xx5tTNr3lvw39qAJp83Buen71YydvwnFGyPwbIl/br8fqXb6naWaEUY5DtE5cs48/flr6wX//pxV+/Pmqu8avz0/3Dm5agN34qKPXQz5rTlXG9fZP1qU6bMa2njDXnDx2utBENvKLiNqOMGjTtWChvt9LtgOBCIcGl73GDsT8vYVLiDqybwwTxup4WIOWR7F9nBX1P5jjIv2Zh4D/ohEF0TDsZ712vvQ78UIefVOvCbEQviKks77NtQHQpvUtNiy3MW8sxexKvtMXNqW3harwUZnle3pnB/4dD9WJrqYxFipEepa/doc7TlYexvjxQo3SIAESIAESIAESIAEFgjcnpBnFn/KS1moLSwaneizvpBzi3HlygtIoa0SDwSr2FZdhHdhx7gob+J5dZw/FgkK/jFgv4ivNvyCvcaF2DEHbN2ciLurkRUbWtwrwlPIdAAU5BzFgzvYxGckCAS2TB6eN4Lx8xqf45N05P3lRwhlH7iO9be5e/vZr4vf9BriWnltufnaF98ipmjfW/LX47v/YhNCXd+tttQ8w1wNCevaj9sew37NaUv8mLfyWmJE3bQPzKv75M7TKPZz5jmIcMU2YoF/J7r13XVr5lvGtR6+3v6gTdtv+nJmQ+c6iU3cOBvnvh6GdnC9qt68bZOLBKQ2vHijDuVNLWCEolSbX+9oi4UFCGV4bDISSsStESpkb7hR7eq7lmaCihNJAms6zy1C0TwHxyAUZJxgtWXMLOZBJKwDbXwupmbL18Xe7QXBTPPNE1vs4teytT0S+zWxuf6rMa0ITyEvDyjybWPFjBKP+qMYJr42qOybCnlWPIPdSEysdj6UHpDfg2xxlkeLFWvHBTZtz0c5+lhcr8EQX0mABEiABEiABEiABKYEbk/Ik99y04tXt5gOFpB+ob+6kDN389hchrltIdlFkbaQx6OqeXqJSYljbU5+rGz6Y/BrMeAutxJeEyoGoag+nih3Azo2JRdtR+JSvy9Y5mBh7Bb55ljjtLawHnhZvvndwHgcIoKW5JbHBLZrjpkDcnD9UmzXfZEt2TezrZlLf+7K7+MhbMTQeyQfaTWTuII+cQJ0tTfGP9QRjmevLRfTf643IBhuz39DDw4+xju3vOiCOCw7m1idkx/fPk2QnwYmG+unLfvrRj5W7IqfMWfUelHIkz7R5/9YVx1L2R74bemhwUr7/UKcD/l4s1NE3Lrtedu8Ubel+Ec2ppatHtJfiEHYjnHjOtpjC3wURsvXWp9L4Kn94YZAPPGiWhFQcCdRtlSFhPJba/qxSxEpcGdY/f07uXOoiRTmcdYW2CiYRBHXfVbUaOOabfEFMdIJT/p4LGAFPFQokdiTD48xNUbivwkt+dFHEYa2jFHO2+ZyDDb+MnZjXSC4gotmVe3oR2CtOFbyl1w3CE2DYDWyGDI/t5AX2G49nXsYeUdcyz6pV6l0+mh+FFj2jYLZ2AsQR/Njrw+lp1pidZy2VQ9U1qqOQ29v4JtNDedtc8wXEiABEiABEiABEiCBkMBtC3nZqizc22+h9YVd89kWc/gNLCNY5CEiZKgFnwm3LRDxW2v6NVpoKnvZ58n10/J7cH2R2kWaGtNROr1+koa4bicG3HkmsZ6ks0G8UHmpRbvlVAWFWIio84V34awFgc4WuU/FkAURc8tCG6IA/Ag6X/vjs9YvEB0iwaTuM7YGoaHnJryiXvBCgvQr/EukZUOEn1I3PyaIy9+Rl62g/9rddIV5FBtcI7fWp9KT5lHbwDf8GLaqFQAAIABJREFUoMcGH3WO8MkiZZtje0b//p3PecP5jTzaK/I9u17/AEjxP8SmOE3jd4aldjpe1+/uvMt5lprizsboHNFxI5aFP87To/Lnbz2y3EN9tt7y11A535ugJvVqk6Jz0tvwc/JUG5v6BwL04A0VVTt3IjsyyvcgOMsA3z/oQdVnyoY555WNsqkEDfwRBC02YLiIDu33v7LIUwUH3E3UxBL8Pli502kUOYwIKGO7mAJ/S6+hUJInQCiEXSWaVHstHhw3fyQhj1A5iFBjI6k5qz/QIbbAQY9X9vK4+x9yIpDzOR2jbSpBUHwjng0xTOoieYGZ74v7H2liJQSmixbyuvCkBUSTeYkJ/s0R9SYWueSOQmH2ofSoE8gKA+TfLJZ9phdaTc0+31dBHZyvYn5BaPPnG8TGGlac4xg/+q/FU64J6hqhqHGTBEiABEiABEiABEggpT2EPOIiARI4H4Gb6fS435022IhElGEQd5AACZAACZAACZAACZAACZAACZAACVx1AhTyrnoHMP87TyALdcGdSuKYQp6g4AYJaAKvvvJakrvv5A4l3NXFV7JhDxxaD3zm7Iv6EsBtEiABEiABEiABEiCBgACFvAAKd5HARRLIjzwuPjJIIe8icdMWCZAACZAACZAACZAACZAACZAACRwsAQp5B1taJkYCJEACJEACJEACJEACJEACJEACJEACJHBIBCjkHVI1mQsJkAAJkAAJkAAJkAAJkAAJkAAJkAAJkMDBEqCQd7ClZWIkQAIkQAIkQAIkQAIkQAIkQAIkQAIkQAKHRIBC3iFVk7mQAAmQAAmQAAmQAAmQAAmQAAmQAAmQAAkcLAEKeQdbWiZGAiRAAiRAAiRAAiRAAiRAAiRAAiRAAiRwSAQo5B1SNZkLCZAACZAACZAACZAACZAACZAACZAACZDAwRKgkHewpWViJEACJEACJEACJEACJEACJEACJEACJEACh0SAQt4hVZO5kAAJkAAJkAAJkAAJkAAJkAAJkAAJkAAJHCwBCnkHW1omRgIkQAIkQAIkQAIkQAIkQAIkQAIkQAIkcEgEKOQdUjWZCwmQAAmQAAmQAAmQAAmQAAmQAAmQAAmQwMESoJB3sKVlYiRAAiRAAiRAAiRAAiRAAiRAAiRAAiRAAodEgELeIVWTuZAACZAACZAACZAACZAACZAACZAACZAACRwsAQp5B1taJkYCJEACJEACJEACJEACJEACJEACJEACJHBIBCjkHVI1mQsJkAAJkAAJkAAJkAAJkAAJkAAJkAAJkMDBEqCQd7ClZWIkQAIkQAIkQAIkQAIkQAIkQAIkQAIkQAKHRIBC3iFVk7mQAAmQAAmQAAmQAAmQAAmQAAmQAAmQAAkcLAEKeQdbWiZGAiRAAiRAAiRAAiRAAiRAAiRAAiRAAiRwSAQo5B1SNZkLCZAACZAACZAACZAACZAACZAACZAACZDAwRKgkHewpWViJEACJEACJEACJEACJEACJEACJEACJEACh0RgVcg7O96l3S767ySd3QESN68fpZMbd8DwXTd5M51e26Xd8Z2gdNeToUMSIAESIAESIAESIAESIAESIAESIAESIIFvMIFtQt6103TTBVoFvgsW8544TUe7HYU8x5pvSYAESIAESIAESIAESIAESIAESIAESIAESODcQl4qottROn3iAiFSyLtAmDRFAiRAAiRAAiRAAiRAAiRAAiRAAiRAAiRwSAQuXMizj+KOQp89vktH19u9fjdO7CO8s0dS87hrp+kUj/yquwWt7dF3Su1xVzwqfHw6Pv7axET9OLF51Hfqf4Ntn6OK/ZCairmQAAmQAAmQAAmQAAmQAAmQAAmQAAmQAAlcPIFzC3lZNBMRrsVVhTT1uG0TriCEleNavPJ34Pn3Ub4Qw5zQt+ZbRDyZp4Q37Av859/s2+2UKBj6b7ZUbjUe9Rt5ZZ6yA1ERvqNcuY8ESIAESIAESIAESIAESIAESIAESIAESIAEGoFtQh7uYPOvWoQKRLDso4t3TezSc3wZJjbMsEEQS6k+5jv+tl73nVIq85TImI02f/iDFEW0U2Jc8etjivxH+9JZOsm8Wr5VEHT+TWJ8QwIkQAIkQAIkQAIkQAIkQAIkQAIkQAIkQAJzAtuEPC9upZSqMNXFs6lQpQQ0zNntJoKWF82iuJU9HN7i24h6mLhwV1yPtf7FXtxVGAmCZezAyAmXEA0P5o95CERukAAJkAAJkAAJkAAJkAAJkAAJkAAJkAAJ3AUC5xby/KOqXvjSvzFnhLsixFVxrIzRAthtCXnKprlzsIqGm4Q8Jbbl2Ip452MKhMTYdrsb0dyB2O7Sk/j0o7Z3odp0QQIkQAIkQAIkQAIkQAIkQAIkQAIkQAIkcGkJXLCQN7nTboYHoh7ELi+aRfMCIW16R56aH4tt9q65cIyPaeZfC5LFr7WtQmmbEPX2ZDYa4h4SIAESIAESIAESIAESIAESIAESIAESIIErQOC2hTz5gxdF4BrvMIsfO+1kzXEvmvVhfSsQ0urjriu+o3nNX/0duyq8ST7NI+40XHq0NvZvfyOvJ6C2iv8xbjWCmyRAAiRAAiRAAiRAAiRAAiRAAiRAAiRAAiRQCJxbyIvugit3tOnfvzPCXHSHWhW7RDwz4ycVigQ5/FGNqe9sy/tv73f9r+/O4s+P2UqMof9mS92VV20t/7GL8A7ASdrcTQIkQAIkQAIkQAIkQAIkQAIkQAIkQAIkcLUJbBPy5Dfd9O/QxY+EioDV5sidbIVzF8/kN/TwWG2rg8xXopgpUSik1REyN/Sdx1j/R9fP0uk1JdK547tdvlvO3Vk39W9t745Pi2381dri/fpRkrxLjDFDky/fkAAJkAAJkAAJkAAJkAAJkAAJkAAJkAAJkEBKaVXIO2xKVaSzYuNhZ8zsSIAESIAESIAESIAESIAESIAESIAESIAELieBKyPk1UeB7e/RRY8HX84yMmoSIAESIAESIAESIAESIAESIAESIAESIIFDJ3BlhLxcSP/o7U7/pt6hV5r5kQAJkAAJkAAJkAAJkAAJkAAJkAAJkAAJXGoCV0rIu9SVYvAkQAIkQAIkQAIkQAIkQAIkQAIkQAIkQAJXmgCFvCtdfiZPAiRAAiRAAiRAAiRAAiRAAiRAAiRAAiRwWQhQyLsslWKcJEACJEACJEACJEACJEACJEACJEACJEACV5oAhbwrXX4mTwIkQAIkQAIkQAIkQAIkQAIkQAIkQAIkcFkIUMi7LJVinCRAAiRAAiRAAiRAAiRAAiRAAiRAAiRAAleaAIW8K11+Jk8CJEACJEACJEACJEACJEACJEACJEACJHBZCFDIuyyVYpwkQAIkQAIkQAIkQAIkQAIkQAIkQAIkQAJXmgCFvCtdfiZPAiRAAiRAAiRAAiRAAiRAAiRAAiRAAiRwWQhQyLsslWKcJEACJEACJEACJEACJEACJEACJEACJEACV5oAhbwrXX4mTwIkQAIkQAIkQAIkQAIkQAIkQAIkQAIkcFkIUMi7LJVinCRAAiRAAiRAAiRAAiRAAiRAAiRAAiRAAleaAIW8K11+Jk8CJEACJEACJEACJEACJEACJEACJEACJHBZCFDIuyyVYpwkQAIkQAIkQAIkQAIkQAIkQAIkQAIkQAJXmgCFvCtdfiZPAiRAAiRAAiRAAiRAAiRAAiRAAiRAAiRwWQhQyLsslWKcJEACJEACJEACJEACJEACJEACJEACJEACV5oAhbwrXX4mTwIkQAIkQAIkQAIkQAIkQAIkQAIkQAIkcFkIUMi7LJVinCRAAiRAAiRAAiRAAiRAAiRAAiRAAiRAAleaAIW8K11+Jk8CJEACJEACJEACJEACJEACJEACJEACJHBZCFDIuyyVYpwkQAIkQAIkQAIkQAIkQAIkQAIkQAIkQAJXmsCqkHd2vEu73fJ/J79ymo7KmKN0+sSd43nz+pGN5fjszjnLlp9AXsj/JK16HOZgrnq9dppuXlDkuT4nNxaMrcWzJRaxsVxfqc+CzcV+uo16rnLwiIKcJLY949iSt3c/9pbqj3wuLTAcbF2RHeerz810es2xHa5ny319RfAyTRIgARIgARIgARIgARIgARIggUtA4NIIeSKW+EX4nqLL5pqI0ONFgBUxbzpP2bkQkaYLFLcl5G0RjSSnZcFDarSQn4gxvo54vzA3rt1GDn5ykJPEtmdPbcnbu6eQNxBZ3XG++vT+mP+DxHJfrwbGASRAAiRAAiRAAiRAAiRAAiRAAiRwlwisCnkmjhsn7Y44J2YFooiZd9tvztJJE3qOrrd72SSWO7MIF9FAhKUghtW8uoggca/O2Tqg294m5AWctjLcWN8tgpZw9WKZxLJL+7HayMFj3ZiTnxa935L3MO8C/Q+2D3THtHf2yPdctdrDPoeSAAmQAAmQAAmQAAmQAAmQAAmQwJ0kcAeEvC6s5DtgRlGmC2LlDhkRypbS7HO6aNX99H3R47DBo6ciovS75IyNlFIkGogI4EWoaeg9Rs9BbDWB0vtPqeeMO4n6mPHYbufEVcQkuQZCnvLRbaeUlKi22x2l0xt4xNjaEEY5h2un6QyPPi/UVOYEDIWJmd8ZgsNO5i5zEF/R3X4BFxkP+2aM9aXrOcatYoYt1AOvxjZ2Bq9q3MkxHi1HHZQf5Kj9ydyTdCbbuedbr0T7VAiSV9CjYKU5YF+vT0piQ+IaYza9p3vyGP9wUM/h0X6viY5DpTBsSjymx4LrhsSrTJjzInNEHfIYxJL3YVuPifYp29wkARIgARIgARIgARIgARIgARIggQ0ELljI68KYiC47JaQZ4UCPnYhQkoBb/PtFOMZN7asF95YxSQkQRcRQ8+Fr02uPWwsNIkhAfGmvfYxe9GtOYBkdnzCUfIMcRJhQc2Wf9Vvr2W3McijjZvWZCKSCcoi189P9lLcrqzmHaXwQaAZfgXgrYyIWqIXqlZK3inmBQ3+0tjMVDnojjCHXS/mZ9VE4t+Vy7aj9rqXKTcU744ceFUEMPEXIyvbQTz3GKtZF9ar+YbcLYiquJphJTMWnsiUxaHDxtsStcrXCtfK7ZYzkquJx9dhFrGVeHCf3kgAJkAAJkAAJkAAJkAAJkAAJkEBE4OKFPFlU90U87tDBQrwv2rt4ovdFgXbhQy20zR0xXVDptvriGnf9YCG/NKb6V/GrhXmfF0bpdnYbMk/EFYgd+m6gti8YA3ZgmZSQg9yc8/pWbGluetsKSeJHiRiyT3h3rpKXFnLUXB+T2JI+0SNgt8WE2JW9cX5n3DnATmeMussfkYBtyan3ojCWMbsk+3SeLQdt+1T+OEz3rTOUbW1b9ZcXTE3fa2aYv8QGY0T47OdIF0P1vnn/9TgmY5SvfqearYPUTotYIhyjDzFn/IMfMv/4tP8BC5W/sF3Y0LWqD+lH/TPug2/pMck3iBt1ktxU/8g+zFsIlodIgARIgARIgARIgARIgARIgARIwBG4YCHPLk6x+K0iiFqgD8KFWui6AP1bsalsyOJaDfbjzjsmvFsHC3XlL97sggAELxESVPz9bjPw86wiUajbjnKTeERw0OKd2xYxpPs1NsVGi0/ECBuX5Cb2JArZkLqEDOEfHGSae9xX98sKB4m95YzYZH/3NcQWjMkR+XGSt6qp4afSkE2x7WpRbPSYuoCm9omRtiH1aLbAVnyouYv7aj2jfMYetdwx5+haffy39DviKsxR234nY42+26nnyGyc4i6cVV6eyeQ94hwF3agOuPNTG+vxWtE1intp3/6x6yi4TQIkQAIkQAIkQAIkQAIkQAIkcDUJ3DtCHgSWrXUQQULduQPhQBb6fXEuwsqWMWEMegG/dRHe52wT8pTIMYkTdva/Iy+KuQsNyyIKxjUbEpsV8kT0XKilF8EMaqkpYoXfXkcRlCBWhXcmdu4yHj2B2AZfSiiC7WBMjtfnIOIQfORX+DEJqjcT22pE3ZyO28BG5qo6bdgX5qNyw7mEcbl3KhP1e4rHZ8LJ9hZq2zMFTztOnQttKMaZmqJW3dziFmKW+giPoMdyzs2+zFMcYiFP54care1bDJkHSYAESIAESIAESIAESIAESIAESEAIfEOEPAgBEsXaxibhSIk3IqJgIQ1RYMuYHIyfhwCxXy/McSx67f6qSKEeY5QYo3lunxEbIMp024s8ZW4cswgURbCY2PQ25D1iqfGKrYXcRIyJBBjUuc0Xe0uPv0ZCHuyo32cUW4hNcuhchtiCMTlTP05sF38Thq6km+60y3MmMXSfW+JXdRJ7831iG6x87HgPW/gNuDK+nyNH17I4hviwH+cijHRe24W8bBP2YB/2ll+H3JCDxBnNh68u7I11wRgdz9Z9kU/uIwESIAESIAESIAESIAESIAESIIGRwF0U8pQAIgKBX8SPAZY9stjWj7r1ufXuGiyalVAwCDpbxmSP3naNS0SAxUW/zqHbgZDXBYAoziauSNyR2AKhILCtXWNb2GEeDuTXzgN3HolIJTVSdZO8+zzJS9tSc7W34hG/IeeFPImz11hikbHdL+LVtUIsUieJo7Ma78TqXAZ/ElMfE+Uw+Ivq50FMbPthvV+WY4hq2edGfbSwT2Jb6NESqKqHuntNOOZ9UgPdR8q3sEJ+3aYXqMVu64eB+wBv3DHOUb0R9FmJQXggRiXID+dEH9NrsrZvjJN7SIAESIAESIAESIAESIAESIAESCAicFeFvC4s+MfY1MI+ilLfBTU82gaxQS3Ib2tMC0AEBh+ruitnEmvf3WOCyJSPiSDh4uxj+jzzGKERRvwYLRb0CObMdV5qrogW+ji2+zgRRFwOJV4l3qhIyuYsd8lTzV30IaJLwOFXTpLY8/HBvuTZc5LYYDsYY+o3FZR6TL2mjsTEthu14Y481Ea9DvGr80v8Lu8TFo6fz0ePg/Cm62bGi28Va7Pfx20X8rpQhmvAQG/YIbGhD/KI2bkuY3pMY1+hfzAG77PhrfuGMLmDBEiABEiABEiABEiABEiABEiABEICd1fIyyEMi3klKIQh9p2yCBdxQS+a8zgsnKtQkIUFmQNxY9OY5nOItd8t1qNa2poLOloAyeJAFzJgr88V8UByiOLzLKIxo4DSH32EX18j9btncvdRHStscz2unaaz6/UPHei7sJTVsunzltxCBk70zPlLTVTfyL6cX+XgY7spdW+cZE7nJrGBczAmJ+HHiS8RfjRDFaeGMbGth5TthXESR+YfsZG5Koat+3Seg9imohQRrHPsNYoEtrGvIQBWq/0ctvtH7mU8/Gv2Kjy/GdYqD4IdXFu8PeHWewz867mLuBUH33MlmGicj5LvSYAESIAESIAESIAESIAESIAESCAmsJ+QF9vgXhIgARIgARIgARIgARIgARIgARIgARIgARIggTtMgELeHQZM8yRAAiRAAiRAAiRAAiRAAiRAAiRAAiRAAiRwEQQo5F0ERdogARIgARIgARIgARIgARIgARIgARIgARIggTtMgELeHQZM8yRAAiRAAiRAAiRAAiRAAiRAAiRAAiRAAiRwEQQo5F0ERdogARIgARIgARIgARIgARIgARIgARIgARIggTtM4PaEvNdrdM+9+FL60t88W/67+fRz6cVXXikHXm/H73AONE8CJEACJEACJEACJEACJEACJEACJEACJEACB0/g3ELea69Vle7p52+l9/zyI+nvvv3h9G3v/d30d97xiXT6ic+ll16tYt5rr76W0muvpURV7+CbiQmSAAmQAAmQAAmQAAmQAAmQAAmQAAmQAAncOQL7CXmvZz2uCnivZoEupfTYU8+kv3/yu2n3H34jfdPbfzvtvv3/pu/56d9LX3v+hXKcN+XdueLRMgmQAAmQAAmQAAmQAAmQAAmQAAmQAAmQwNUhsFnIywKe/JdeTxDyPv/U19O3/rdPpt0PP5y+9d2/l3bf/4n0Qz/z/9LTTch78ZkX0stfvyXjV9E+cZqOdru0m/53ks5Wjdz5ATevH6XdtdN08w67OjuesbhDHG6cpN1uq+2b6fTaLh1dv9MUALn6y71xcgP77sDrXgyy/7N0onth7/n75nCWTnZH6fSJLfM6s35OBXP3jjnHcBG1r3ZW61nic+fC8fmuBOXcbdeX4jdfc85pa0sF7tQYnQdqe/fOxTuVFe2SAAmQAAmQAAmQAAmQAAmQAAksEdgk5OEuvMjQF778TPrmH/2dcife7kceTrujj6U3/tSN9PVXX0mvPPHV9NRb/3f6yn/8+fTso3/Zpy89ZtuEvNWFfbd20FtFyNMiUcu2LuIDQeaQaZTeOEknWdwMmFxY6nuKWrMaXVg8g6GNQl4Tv7y4AwHI7N8z5yJe3iUhL+71JlDu2wfD9aXZuVRCXhU/h3Og5TbsH/qHO0iABEiABEiABEiABEiABEiABC4rgU1CXk7uhedeSI//yePp849+IT32yOfT5z/7eHrl1ovphZdfSQ987LPpO37iRvrBBz6VvuO/30gP/t5j6dU858afpy/v3p6+svvu9PVf/VRn1H5fr+9QW8NCWx27gptLItHSsUNEJfkW0ekOiph7iloS112DvkHIWzmPqjim7rzcM+e7J+RVoc2IjuC8kiOGmddhzmUT8lbiHfIz2fMNCZAACZAACZAACZAACZAACZDAJSewKOThTrz8+vEPP5z+0+5N6a1/7zi9Zfdf0/fv3pJ+8xcfLum/8vqr6WvPvpCebv+90v5q7XOfezJ95a2/lJ76rv+ZnvujxzuqC7gjD3cVmTv3ihiBx/3wyF67e6U9ShcJArCFx9OMzVQXzifX+yO/+XiZY+4Gagts/UiwucsnjmdnxnRE2FoUicJFu803vjvHjdGP0npBp/kAG/vYbc3ZMl2wnZOC/VYr2LXMkb1+rXarL709jjm54WLwjIec3KO6iDG1Oms+xR3ElAfLo8XIYYfHXdV8ROd7zDAb4lECGwyY15zfspA59qcxkFL2eXyabuLx3H1jzo8TlzvyTssrGJi8isut54WLT97Cz9bHt13tde1cz+2uvTO9WZ+vu5P0YH5kXs8Je8D3/ZYcj9Lp9fzYen48uNfO98XqeVB6pc8XTLKRYzlJp0+AV+uVDb5t7XyO1YG9HlXW/nyzdiQwbpAACZAACZAACZAACZAACZAACVwAgWUhr90599Ktl9L7f+QD6Y27H0zv+IfvSv/ln/xYum/3A+ln3vqBdOuFWwthvJ5uPf1cuvW3z+39G3mrC9r8y2TmEcu2gBfRpi/oxVYTTPRCsy6k1cJ4GINFuhqDxb0IeW2M+E5VKDGPHiIeZacJCxJfQNLm6AdUmz0fz6Ax0sLEkJ8Tq7Sg08bq+Gw8brHfxmtxsozX/iGmCLsgRp9mfl/mdXY2DkzYwDjIaeiBFQZFBFO/0zfEouejTzUDEcFuSp/MGSM3/Zrz7Cz0kbrt6jIOGPeEMSsfQ9+AtRJBhzHbzwudvw+u9tCGx6m39N9QfxdjOa7ybkK+Ft9wN2KN2c3PwQ8cwMoKtEPfDfM8iegfEMYxdk/suzJVeQ6+4x6yvQ7bSz1go+E7EiABEiABEiABEiABEiABEiCB2yOwSch7+cWX08+/68Pph3bvSMff8p70rn/54+kHdm9L19/9i+nWCy9KBM+/9GL67BeeTJ/8zF+mP/viX6dXXq9/2VYGbNloC0rc4TO8arFMCSJ1YaoXym2RacY70UrN16HVBTZsBQt1L+SVmNWiuBjz82o8XXTLg/wYHUXdtgtnf9wutm3cGGv9ljFKRMMoedWCTtn2eclIiR85xbFa/16QK9ZazVfFHB13iU0JCMWQ81X2WcZh/t6/ZhDUyHMe8jbza0zT3FYZa97YzjaX6hJxwNzJq47Z82hTbN7VhxZt8zAzZo/zYsqn+a7nt/1jF37OUIcy17EYcrP9AZEOPV1FuaN0dE312sDK12LFZhRXy9Pwa/v0S5yjHuG3Xf758MCgzrG+7bUFVq3/DT2AiXwlARIgARIgARIgARIgARIgARK4EAKbhLyXXnwpvf9N7Y68f/Su9M5/+u503+4/p/e/5QPphfbXab/05b9Nb/+pj6VvfuMH07V3/lJ6w/f+XPqxn/14+urTXy+Bvr70u3g6lckiUw/R23XxWRf4dmFfF5l2HxaxbeE9E1GMABEvaItfLSwhqBa/CJAiJEbx+AU/jPRXu3Du++uWjm1uq9gocczHiGUtUjShM+ciwoYMzBt7+AcrY78ZW6t5eDzKZT/GundyjtIrLsZI4NAC1lAjPb9se6FHQ2xiyJSxHovtPGfd5lCzEosVw2TMlphNHSLW7vxCuPl1r/NCT/TbnVc9x5YF9zzb1MfkkI+OfdTPl3Yn6PFZtdHOZXNch7dPjrO+KDbmtTW5iG/PRN+9GNRp0TfOA31uiyPLsl0f5LzBsJUcMIyvJEACJEACJEACJEACJEACJEAC+xNYFvLab9m9/tpr6aHTj6fv270pvXn3zvSm3TvLb+R97AMPFY/Pv/RSeutPfjR9z3seTH/xxJfTc7dulTvzvvP4I+nHP/iJ9OLLL5dxr20R84aF9lpSbRELoUiGBwvYfEwvMgNhQwQ4EUriBa0V8poYgN/bCkWzKJ5RRJDw20a8cMeoarOKMS4GxIJXFZOINzCjX7WgU/aPdvvCvR7T/iPbJofBPmoCAUEHU7e94NZrlEUpCDl57AbGrb9go+Tie26IUdn1Y71QlMPQ8/X2mFrbs8Q4mpTjmYs9EKeiWnRrunc2xmxyV0y6UXt+QSQLerALoRM72uZsu7CFyKx70U4w/WdyyOMa+ybSlZmqZnlu6ZG8r1xj6nh/DqCfal7eZpBji13mgVF5ndfWXndsnnhn8o3OCZUf5pRXwybmuWo7Gyp25jkYn3xDAiRAAiRAAiRAAiRAAiRAAiSwF4FFIS+93m0997Xn0p/+/p+mR3730fTI7zya/uT3/zQ9+/SzZcAnH/1C2v2HPcGjAAAF+klEQVS796frv/776fEnv5z+7AtPpi986cvpf/zSWdr9s59Mf/RnXyrj8h/NwB/Q6JbdlllMumPB27KwbItgK1wEi+c8vyxi2yJTbwe26654QWsW1KGdDYv5SERwcdiFsztoFszenxtb3m4YM1vk6/kiImk2c9slBwglkf3Fms/t4i6vLqpENbfzQ57efxAjcqiiohYP3R1fmZOeX7b3ETVavMI4qmPOc9lmmKcxVVnJObMlZtNvEWvkvnR+2XrE4qsJdOGNtqW37RTUruz1tY7OQckz22y5YN+N/EdvFPuwvj6WgFU4z8Ydvtswz9Z+D9/IsfwBlJqD9EcLZtV2HrchxjA37iQBEiABEiABEiABEiABEiABElglsCzktelr4tuv/dZn0u7bP5C+610Ppn/15g+nf/z9v5D+9Zs/nL7zR381/Ysf/nD6g8+1P435erpYIa8sGOsdM1VgUQtsPBYKAanlYgS4YVHfBhW7EGviBa22o7eFeLO9fOeRX/DLbNmwC2fZXTb8Mf++jrbxx2OUXZO72i+bWhjYYruOF0Egsj+rQ/a5dAwijNyNqWNDwJqxjVdGlL9Uqu4IjGJs+07yH1hxPTUw1fMX40cE/jXKQ4/Jx3Wv62Nte9XvQl0mc+s5hvPCzW9u9Zjznxcqn8Jylqut51CHYsbFOeSm+wN+m93jk3Tkeuvo2lG7M6+OPXeOQxzNt+4dhGNeo3jNgPXHXye+de3COxUn55s/H0ImNkS+IwESIAESIAESIAESIAESIAESOCeBTUIebD/7lWfS45/4TPr8xx5JT/7hF9LLL9VHZj/+yc+l3Xd/MJ398ePpq88+n7741NPpS199Jn3xK0+nJ77ydHrx5VdgYv11ssgcJ/oFbXvvFt750TW5YyuwXRevWihwC/+2eBUhqgViFqtl8a38YMGb7xR08UgsxY7PYcwyFifwRwV03HlujV0vrO3ivAtjJh8tlmghQe/XecvjrDV+sdX4av8lfhmPu3UgBjWjQV1AYpiPAyYecKj5LzEe7CFm/Rt1moH4a2x1P7VjQ43c/MEn+iMLgquMJQC1kWNBzmq33yy2R+Gx+nSPJYcxKx+Nk9QavaZ5+DHNf69H6/fV80IngjmuZ/IQFzNE38X+G3otPgfreWPZ1TriUd4W423kuH7t0Rz0NnrRM8F+fS2q+3oNqp2ay1J9x78mLUzcNW3tGqsj5zYJkAAJkAAJkAAJkAAJkAAJkMDtEVgV8vTdeH/5W59Nv7Z7d3pw9670O9/3C+m5r9ZHa//6b55J//6dv5x+4vThdOuVl0pEX3v++fS/Hvp0+osn/nq/CJWwEv9+VF2kDgvR7AVzyx1TdQF7dP00nbRHb82CU0UlC9TwEV0nVrV5ZY4saCGs9T8kkAUPK+BEC+pYRFChNRvdbmfiF/GY1RfzdWw0zo9RC3ovjjShovtVY0OR09lWjEqE3n7eOYgrLhd3BxyOltc2twpMWxhDGALTnE+LGX6iGPFbeFqURCDoO4hawXzfY1ps6sKajgnGo9ccr65DNAb7fL7Vhxd2BlFM/gItYtLiULYN1o1dO3e8XZ/3tvMCsfdXb6f0I+rVh0lc0q++/6Jekx5XTNs+nU+NQY1pfn1s++QYzTXpLLzxc2MmqNNoyM/XudbRrneOz+pfJRam1faWa+zonXtIgARIgARIgARIgARIgARIgATOQ2AvIe+xX/+D9Cu7t6df3b0j/ea/eSA9+9TXxOejf/5X6Z//wM+nf/DGD6bvfc+D6Zvu+0D6trf8YvrsY3+V/vCxL6b/86nPpuduvVjGa3FQDFz4BhaZNy/cMg1eRQLrouvdo5J7exSU7p5/eiKBTIDXWPYBCZAACZAACZAACZAACZAACdxtAnsJeU995ovp4e/+ufTxf/tA+sOf/o308vNVmEPQT/3t19Ov//Zn0s8++Kn0sbM/SX/zzHPl0Of+6qn0W3/8WHr+Vr1bj0IeiPH10hAod3LdK+IZhbxL0zcHHSiFvIMuL5MjARIgARIgARIgARIgARK4Jwn8f1v7mXeKr3pLAAAAAElFTkSuQmCC;" vertex="1" parent="xz6AxM3HopdPyTxjWoAX-90">
          <mxGeometry x="8" y="32" width="717.39" height="187" as="geometry" />
        </mxCell>
      </root>
    </mxGraphModel>
  </diagram>
</mxfile>
